<svg width="48" height="48" viewBox="0 0 48 48" fill="none" xmlns="http://www.w3.org/2000/svg">
<rect width="48" height="48" rx="10" fill="#44392B"/>
<path d="M24 22.125C22.7624 22.125 21.5754 21.6311 20.7002 20.7521C19.825 19.873 19.3334 18.6807 19.3334 17.4375C19.3334 16.1943 19.825 15.002 20.7002 14.1229C21.5754 13.2439 22.7624 12.75 24 12.75C25.2377 12.75 26.4247 13.2439 27.2999 14.1229C28.175 15.002 28.6667 16.1943 28.6667 17.4375C28.6667 18.6807 28.175 19.873 27.2999 20.7521C26.4247 21.6311 25.2377 22.125 24 22.125ZM24 14.625C22.4507 14.625 21.2 15.8813 21.2 17.4375C21.2 18.9938 22.4507 20.25 24 20.25C25.5494 20.25 26.8 18.9938 26.8 17.4375C26.8 15.8813 25.5494 14.625 24 14.625Z" fill="white"/>
<path d="M35.2 29.625C34.6773 29.625 34.2667 29.2125 34.2667 28.6875C34.2667 28.1625 34.6773 27.75 35.2 27.75C35.7227 27.75 36.1333 27.3375 36.1333 26.8125C36.1333 25.5693 35.6417 24.377 34.7665 23.4979C33.8913 22.6189 32.7043 22.125 31.4667 22.125H29.6C29.0773 22.125 28.6667 21.7125 28.6667 21.1875C28.6667 20.6625 29.0773 20.25 29.6 20.25C31.1493 20.25 32.4 18.9938 32.4 17.4375C32.4 15.8813 31.1493 14.625 29.6 14.625C29.0773 14.625 28.6667 14.2125 28.6667 13.6875C28.6667 13.1625 29.0773 12.75 29.6 12.75C30.8377 12.75 32.0247 13.2439 32.8998 14.1229C33.775 15.002 34.2667 16.1943 34.2667 17.4375C34.2667 18.6 33.856 19.65 33.1467 20.475C35.928 21.225 38 23.775 38 26.8125C38 28.3687 36.7493 29.625 35.2 29.625ZM12.8 29.625C11.2507 29.625 10 28.3687 10 26.8125C10 23.775 12.0533 21.225 14.8533 20.475C14.1627 19.65 13.7333 18.6 13.7333 17.4375C13.7333 16.1943 14.225 15.002 15.1002 14.1229C15.9753 13.2439 17.1623 12.75 18.4 12.75C18.9227 12.75 19.3333 13.1625 19.3333 13.6875C19.3333 14.2125 18.9227 14.625 18.4 14.625C16.8507 14.625 15.6 15.8813 15.6 17.4375C15.6 18.9938 16.8507 20.25 18.4 20.25C18.9227 20.25 19.3333 20.6625 19.3333 21.1875C19.3333 21.7125 18.9227 22.125 18.4 22.125H16.5333C15.2957 22.125 14.1087 22.6189 13.2335 23.4979C12.3583 24.377 11.8667 25.5693 11.8667 26.8125C11.8667 27.3375 12.2773 27.75 12.8 27.75C13.3227 27.75 13.7333 28.1625 13.7333 28.6875C13.7333 29.2125 13.3227 29.625 12.8 29.625ZM29.6 35.25H18.4C16.8507 35.25 15.6 33.9937 15.6 32.4375V30.5625C15.6 26.9438 18.5307 24 22.1333 24H25.8667C29.4693 24 32.4 26.9438 32.4 30.5625V32.4375C32.4 33.9937 31.1493 35.25 29.6 35.25ZM22.1333 25.875C20.8957 25.875 19.7087 26.3689 18.8335 27.2479C17.9583 28.127 17.4667 29.3193 17.4667 30.5625V32.4375C17.4667 32.9625 17.8773 33.375 18.4 33.375H29.6C30.1227 33.375 30.5333 32.9625 30.5333 32.4375V30.5625C30.5333 29.3193 30.0417 28.127 29.1665 27.2479C28.2913 26.3689 27.1043 25.875 25.8667 25.875H22.1333Z" fill="white"/>
</svg>
