<svg width="80" height="29" viewBox="0 0 80 29" fill="none" xmlns="http://www.w3.org/2000/svg">
<rect x="0.5" y="0.5" width="79" height="28" rx="14" stroke="#FBBF24"/>
<g clip-path="url(#clip0_171_425)">
<path d="M23.5938 9.34375H21.833C21.8019 9.34375 21.7721 9.3314 21.7501 9.30943C21.7282 9.28745 21.7158 9.25764 21.7158 9.22656C21.7158 9.0833 21.7158 8.96289 21.7158 8.87266C21.7152 8.62442 21.6162 8.38657 21.4404 8.21126C21.2647 8.03595 21.0266 7.9375 20.7783 7.9375L14.222 7.94512C13.974 7.94558 13.7363 8.04428 13.5609 8.2196C13.3855 8.39492 13.2868 8.63259 13.2862 8.88057C13.2862 8.9752 13.2862 9.09209 13.2862 9.22656C13.2862 9.25764 13.2739 9.28745 13.2519 9.30943C13.2299 9.3314 13.2001 9.34375 13.169 9.34375H11.4062C11.2819 9.34375 11.1627 9.39314 11.0748 9.48104C10.9869 9.56895 10.9375 9.68818 10.9375 9.8125V10.2812C10.9375 11.8788 11.8164 13.5757 13.1793 13.9536C13.2196 13.9648 13.2561 13.9869 13.2847 14.0173C13.3134 14.0478 13.3332 14.0856 13.3419 14.1265C13.5109 14.9143 14.031 15.6646 14.848 16.283C15.4606 16.7468 16.1913 17.0887 16.8481 17.2346C16.9001 17.2462 16.9465 17.2752 16.9798 17.3167C17.0131 17.3582 17.0312 17.4099 17.0312 17.4631V20.0078C17.0312 20.0389 17.0189 20.0687 16.9969 20.0907C16.9749 20.1127 16.9451 20.125 16.9141 20.125H15.1694C14.9172 20.125 14.7007 20.3189 14.6881 20.5712C14.685 20.6346 14.6949 20.6979 14.717 20.7574C14.7392 20.8168 14.7732 20.8712 14.8169 20.9171C14.8607 20.9631 14.9134 20.9996 14.9717 21.0246C15.03 21.0496 15.0928 21.0625 15.1562 21.0625H19.8306C20.0828 21.0625 20.2993 20.8686 20.3119 20.6163C20.315 20.5529 20.3051 20.4896 20.283 20.4301C20.2608 20.3707 20.2268 20.3163 20.1831 20.2704C20.1393 20.2244 20.0866 20.1879 20.0283 20.1629C19.97 20.1379 19.9072 20.125 19.8438 20.125H18.0859C18.0549 20.125 18.0251 20.1127 18.0031 20.0907C17.9811 20.0687 17.9688 20.0389 17.9688 20.0078V17.4631C17.9688 17.4099 17.9869 17.3582 18.0202 17.3167C18.0535 17.2752 18.0999 17.2462 18.1519 17.2346C18.8087 17.0881 19.5394 16.7468 20.152 16.283C20.969 15.6646 21.4891 14.9143 21.6581 14.1265C21.6668 14.0856 21.6866 14.0478 21.7153 14.0173C21.7439 13.9869 21.7804 13.9648 21.8207 13.9536C23.1836 13.5757 24.0625 11.8788 24.0625 10.2812V9.8125C24.0625 9.68818 24.0131 9.56895 23.9252 9.48104C23.8373 9.39314 23.7181 9.34375 23.5938 9.34375ZM13.2812 12.8072C13.2812 12.8278 13.2757 12.8479 13.2654 12.8657C13.2551 12.8834 13.2403 12.8982 13.2225 12.9084C13.2047 12.9186 13.1845 12.924 13.164 12.924C13.1434 12.924 13.1233 12.9186 13.1055 12.9083C12.8049 12.7293 12.5854 12.458 12.4568 12.267C12.1079 11.7487 11.9002 11.0755 11.8771 10.4028C11.8765 10.3871 11.8791 10.3714 11.8847 10.3566C11.8903 10.3419 11.8988 10.3285 11.9098 10.3171C11.9207 10.3058 11.9338 10.2967 11.9484 10.2906C11.9629 10.2844 11.9785 10.2812 11.9942 10.2812H13.1661C13.1972 10.2812 13.227 10.2936 13.249 10.3156C13.271 10.3376 13.2833 10.3674 13.2833 10.3984C13.2827 11.2026 13.2812 12.1231 13.2812 12.8072ZM22.5429 12.267C22.4143 12.458 22.1951 12.7293 21.8945 12.9083C21.8767 12.9186 21.8565 12.924 21.836 12.924C21.8154 12.924 21.7952 12.9186 21.7774 12.9083C21.7596 12.8981 21.7448 12.8833 21.7345 12.8655C21.7242 12.8477 21.7188 12.8275 21.7188 12.8069C21.7188 12.0303 21.7188 11.1479 21.7173 10.3984C21.7173 10.3674 21.7296 10.3376 21.7516 10.3156C21.7736 10.2936 21.8034 10.2812 21.8345 10.2812H23.0063C23.0221 10.2812 23.0377 10.2844 23.0522 10.2906C23.0667 10.2967 23.0799 10.3058 23.0908 10.3171C23.1017 10.3285 23.1103 10.3419 23.1159 10.3566C23.1215 10.3714 23.1241 10.3871 23.1235 10.4028C23.1004 11.0755 22.8921 11.7487 22.5432 12.267H22.5429Z" fill="#F59E0B"/>
</g>
<path d="M35.3867 11.9688V10.5156H42.3359V11.9688H39.7344V19H37.9883V11.9688H35.3867ZM51.0531 14.7578C51.0531 17.5234 49.3305 19.1172 47.0922 19.1172C44.8305 19.1172 43.1195 17.5117 43.1195 14.7578C43.1195 11.9922 44.8305 10.3984 47.0922 10.3984C49.3305 10.3984 51.0531 11.9922 51.0531 14.7578ZM49.2601 14.7578C49.2601 12.9414 48.4047 11.957 47.0922 11.957C45.7797 11.957 44.9125 12.9414 44.9125 14.7578C44.9125 16.5742 45.7797 17.5586 47.0922 17.5586C48.4047 17.5586 49.2601 16.5742 49.2601 14.7578ZM52.5515 19V10.5156H55.8797C57.8133 10.5156 58.9148 11.6992 58.9148 13.375C58.9148 15.0742 57.7898 16.2344 55.8328 16.2344H54.3093V19H52.5515ZM54.3093 14.8164H55.5515C56.5945 14.8164 57.0984 14.2305 57.0984 13.375C57.0984 12.5312 56.5945 11.957 55.5515 11.957H54.3093V14.8164ZM63.2125 19L63.2007 17.7227L66.2476 14.9219C67.0445 14.1602 67.4664 13.6914 67.4664 13.0234C67.4664 12.2734 66.8921 11.8047 66.1187 11.8047C65.3218 11.8047 64.8062 12.3086 64.8062 13.1172H63.1304C63.1187 11.4531 64.3492 10.3984 66.1421 10.3984C67.9585 10.3984 69.1656 11.4297 69.1656 12.9062C69.1656 13.8672 68.6968 14.6641 66.9507 16.2461L65.6617 17.5V17.5469H69.2828V19H63.2125Z" fill="#F59E0B"/>
<defs>
<clipPath id="clip0_171_425">
<rect width="15" height="15" fill="white" transform="translate(10 7)"/>
</clipPath>
</defs>
</svg>
