<svg width="48" height="48" viewBox="0 0 48 48" fill="none" xmlns="http://www.w3.org/2000/svg">
<rect width="48" height="48" rx="10" fill="#44392B"/>
<path d="M32.75 24.875H29.25V21.375H31C31.4641 21.375 31.9092 21.1906 32.2374 20.8624C32.5656 20.5342 32.75 20.0891 32.75 19.625V14.375C32.75 13.9109 32.5656 13.4658 32.2374 13.1376C31.9092 12.8094 31.4641 12.625 31 12.625H17C16.5359 12.625 16.0908 12.8094 15.7626 13.1376C15.4344 13.4658 15.25 13.9109 15.25 14.375V19.625C15.25 20.0891 15.4344 20.5342 15.7626 20.8624C16.0908 21.1906 16.5359 21.375 17 21.375H18.75V24.875H15.25C14.7859 24.875 14.3408 25.0594 14.0126 25.3876C13.6844 25.7158 13.5 26.1609 13.5 26.625V28.375C13.5 28.8391 13.6844 29.2842 14.0126 29.6124C14.3408 29.9406 14.7859 30.125 15.25 30.125H16.125V34.5C16.125 34.7321 16.2172 34.9546 16.3813 35.1187C16.5454 35.2828 16.7679 35.375 17 35.375C17.2321 35.375 17.4546 35.2828 17.6187 35.1187C17.7828 34.9546 17.875 34.7321 17.875 34.5V30.125H30.125V34.5C30.125 34.7321 30.2172 34.9546 30.3813 35.1187C30.5454 35.2828 30.7679 35.375 31 35.375C31.2321 35.375 31.4546 35.2828 31.6187 35.1187C31.7828 34.9546 31.875 34.7321 31.875 34.5V30.125H32.75C33.2141 30.125 33.6592 29.9406 33.9874 29.6124C34.3156 29.2842 34.5 28.8391 34.5 28.375V26.625C34.5 26.1609 34.3156 25.7158 33.9874 25.3876C33.6592 25.0594 33.2141 24.875 32.75 24.875ZM17 14.375H31V19.625H17V14.375ZM20.5 21.375H27.5V24.875H20.5V21.375ZM32.75 28.375H15.25V26.625H32.75V28.375Z" fill="white"/>
</svg>
