<svg width="48" height="48" viewBox="0 0 48 48" fill="none" xmlns="http://www.w3.org/2000/svg">
<rect width="48" height="48" rx="10" fill="#44392B"/>
<path d="M19.6799 26.548C20.247 25.9802 20.9204 25.5299 21.6617 25.2226C22.403 24.9153 23.1976 24.7571 24 24.7571C24.8025 24.7571 25.5971 24.9153 26.3384 25.2226C27.0796 25.5299 27.7531 25.9802 28.3202 26.548M16.4447 23.3116C18.4487 21.3083 21.1664 20.1829 24 20.1829C26.8337 20.1829 29.5513 21.3083 31.5554 23.3116M25.526 30.867C25.526 31.2717 25.3653 31.6598 25.0791 31.946C24.7929 32.2322 24.4048 32.393 24 32.393C23.5953 32.393 23.2072 32.2322 22.921 31.946C22.6348 31.6598 22.474 31.2717 22.474 30.867C22.474 30.4622 22.6348 30.0741 22.921 29.7879C23.2072 29.5017 23.5953 29.341 24 29.341C24.4048 29.341 24.7929 29.5017 25.0791 29.7879C25.3653 30.0741 25.526 30.4622 25.526 30.867Z" stroke="white" stroke-width="2" stroke-linecap="round" stroke-linejoin="round"/>
<path d="M13.2084 20.0753C16.0707 17.2136 19.9525 15.606 24 15.606C28.0476 15.606 31.9293 17.2136 34.7917 20.0753" stroke="white" stroke-width="2" stroke-linecap="round" stroke-linejoin="round"/>
</svg>
