<svg width="160" height="64" viewBox="0 0 160 64" fill="none" xmlns="http://www.w3.org/2000/svg">
<rect x="0.5" y="0.5" width="159" height="63" rx="4.5" stroke="#7B61FF" stroke-dasharray="10 5"/>
<path fill-rule="evenodd" clip-rule="evenodd" d="M32.233 24.4545C32.6723 24.8938 32.6723 25.6062 32.233 26.0455L27.4035 30.875H39.3125C39.9338 30.875 40.4375 31.3787 40.4375 32C40.4375 32.6213 39.9338 33.125 39.3125 33.125H27.4035L32.233 37.9545C32.6723 38.3938 32.6723 39.1062 32.233 39.5455C31.7937 39.9848 31.0813 39.9848 30.642 39.5455L23.892 32.7955C23.4527 32.3562 23.4527 31.6438 23.892 31.2045L30.642 24.4545C31.0813 24.0152 31.7937 24.0152 32.233 24.4545Z" fill="black"/>
<path fill-rule="evenodd" clip-rule="evenodd" d="M80.233 24.4545C80.6723 24.8938 80.6723 25.6062 80.233 26.0455L75.4035 30.875H87.3125C87.9338 30.875 88.4375 31.3787 88.4375 32C88.4375 32.6213 87.9338 33.125 87.3125 33.125H75.4035L80.233 37.9545C80.6723 38.3938 80.6723 39.1062 80.233 39.5455C79.7937 39.9848 79.0813 39.9848 78.642 39.5455L71.892 32.7955C71.4527 32.3562 71.4527 31.6438 71.892 31.2045L78.642 24.4545C79.0813 24.0152 79.7937 24.0152 80.233 24.4545Z" fill="black"/>
<path fill-rule="evenodd" clip-rule="evenodd" d="M129.029 25.2503L123.404 30.8753H136.438V33.1253H123.404L129.029 38.7503L127.438 40.3413L119.097 32.0003L127.438 23.6593L129.029 25.2503Z" fill="black"/>
</svg>
