<svg width="160" height="64" viewBox="0 0 160 64" fill="none" xmlns="http://www.w3.org/2000/svg">
<rect x="0.5" y="0.5" width="159" height="63" rx="4.5" stroke="#7B61FF" stroke-dasharray="10 5"/>
<path fill-rule="evenodd" clip-rule="evenodd" d="M29.8058 23.7121C30.172 23.346 30.7655 23.346 31.1317 23.7121L36.7567 29.3371C37.1228 29.7032 37.1228 30.2968 36.7567 30.6629L31.1317 36.2879C30.7655 36.654 30.172 36.654 29.8058 36.2879C29.4397 35.9218 29.4397 35.3282 29.8058 34.9621L33.8304 30.9375H23.9062C23.3885 30.9375 22.9688 30.5178 22.9688 30C22.9688 29.4822 23.3885 29.0625 23.9062 29.0625H33.8304L29.8058 25.0379C29.4397 24.6718 29.4397 24.0782 29.8058 23.7121Z" fill="black"/>
<path fill-rule="evenodd" clip-rule="evenodd" d="M79.767 24.4545C80.2063 24.0152 80.9187 24.0152 81.358 24.4545L88.108 31.2045C88.5473 31.6438 88.5473 32.3562 88.108 32.7955L81.358 39.5455C80.9187 39.9848 80.2063 39.9848 79.767 39.5455C79.3277 39.1062 79.3277 38.3938 79.767 37.9545L84.5965 33.125H72.6875C72.0662 33.125 71.5625 32.6213 71.5625 32C71.5625 31.3787 72.0662 30.875 72.6875 30.875H84.5965L79.767 26.0455C79.3277 25.6062 79.3277 24.8938 79.767 24.4545Z" fill="black"/>
<path fill-rule="evenodd" clip-rule="evenodd" d="M128.562 23.6593L136.903 32.0003L128.562 40.3413L126.972 38.7503L132.597 33.1253H119.562V30.8753H132.597L126.972 25.2503L128.562 23.6593Z" fill="black"/>
</svg>
