<svg width="64" height="108" viewBox="0 0 64 108" fill="none" xmlns="http://www.w3.org/2000/svg">
<rect x="0.5" y="0.5" width="63" height="107" rx="4.5" stroke="#8A38F5" stroke-dasharray="10 5"/>
<path d="M29 20C29.1989 20 29.3897 20.079 29.5303 20.2197C29.671 20.3603 29.75 20.5511 29.75 20.75V24.5H34.25V20.75C34.25 20.5511 34.329 20.3603 34.4697 20.2197C34.6103 20.079 34.8011 20 35 20C35.1989 20 35.3897 20.079 35.5303 20.2197C35.671 20.3603 35.75 20.5511 35.75 20.75V24.5H37.25C37.4489 24.5 37.6397 24.579 37.7803 24.7197C37.921 24.8603 38 25.0511 38 25.25V29.75C38 31.1424 37.4469 32.4777 36.4623 33.4623C35.4777 34.4469 34.1424 35 32.75 35C32.747 35.651 32.735 36.2675 32.69 36.83C32.6285 37.601 32.501 38.3345 32.2145 38.966C31.9244 39.6341 31.4096 40.1796 30.7595 40.508C30.0875 40.85 29.2535 41 28.25 41C26.753 41 25.835 41.495 25.289 42.077C24.7958 42.5974 24.5145 43.2831 24.5 44H23C23 43.076 23.348 41.9495 24.1955 41.048C25.061 40.13 26.3915 39.5 28.25 39.5C29.1215 39.5 29.693 39.368 30.077 39.1715C30.4385 38.987 30.677 38.7215 30.848 38.3465C31.0295 37.9475 31.1375 37.415 31.193 36.7115C31.2335 36.2015 31.2455 35.6345 31.2485 35C29.8564 34.9996 28.5214 34.4463 27.5372 33.4618C26.5529 32.4773 26 31.1421 26 29.75V25.25C26 25.0511 26.079 24.8603 26.2197 24.7197C26.3603 24.579 26.5511 24.5 26.75 24.5H28.25V20.75C28.25 20.5511 28.329 20.3603 28.4697 20.2197C28.6103 20.079 28.8011 20 29 20Z" fill="#1E1E1E"/>
<path d="M35.5 68H34.75V63.5H33.25V68H28.75V63.5H27.25V68H26.5C26.1022 68 25.7206 68.158 25.4393 68.4393C25.158 68.7206 25 69.1022 25 69.5V74C25.0029 75.46 25.5375 76.869 26.5037 77.9636C27.4699 79.0582 28.8016 79.7634 30.25 79.9475V84.5H31.75V79.9475C33.1984 79.7634 34.5301 79.0582 35.4963 77.9636C36.4625 76.869 36.9971 75.46 37 74V69.5C37 69.1022 36.842 68.7206 36.5607 68.4393C36.2794 68.158 35.8978 68 35.5 68Z" fill="#1E1E1E"/>
</svg>
