<svg width="59" height="115" viewBox="0 0 59 115" fill="none" xmlns="http://www.w3.org/2000/svg">
<rect x="0.5" y="0.5" width="58" height="114" rx="4.5" stroke="#8A38F5" stroke-dasharray="10 5"/>
<path d="M30.5 27.425V26.15C30.9125 25.975 31.3345 25.8438 31.766 25.7563C32.1975 25.6688 32.6505 25.625 33.125 25.625C33.45 25.625 33.7688 25.65 34.0812 25.7C34.3937 25.75 34.7 25.8125 35 25.8875V27.0875C34.7 26.975 34.3968 26.8907 34.0903 26.8347C33.7838 26.7787 33.462 26.7505 33.125 26.75C32.65 26.75 32.1938 26.8095 31.7563 26.9285C31.3188 27.0475 30.9 27.213 30.5 27.425ZM30.5 31.55V30.275C30.9125 30.1 31.3345 29.9688 31.766 29.8813C32.1975 29.7938 32.6505 29.75 33.125 29.75C33.45 29.75 33.7688 29.775 34.0812 29.825C34.3937 29.875 34.7 29.9375 35 30.0125V31.2125C34.7 31.1 34.3968 31.0155 34.0903 30.959C33.7838 30.9025 33.462 30.8745 33.125 30.875C32.65 30.875 32.1938 30.9313 31.7563 31.0438C31.3188 31.1562 30.9 31.325 30.5 31.55ZM30.5 29.4875V28.2125C30.9125 28.0375 31.3345 27.9062 31.766 27.8188C32.1975 27.7313 32.6505 27.6875 33.125 27.6875C33.45 27.6875 33.7688 27.7125 34.0812 27.7625C34.3937 27.8125 34.7 27.875 35 27.95V29.15C34.7 29.0375 34.3968 28.953 34.0903 28.8965C33.7838 28.84 33.462 28.812 33.125 28.8125C32.65 28.8125 32.1938 28.872 31.7563 28.991C31.3188 29.11 30.9 29.2755 30.5 29.4875ZM24.875 32C25.4625 32 26.0345 32.0658 26.591 32.1973C27.1475 32.3288 27.7005 32.5255 28.25 32.7875V25.4C27.7375 25.1 27.1937 24.875 26.6187 24.725C26.0437 24.575 25.4625 24.5 24.875 24.5C24.425 24.5 23.978 24.5438 23.534 24.6313C23.09 24.7188 22.662 24.85 22.25 25.025V32.45C22.6875 32.3 23.122 32.1875 23.5535 32.1125C23.985 32.0375 24.4255 32 24.875 32ZM29.75 32.7875C30.3 32.525 30.8533 32.3282 31.4097 32.1973C31.9663 32.0663 32.538 32.0005 33.125 32C33.575 32 34.0157 32.0375 34.4473 32.1125C34.8788 32.1875 35.313 32.3 35.75 32.45V25.025C35.3375 24.85 34.9093 24.7188 34.4653 24.6313C34.0213 24.5438 33.5745 24.5 33.125 24.5C32.5375 24.5 31.9563 24.575 31.3813 24.725C30.8063 24.875 30.2625 25.1 29.75 25.4V32.7875ZM29 35C28.4 34.525 27.75 34.1562 27.05 33.8937C26.35 33.6312 25.625 33.5 24.875 33.5C24.35 33.5 23.8345 33.5687 23.3285 33.7062C22.8225 33.8438 22.338 34.0375 21.875 34.2875C21.6125 34.425 21.3595 34.4187 21.116 34.2687C20.8725 34.1187 20.7505 33.9 20.75 33.6125V24.575C20.75 24.4375 20.7845 24.3062 20.8535 24.1812C20.9225 24.0562 21.0255 23.9625 21.1625 23.9C21.7375 23.6 22.3375 23.375 22.9625 23.225C23.5875 23.075 24.225 23 24.875 23C25.6 23 26.3095 23.0938 27.0035 23.2812C27.6975 23.4688 28.363 23.75 29 24.125C29.6375 23.75 30.3033 23.4688 30.9972 23.2812C31.6912 23.0938 32.4005 23 33.125 23C33.775 23 34.4125 23.075 35.0375 23.225C35.6625 23.375 36.2625 23.6 36.8375 23.9C36.975 23.9625 37.0783 24.0562 37.1473 24.1812C37.2163 24.3062 37.2505 24.4375 37.25 24.575V33.6125C37.25 33.9 37.1283 34.1187 36.8848 34.2687C36.6413 34.4187 36.388 34.425 36.125 34.2875C35.6625 34.0375 35.1782 33.8438 34.6722 33.7062C34.1663 33.5687 33.6505 33.5 33.125 33.5C32.375 33.5 31.65 33.6312 30.95 33.8937C30.25 34.1562 29.6 34.525 29 35Z" fill="#1E1E1E"/>
<path d="M29.75 57.7875C30.3 57.525 30.8533 57.328 31.4097 57.1965C31.9663 57.065 32.538 56.9995 33.125 57C33.575 57 34.0157 57.0375 34.4473 57.1125C34.8788 57.1875 35.313 57.3 35.75 57.45V50.025C35.3375 49.85 34.9093 49.7188 34.4653 49.6313C34.0213 49.5438 33.5745 49.5 33.125 49.5C32.5375 49.5 31.9563 49.575 31.3813 49.725C30.8063 49.875 30.2625 50.1 29.75 50.4V57.7875ZM29 59.6063C28.825 59.6063 28.6592 59.5843 28.5027 59.5403C28.3463 59.4963 28.1995 59.437 28.0625 59.3625C27.575 59.075 27.0625 58.8595 26.525 58.716C25.9875 58.5725 25.4375 58.5005 24.875 58.5C24.35 58.5 23.8345 58.5688 23.3285 58.7063C22.8225 58.8438 22.338 59.0375 21.875 59.2875C21.6125 59.425 21.3595 59.4188 21.116 59.2688C20.8725 59.1188 20.7505 58.9 20.75 58.6125V49.575C20.75 49.4375 20.7845 49.3063 20.8535 49.1813C20.9225 49.0563 21.0255 48.9625 21.1625 48.9C21.75 48.6125 22.3533 48.3905 22.9722 48.234C23.5912 48.0775 24.2255 47.9995 24.875 48C25.6 48 26.3095 48.0938 27.0035 48.2813C27.6975 48.4688 28.363 48.75 29 49.125C29.6375 48.75 30.3033 48.4688 30.9972 48.2813C31.6912 48.0938 32.4005 48 33.125 48C33.775 48 34.4095 48.0783 35.0285 48.2348C35.6475 48.3913 36.2505 48.613 36.8375 48.9C36.975 48.9625 37.0783 49.0563 37.1473 49.1813C37.2163 49.3063 37.2505 49.4375 37.25 49.575V58.6125C37.25 58.9 37.1283 59.1188 36.8848 59.2688C36.6413 59.4188 36.388 59.425 36.125 59.2875C35.6625 59.0375 35.1782 58.8438 34.6722 58.7063C34.1663 58.5688 33.6505 58.5 33.125 58.5C32.5625 58.5 32.0125 58.572 31.475 58.716C30.9375 58.86 30.425 59.0755 29.9375 59.3625C29.8 59.4375 29.6532 59.497 29.4972 59.541C29.3413 59.585 29.1755 59.6068 29 59.6063ZM30.5 51.5813C30.5 51.4688 30.5408 51.3533 30.6222 51.2348C30.7037 51.1163 30.7942 51.038 30.8937 51C31.2562 50.875 31.6188 50.7813 31.9813 50.7188C32.3438 50.6563 32.725 50.625 33.125 50.625C33.375 50.625 33.622 50.6408 33.866 50.6723C34.11 50.7038 34.3505 50.7443 34.5875 50.7938C34.7 50.8188 34.797 50.8813 34.8785 50.9813C34.96 51.0813 35.0005 51.1938 35 51.3188C35 51.5313 34.9313 51.6875 34.7938 51.7875C34.6562 51.8875 34.4812 51.9125 34.2687 51.8625C34.0938 51.825 33.9095 51.797 33.716 51.7785C33.5225 51.76 33.3255 51.7505 33.125 51.75C32.8 51.75 32.4812 51.7813 32.1688 51.8438C31.8563 51.9063 31.5562 51.9875 31.2687 52.0875C31.0437 52.175 30.8595 52.1688 30.716 52.0688C30.5725 51.9688 30.5005 51.8063 30.5 51.5813ZM30.5 55.7063C30.5 55.5938 30.5408 55.4783 30.6222 55.3598C30.7037 55.2413 30.7942 55.163 30.8937 55.125C31.2562 55 31.6188 54.9063 31.9813 54.8438C32.3438 54.7813 32.725 54.75 33.125 54.75C33.375 54.75 33.622 54.7658 33.866 54.7973C34.11 54.8288 34.3505 54.8693 34.5875 54.9188C34.7 54.9438 34.797 55.0063 34.8785 55.1063C34.96 55.2063 35.0005 55.3188 35 55.4438C35 55.6563 34.9313 55.8125 34.7938 55.9125C34.6562 56.0125 34.4812 56.0375 34.2687 55.9875C34.0938 55.95 33.9095 55.922 33.716 55.9035C33.5225 55.885 33.3255 55.8755 33.125 55.875C32.8 55.875 32.4812 55.9033 32.1688 55.9598C31.8563 56.0163 31.5562 56.0943 31.2687 56.1938C31.0437 56.2813 30.8595 56.2783 30.716 56.1848C30.5725 56.0913 30.5005 55.9318 30.5 55.7063ZM30.5 53.6438C30.5 53.5313 30.5408 53.4158 30.6222 53.2973C30.7037 53.1788 30.7942 53.1005 30.8937 53.0625C31.2562 52.9375 31.6188 52.8438 31.9813 52.7813C32.3438 52.7188 32.725 52.6875 33.125 52.6875C33.375 52.6875 33.622 52.7033 33.866 52.7348C34.11 52.7663 34.3505 52.8068 34.5875 52.8563C34.7 52.8813 34.797 52.9438 34.8785 53.0438C34.96 53.1438 35.0005 53.2563 35 53.3813C35 53.5938 34.9313 53.75 34.7938 53.85C34.6562 53.95 34.4812 53.975 34.2687 53.925C34.0938 53.8875 33.9095 53.8595 33.716 53.841C33.5225 53.8225 33.3255 53.813 33.125 53.8125C32.8 53.8125 32.4812 53.8438 32.1688 53.9063C31.8563 53.9688 31.5562 54.05 31.2687 54.15C31.0437 54.2375 30.8595 54.2313 30.716 54.1313C30.5725 54.0313 30.5005 53.8688 30.5 53.6438Z" fill="#1E1E1E"/>
<path d="M30.5355 74.6764L30.9369 75.9103C31.3164 75.5866 31.7576 75.3432 32.2338 75.1948C32.7648 75.022 33.2337 74.9248 33.6576 74.869L33.2706 73.6783C32.788 73.7479 32.3123 73.8587 31.8486 74.0095C31.379 74.1625 30.936 74.3874 30.5355 74.6764ZM31.3698 77.2459L31.7712 78.4798C32.1507 78.1561 32.5919 77.9127 33.0681 77.7643C33.5991 77.5915 34.068 77.4943 34.4919 77.4385L34.1049 76.2478C33.6223 76.3174 33.1466 76.4282 32.6829 76.579C32.2127 76.7306 31.7696 76.9557 31.3698 77.2459ZM32.205 79.8145L32.6064 81.0484C32.9859 80.7247 33.4271 80.4813 33.9033 80.3329C34.4343 80.1601 34.9032 80.0629 35.3271 80.0071L34.9401 78.8164C34.4575 78.886 33.9818 78.9968 33.5181 79.1476C33.0479 79.2992 32.6048 79.5243 32.205 79.8145ZM25.8492 81.7693L26.2362 82.96C26.665 82.7278 27.1146 82.5362 27.579 82.3876C28.0515 82.228 28.5515 82.1658 29.0487 82.2049L28.6473 80.971C28.1538 80.9724 27.6634 81.0505 27.1938 81.2023C26.7301 81.3522 26.2802 81.5419 25.8492 81.7693ZM24.1797 76.6312L24.5667 77.8219C24.9962 77.5911 25.4456 77.3995 25.9095 77.2495C26.382 77.0899 26.882 77.0277 27.3792 77.0668L26.9787 75.832C26.4848 75.8336 25.9942 75.912 25.5243 76.0642C25.0606 76.2141 24.6107 76.4038 24.1797 76.6312ZM25.014 79.2007L25.401 80.3914C25.8298 80.1592 26.2794 79.9676 26.7438 79.819C27.2163 79.6594 27.7163 79.5972 28.2135 79.6363L27.813 78.4015C27.3195 78.4029 26.8291 78.481 26.3595 78.6328C25.8955 78.7829 25.4453 78.973 25.014 79.2007ZM30.9576 71.269C29.7752 71.6468 28.7884 72.4738 28.2099 73.5721C27.0965 73.0241 25.8125 72.9352 24.6342 73.3246C22.3635 74.0626 21.0621 75.6889 21.0621 75.6889L24.7476 87.0172C24.861 87.3655 25.329 87.4465 25.5378 87.1459C25.9869 86.4988 26.8518 85.6537 28.4691 85.1281C30.0153 84.6259 31.1412 85.1767 31.7586 85.6483C32.0034 85.8355 32.3544 85.7023 32.4444 85.4071C32.6712 84.6628 33.2607 83.5711 34.7934 83.0734C36.4125 82.5469 37.6095 82.7233 38.3538 82.9834C38.7003 83.104 39.0288 82.7656 38.9163 82.4173L35.2371 71.0827C35.2371 71.0827 33.2283 70.5319 30.9576 71.269ZM30.8559 83.7304C29.9321 83.4518 28.9447 83.4657 28.029 83.77C26.9031 84.1354 26.1147 84.6241 25.5999 85.0336L22.6794 76.0498C23.0016 75.7276 23.7477 75.112 25.0752 74.6809C26.3253 74.275 27.3504 74.6224 28.0263 75.0211L30.8559 83.7304ZM37.0605 81.3103C36.4026 81.2815 35.4774 81.3499 34.3515 81.7162C33.4319 82.0081 32.625 82.577 32.0412 83.3452L29.2116 74.6359C29.523 73.9159 30.1476 73.0321 31.3986 72.6262C32.7252 72.1951 33.6909 72.2545 34.1409 72.3256L37.0605 81.3103Z" fill="#1E1E1E"/>
</svg>
