<svg width="24" height="24" viewBox="0 0 24 24" fill="none" xmlns="http://www.w3.org/2000/svg">
<path fill-rule="evenodd" clip-rule="evenodd" d="M4.21591 3.77273C3.97115 3.77273 3.77273 3.97115 3.77273 4.21591V19.2841C3.77273 19.5289 3.97115 19.7273 4.21591 19.7273H19.2841C19.5289 19.7273 19.7273 19.5289 19.7273 19.2841V4.21591C19.7273 3.97115 19.5289 3.77273 19.2841 3.77273H4.21591ZM2 4.21591C2 2.9921 2.9921 2 4.21591 2H19.2841C20.5079 2 21.5 2.9921 21.5 4.21591V19.2841C21.5 20.5079 20.5079 21.5 19.2841 21.5H4.21591C2.9921 21.5 2 20.5079 2 19.2841V4.21591Z" fill="#A8A29E"/>
</svg>
