<svg width="50" height="50" viewBox="0 0 50 50" fill="none" xmlns="http://www.w3.org/2000/svg">
<path d="M25 4.6875C13.7998 4.6875 4.6875 13.7998 4.6875 25C4.6875 36.2002 13.7998 45.3125 25 45.3125C36.2002 45.3125 45.3125 36.2002 45.3125 25C45.3125 13.7998 36.2002 4.6875 25 4.6875ZM35.5713 18.1924L22.4463 33.8174C22.3023 33.9889 22.1232 34.1274 21.921 34.2236C21.7188 34.3198 21.4983 34.3714 21.2744 34.375H21.248C21.029 34.3749 20.8125 34.3288 20.6125 34.2396C20.4124 34.1505 20.2334 34.0203 20.0869 33.8574L14.4619 27.6074C14.3191 27.4559 14.2079 27.2774 14.1351 27.0823C14.0622 26.8872 14.0291 26.6795 14.0376 26.4715C14.0461 26.2634 14.0962 26.0591 14.1848 25.8707C14.2734 25.6822 14.3988 25.5134 14.5536 25.3741C14.7084 25.2348 14.8895 25.1278 15.0862 25.0595C15.2829 24.9912 15.4913 24.9629 15.6991 24.9763C15.9069 24.9896 16.1099 25.0444 16.2963 25.1374C16.4826 25.2303 16.6485 25.3596 16.7842 25.5176L21.207 30.4316L33.1787 16.1826C33.4472 15.8721 33.8272 15.6798 34.2364 15.6472C34.6456 15.6146 35.0512 15.7443 35.3655 16.0084C35.6798 16.2724 35.8776 16.6495 35.9161 17.0582C35.9546 17.4669 35.8307 17.8743 35.5713 18.1924Z" fill="#44392B"/>
</svg>
