<svg width="160" height="64" viewBox="0 0 160 64" fill="none" xmlns="http://www.w3.org/2000/svg">
<rect x="0.5" y="0.5" width="159" height="63" rx="4.5" stroke="#7B61FF" stroke-dasharray="10 5"/>
<path d="M38.75 22.25H25.25C24.4546 22.2509 23.6921 22.5672 23.1296 23.1296C22.5672 23.6921 22.2509 24.4546 22.25 25.25V38.75C22.2509 39.5454 22.5672 40.3079 23.1296 40.8704C23.6921 41.4328 24.4546 41.7491 25.25 41.75H38.75C39.5454 41.7491 40.3079 41.4328 40.8704 40.8704C41.4328 40.3079 41.7491 39.5454 41.75 38.75V25.25C41.7491 24.4546 41.4328 23.6921 40.8704 23.1296C40.3079 22.5672 39.5454 22.2509 38.75 22.25ZM37.0742 28.7323L30.7742 36.2323C30.7051 36.3147 30.6191 36.3812 30.5221 36.4273C30.425 36.4735 30.3192 36.4983 30.2117 36.5H30.1991C30.0939 36.5 29.99 36.4778 29.894 36.435C29.798 36.3922 29.712 36.3297 29.6417 36.2516L26.9417 33.2516C26.8731 33.1788 26.8198 33.0931 26.7848 32.9995C26.7499 32.9059 26.734 32.8062 26.738 32.7063C26.7421 32.6064 26.7662 32.5084 26.8087 32.4179C26.8512 32.3275 26.9114 32.2464 26.9857 32.1796C27.06 32.1127 27.1469 32.0614 27.2414 32.0286C27.3358 31.9958 27.4358 31.9822 27.5356 31.9886C27.6353 31.995 27.7328 32.0213 27.8222 32.0659C27.9117 32.1106 27.9913 32.1726 28.0564 32.2484L30.1794 34.6072L35.9258 27.7677C36.0547 27.6186 36.237 27.5263 36.4335 27.5107C36.6299 27.495 36.8246 27.5573 36.9754 27.684C37.1263 27.8107 37.2212 27.9918 37.2397 28.1879C37.2582 28.3841 37.1988 28.5797 37.0742 28.7323Z" fill="black"/>
<path fill-rule="evenodd" clip-rule="evenodd" d="M84.9824 27.6757C85.2996 27.9421 85.3407 28.4152 85.0743 28.7324L78.7743 36.2324C78.6347 36.3986 78.4299 36.4962 78.2128 36.4999C77.9958 36.5036 77.7877 36.4131 77.6425 36.2517L74.9425 33.2517C74.6654 32.9438 74.6904 32.4696 74.9983 32.1925C75.3062 31.9154 75.7804 31.9404 76.0575 32.2483L78.1805 34.6072L83.9257 27.7676C84.1921 27.4504 84.6652 27.4093 84.9824 27.6757Z" fill="black"/>
<path fill-rule="evenodd" clip-rule="evenodd" d="M73.25 23.75C72.4216 23.75 71.75 24.4216 71.75 25.25V38.75C71.75 39.5784 72.4216 40.25 73.25 40.25H86.75C87.5784 40.25 88.25 39.5784 88.25 38.75V25.25C88.25 24.4216 87.5784 23.75 86.75 23.75H73.25ZM70.25 25.25C70.25 23.5931 71.5931 22.25 73.25 22.25H86.75C88.4069 22.25 89.75 23.5931 89.75 25.25V38.75C89.75 40.4069 88.4069 41.75 86.75 41.75H73.25C71.5931 41.75 70.25 40.4069 70.25 38.75V25.25Z" fill="black"/>
<path d="M118.25 22.25V41.75H137.75V22.25H118.25ZM126.219 36.8928L122.441 32.6942L123.556 31.6906L126.181 34.6072L132.406 27.1934L133.557 28.1562L126.219 36.8928Z" fill="black"/>
</svg>
