<svg width="160" height="64" viewBox="0 0 160 64" fill="none" xmlns="http://www.w3.org/2000/svg">
<rect x="0.5" y="0.5" width="159" height="63" rx="4.5" stroke="#7B61FF" stroke-dasharray="10 5"/>
<path d="M32 22.25C26.6239 22.25 22.25 26.6239 22.25 32C22.25 37.3761 26.6239 41.75 32 41.75C37.3761 41.75 41.75 37.3761 41.75 32C41.75 26.6239 37.3761 22.25 32 22.25ZM35.5302 34.4698C35.6027 34.5388 35.6608 34.6216 35.7008 34.7133C35.7409 34.805 35.7622 34.9039 35.7635 35.004C35.7648 35.1041 35.746 35.2034 35.7083 35.2961C35.6706 35.3889 35.6147 35.4731 35.5439 35.5439C35.4731 35.6147 35.3889 35.6706 35.2961 35.7083C35.2034 35.746 35.1041 35.7648 35.004 35.7635C34.9039 35.7622 34.805 35.7409 34.7133 35.7008C34.6216 35.6608 34.5388 35.6027 34.4698 35.5302L32 33.0608L29.5302 35.5302C29.3884 35.6649 29.1995 35.7389 29.004 35.7364C28.8084 35.7339 28.6215 35.6551 28.4832 35.5168C28.3449 35.3785 28.2661 35.1916 28.2636 34.996C28.2611 34.8005 28.3351 34.6116 28.4698 34.4698L30.9392 32L28.4698 29.5302C28.3351 29.3884 28.2611 29.1995 28.2636 29.004C28.2661 28.8084 28.3449 28.6215 28.4832 28.4832C28.6215 28.3449 28.8084 28.2661 29.004 28.2636C29.1995 28.2611 29.3884 28.3351 29.5302 28.4698L32 30.9392L34.4698 28.4698C34.6116 28.3351 34.8005 28.2611 34.996 28.2636C35.1916 28.2661 35.3785 28.3449 35.5168 28.4832C35.6551 28.6215 35.7339 28.8084 35.7364 29.004C35.7389 29.1995 35.6649 29.3884 35.5302 29.5302L33.0608 32L35.5302 34.4698Z" fill="black"/>
<path fill-rule="evenodd" clip-rule="evenodd" d="M70.25 32C70.25 26.617 74.617 22.25 80 22.25C85.383 22.25 89.75 26.617 89.75 32C89.75 37.383 85.383 41.75 80 41.75C74.617 41.75 70.25 37.383 70.25 32ZM80 23.75C75.4455 23.75 71.75 27.4455 71.75 32C71.75 36.5545 75.4455 40.25 80 40.25C84.5545 40.25 88.25 36.5545 88.25 32C88.25 27.4455 84.5545 23.75 80 23.75ZM76.4697 28.4697C76.7626 28.1768 77.2374 28.1768 77.5303 28.4697L80 30.9393L82.4697 28.4697C82.7626 28.1768 83.2374 28.1768 83.5303 28.4697C83.8232 28.7626 83.8232 29.2374 83.5303 29.5303L81.0607 32L83.5303 34.4697C83.8232 34.7626 83.8232 35.2374 83.5303 35.5303C83.2374 35.8232 82.7626 35.8232 82.4697 35.5303L80 33.0607L77.5303 35.5303C77.2374 35.8232 76.7626 35.8232 76.4697 35.5303C76.1768 35.2374 76.1768 34.7626 76.4697 34.4697L78.9393 32L76.4697 29.5303C76.1768 29.2374 76.1768 28.7626 76.4697 28.4697Z" fill="black"/>
<path d="M128 22.25C122.624 22.25 118.25 26.6239 118.25 32C118.25 37.3761 122.624 41.75 128 41.75C133.376 41.75 137.75 37.3761 137.75 32C137.75 26.6239 133.376 22.25 128 22.25ZM132.061 35L131 36.0608L128 33.0608L125 36.0608L123.939 35L126.939 32L123.939 29L125 27.9392L128 30.9392L131 27.9392L132.061 29L129.061 32L132.061 35Z" fill="black"/>
</svg>
