<svg width="45" height="41" viewBox="0 0 45 41" fill="none" xmlns="http://www.w3.org/2000/svg">
<path d="M36.625 12.625H2.25C1.8356 12.625 1.43817 12.7896 1.14515 13.0826C0.85212 13.3757 0.6875 13.7731 0.6875 14.1875V23.5625C0.69217 26.2226 1.26106 28.8515 2.3566 31.2756C3.45214 33.6996 5.04942 35.8637 7.04297 37.625H2.25C1.8356 37.625 1.43817 37.7896 1.14515 38.0826C0.85212 38.3757 0.6875 38.7731 0.6875 39.1875C0.6875 39.6019 0.85212 39.9993 1.14515 40.2924C1.43817 40.5854 1.8356 40.75 2.25 40.75H36.625C37.0394 40.75 37.4368 40.5854 37.7299 40.2924C38.0229 39.9993 38.1875 39.6019 38.1875 39.1875C38.1875 38.7731 38.0229 38.3757 37.7299 38.0826C37.4368 37.7896 37.0394 37.625 36.625 37.625H31.832C34.225 35.504 36.0396 32.8097 37.1055 29.7949C39.0901 29.6726 40.9533 28.7983 42.3157 27.3499C43.678 25.9016 44.4368 23.9883 44.4375 22V20.4375C44.4375 18.3655 43.6144 16.3784 42.1493 14.9132C40.6841 13.4481 38.697 12.625 36.625 12.625ZM41.3125 22C41.3118 23.0109 40.9843 23.9945 40.3789 24.8041C39.7735 25.6136 38.9226 26.2058 37.9531 26.4922C38.1078 25.5233 38.1861 24.5437 38.1875 23.5625V16.0195C39.1012 16.3426 39.8923 16.9408 40.4519 17.732C41.0115 18.5232 41.3122 19.4684 41.3125 20.4375V22ZM17.875 7.9375V1.6875C17.875 1.2731 18.0396 0.875671 18.3326 0.582646C18.6257 0.28962 19.0231 0.125 19.4375 0.125C19.8519 0.125 20.2493 0.28962 20.5424 0.582646C20.8354 0.875671 21 1.2731 21 1.6875V7.9375C21 8.3519 20.8354 8.74933 20.5424 9.04235C20.2493 9.33538 19.8519 9.5 19.4375 9.5C19.0231 9.5 18.6257 9.33538 18.3326 9.04235C18.0396 8.74933 17.875 8.3519 17.875 7.9375ZM24.125 7.9375V1.6875C24.125 1.2731 24.2896 0.875671 24.5826 0.582646C24.8757 0.28962 25.2731 0.125 25.6875 0.125C26.1019 0.125 26.4993 0.28962 26.7924 0.582646C27.0854 0.875671 27.25 1.2731 27.25 1.6875V7.9375C27.25 8.3519 27.0854 8.74933 26.7924 9.04235C26.4993 9.33538 26.1019 9.5 25.6875 9.5C25.2731 9.5 24.8757 9.33538 24.5826 9.04235C24.2896 8.74933 24.125 8.3519 24.125 7.9375ZM11.625 7.9375V1.6875C11.625 1.2731 11.7896 0.875671 12.0826 0.582646C12.3757 0.28962 12.7731 0.125 13.1875 0.125C13.6019 0.125 13.9993 0.28962 14.2924 0.582646C14.5854 0.875671 14.75 1.2731 14.75 1.6875V7.9375C14.75 8.3519 14.5854 8.74933 14.2924 9.04235C13.9993 9.33538 13.6019 9.5 13.1875 9.5C12.7731 9.5 12.3757 9.33538 12.0826 9.04235C11.7896 8.74933 11.625 8.3519 11.625 7.9375Z" fill="#1E1E1E"/>
</svg>
