<svg width="259" height="200" viewBox="0 0 259 200" fill="none" xmlns="http://www.w3.org/2000/svg">
<circle cx="20" cy="21" r="20" fill="url(#paint0_linear_47_549)" fill-opacity="0.3"/>
<rect x="59" width="200" height="10" rx="5" fill="url(#paint1_linear_47_549)" fill-opacity="0.3"/>
<rect x="59" y="16" width="150" height="10" rx="5" fill="url(#paint2_linear_47_549)" fill-opacity="0.3"/>
<rect x="59" y="32" width="100" height="10" rx="5" fill="url(#paint3_linear_47_549)" fill-opacity="0.3"/>
<circle cx="20" cy="100" r="20" fill="url(#paint4_linear_47_549)" fill-opacity="0.3"/>
<rect x="59" y="79" width="200" height="10" rx="5" fill="url(#paint5_linear_47_549)" fill-opacity="0.3"/>
<rect x="59" y="95" width="150" height="10" rx="5" fill="url(#paint6_linear_47_549)" fill-opacity="0.3"/>
<rect x="59" y="111" width="100" height="10" rx="5" fill="url(#paint7_linear_47_549)" fill-opacity="0.3"/>
<circle cx="20" cy="179" r="20" fill="url(#paint8_linear_47_549)" fill-opacity="0.3"/>
<rect x="59" y="158" width="200" height="10" rx="5" fill="url(#paint9_linear_47_549)" fill-opacity="0.3"/>
<rect x="59" y="174" width="150" height="10" rx="5" fill="url(#paint10_linear_47_549)" fill-opacity="0.3"/>
<rect x="59" y="190" width="100" height="10" rx="5" fill="url(#paint11_linear_47_549)" fill-opacity="0.3"/>
<defs>
<linearGradient id="paint0_linear_47_549" x1="0" y1="21" x2="40" y2="21" gradientUnits="userSpaceOnUse">
<stop stop-color="#957115"/>
<stop offset="1" stop-color="#FBBF24" stop-opacity="0.3"/>
</linearGradient>
<linearGradient id="paint1_linear_47_549" x1="59" y1="5" x2="259" y2="5" gradientUnits="userSpaceOnUse">
<stop stop-color="#957115"/>
<stop offset="1" stop-color="#FBBF24" stop-opacity="0.3"/>
</linearGradient>
<linearGradient id="paint2_linear_47_549" x1="59" y1="21" x2="209" y2="21" gradientUnits="userSpaceOnUse">
<stop stop-color="#957115"/>
<stop offset="1" stop-color="#FBBF24" stop-opacity="0.3"/>
</linearGradient>
<linearGradient id="paint3_linear_47_549" x1="59" y1="37" x2="159" y2="37" gradientUnits="userSpaceOnUse">
<stop stop-color="#957115"/>
<stop offset="1" stop-color="#FBBF24" stop-opacity="0.3"/>
</linearGradient>
<linearGradient id="paint4_linear_47_549" x1="0" y1="100" x2="40" y2="100" gradientUnits="userSpaceOnUse">
<stop offset="0.230769" stop-color="#FBBF24" stop-opacity="0.3"/>
<stop offset="0.9999" stop-color="#957115"/>
</linearGradient>
<linearGradient id="paint5_linear_47_549" x1="59" y1="84" x2="259" y2="84" gradientUnits="userSpaceOnUse">
<stop offset="0.3" stop-color="#FBBF24" stop-opacity="0.3"/>
<stop offset="1" stop-color="#957115"/>
</linearGradient>
<linearGradient id="paint6_linear_47_549" x1="59" y1="100" x2="209" y2="100" gradientUnits="userSpaceOnUse">
<stop offset="0.3" stop-color="#FBBF24" stop-opacity="0.3"/>
<stop offset="1" stop-color="#957115"/>
</linearGradient>
<linearGradient id="paint7_linear_47_549" x1="59" y1="116" x2="159" y2="116" gradientUnits="userSpaceOnUse">
<stop offset="0.3" stop-color="#FBBF24" stop-opacity="0.3"/>
<stop offset="1" stop-color="#957115"/>
</linearGradient>
<linearGradient id="paint8_linear_47_549" x1="0" y1="179" x2="40" y2="179" gradientUnits="userSpaceOnUse">
<stop stop-color="#957115"/>
<stop offset="1" stop-color="#FBBF24" stop-opacity="0.3"/>
</linearGradient>
<linearGradient id="paint9_linear_47_549" x1="59" y1="163" x2="259" y2="163" gradientUnits="userSpaceOnUse">
<stop stop-color="#957115"/>
<stop offset="1" stop-color="#FBBF24" stop-opacity="0.3"/>
</linearGradient>
<linearGradient id="paint10_linear_47_549" x1="59" y1="179" x2="209" y2="179" gradientUnits="userSpaceOnUse">
<stop stop-color="#957115"/>
<stop offset="1" stop-color="#FBBF24" stop-opacity="0.3"/>
</linearGradient>
<linearGradient id="paint11_linear_47_549" x1="59" y1="195" x2="159" y2="195" gradientUnits="userSpaceOnUse">
<stop stop-color="#957115"/>
<stop offset="1" stop-color="#FBBF24" stop-opacity="0.3"/>
</linearGradient>
</defs>
</svg>
