<svg width="18" height="24" viewBox="0 0 18 24" fill="none" xmlns="http://www.w3.org/2000/svg">
<path d="M14.835 3.19172C13.2698 1.61719 11.1975 0.75 9 0.75C4.45313 0.75 0.750001 4.45312 0.750001 9V18.683C0.749167 19.8839 1.22058 21.037 2.0625 21.8934C2.47542 22.3221 2.97049 22.6632 3.51814 22.8962C4.0658 23.1293 4.65481 23.2496 5.25 23.25C6.18422 23.25 7.17469 22.8895 8.19375 22.178C8.62919 21.875 9.03533 21.5319 9.40688 21.1533C12.3455 18.2887 17.25 13.5028 17.25 9C17.25 6.82078 16.3927 4.75828 14.835 3.19172ZM14.25 9.375H12.75V8.625C12.75 6.76406 11.0677 5.25 9 5.25C6.93235 5.25 5.25 6.76406 5.25 8.625V10.0505C6.53906 9.68297 8.05734 9.74016 8.26219 9.75C8.67385 9.75375 9.0766 9.87037 9.42657 10.0872C9.77654 10.304 10.0603 10.6126 10.247 10.9795C10.4337 11.3465 10.5162 11.7576 10.4854 12.1681C10.4546 12.5786 10.3118 12.9728 10.0725 13.3078C10.0584 13.327 10.0439 13.3458 10.028 13.3641C9.25219 14.2547 8.34047 15.4964 8.22516 15.9422L8.03438 16.6673L6.58406 16.2858L6.77485 15.5606C7.03313 14.5791 8.50594 12.8325 8.86828 12.413C8.94289 12.2999 8.98546 12.1687 8.99148 12.0333C8.99749 11.8979 8.96673 11.7635 8.90245 11.6442C8.83817 11.5249 8.74278 11.4253 8.62642 11.3559C8.51005 11.2865 8.37706 11.2499 8.24156 11.25H8.20031C7.70016 11.2228 6.20063 11.2383 5.28844 11.625L5.25 11.6414V15H3.75V8.625C3.75 5.93672 6.105 3.75 9 3.75C11.895 3.75 14.25 5.93672 14.25 8.625V9.375Z" fill="#1E1E1E"/>
</svg>
