<svg width="350" height="60" viewBox="0 0 350 60" fill="none" xmlns="http://www.w3.org/2000/svg">
<rect width="350" height="60" rx="8" fill="#44392B"/>
<path d="M123.872 27.836C124.075 27.1213 124.224 26.4493 124.32 25.82C124.416 25.18 124.464 24.5827 124.464 24.028H116.352V22.844H125.296C125.68 22.844 125.872 23.0413 125.872 23.436V24.108C125.872 25.0787 125.675 26.204 125.28 27.484C125.237 27.6013 125.168 27.692 125.072 27.756C124.976 27.8093 124.859 27.836 124.72 27.836H123.872ZM121.168 26.268V28.908H127.392C127.584 28.908 127.68 29.0307 127.68 29.276C127.68 29.8093 127.504 30.076 127.152 30.076H114.384V28.908H119.76V26.268H121.168ZM121.04 31.356C121.765 31.356 122.421 31.4307 123.008 31.58C123.605 31.7293 124.107 31.9267 124.512 32.172C124.917 32.428 125.232 32.7267 125.456 33.068C125.68 33.4093 125.792 33.772 125.792 34.156C125.792 34.5613 125.685 34.94 125.472 35.292C125.259 35.6333 124.955 35.9373 124.56 36.204C124.155 36.4707 123.653 36.6787 123.056 36.828C122.469 36.9773 121.797 37.052 121.04 37.052C120.304 37.052 119.637 36.9773 119.04 36.828C118.453 36.6787 117.957 36.476 117.552 36.22C117.147 35.9533 116.832 35.6493 116.608 35.308C116.384 34.956 116.272 34.588 116.272 34.204C116.272 33.8093 116.384 33.4413 116.608 33.1C116.832 32.748 117.147 32.444 117.552 32.188C117.957 31.932 118.453 31.7293 119.04 31.58C119.637 31.4307 120.304 31.356 121.04 31.356ZM121.024 35.9C121.493 35.9 121.931 35.852 122.336 35.756C122.752 35.6707 123.115 35.5533 123.424 35.404C123.723 35.244 123.957 35.0627 124.128 34.86C124.309 34.6573 124.4 34.4387 124.4 34.204C124.4 33.9693 124.309 33.7507 124.128 33.548C123.957 33.3453 123.723 33.164 123.424 33.004C123.115 32.8547 122.752 32.7373 122.336 32.652C121.931 32.5667 121.493 32.524 121.024 32.524C120.533 32.524 120.08 32.5667 119.664 32.652C119.248 32.7373 118.891 32.8547 118.592 33.004C118.293 33.164 118.064 33.3453 117.904 33.548C117.744 33.7507 117.664 33.9693 117.664 34.204C117.664 34.4387 117.744 34.6573 117.904 34.86C118.064 35.0627 118.293 35.244 118.592 35.404C118.891 35.5533 119.248 35.6707 119.664 35.756C120.08 35.852 120.533 35.9 121.024 35.9ZM136.07 35.452C136.07 36.4227 135.793 36.908 135.238 36.908H134.998C134.742 36.908 134.614 36.7853 134.614 36.54V32.204H128.694V30.988H141.702C141.894 30.988 141.99 31.1213 141.99 31.388C141.99 31.932 141.814 32.204 141.462 32.204H136.07V35.452ZM132.006 23.084V24.972H138.662V23.084H140.07V26.668C140.07 26.9453 140.059 27.196 140.038 27.42C140.027 27.644 139.995 27.8467 139.942 28.028C139.921 28.3907 139.862 28.6627 139.766 28.844C139.67 29.0147 139.547 29.132 139.398 29.196C139.238 29.26 139.067 29.292 138.886 29.292C138.705 29.2813 138.523 29.276 138.342 29.276H131.782C131.526 29.276 131.318 29.2387 131.158 29.164C131.009 29.0787 130.891 28.956 130.806 28.796C130.721 28.636 130.667 28.444 130.646 28.22C130.625 27.9853 130.614 27.7187 130.614 27.42V23.084H132.006ZM138.358 28.108C138.561 28.108 138.662 27.8947 138.662 27.468V26.14H132.006V27.724C132.006 27.98 132.134 28.108 132.39 28.108H138.358ZM147.564 26.62C148.087 26.62 148.556 26.7107 148.972 26.892C149.388 27.0627 149.74 27.3027 150.028 27.612C150.306 27.9213 150.519 28.284 150.668 28.7C150.828 29.116 150.908 29.5587 150.908 30.028C150.908 30.4973 150.828 30.94 150.668 31.356C150.519 31.772 150.306 32.1347 150.028 32.444C149.74 32.7533 149.388 32.9987 148.972 33.18C148.556 33.3613 148.087 33.452 147.564 33.452C147.042 33.452 146.572 33.3613 146.156 33.18C145.751 32.9987 145.404 32.7533 145.116 32.444C144.818 32.1347 144.588 31.772 144.428 31.356C144.279 30.94 144.204 30.4973 144.204 30.028C144.204 29.5587 144.279 29.116 144.428 28.7C144.588 28.284 144.818 27.9213 145.116 27.612C145.404 27.3027 145.751 27.0627 146.156 26.892C146.572 26.7107 147.042 26.62 147.564 26.62ZM147.548 32.236C147.815 32.236 148.066 32.1773 148.3 32.06C148.546 31.9427 148.759 31.7773 148.94 31.564C149.122 31.3613 149.26 31.1267 149.356 30.86C149.452 30.5933 149.5 30.3053 149.5 29.996C149.5 29.6973 149.452 29.4147 149.356 29.148C149.26 28.8707 149.122 28.6307 148.94 28.428C148.759 28.236 148.546 28.0867 148.3 27.98C148.066 27.8627 147.815 27.804 147.548 27.804C147.25 27.804 146.983 27.8627 146.748 27.98C146.514 28.0867 146.311 28.236 146.14 28.428C145.97 28.6307 145.836 28.8707 145.74 29.148C145.644 29.4147 145.596 29.6973 145.596 29.996C145.596 30.3053 145.644 30.5933 145.74 30.86C145.836 31.1267 145.97 31.3613 146.14 31.564C146.311 31.7773 146.514 31.9427 146.748 32.06C146.983 32.1773 147.25 32.236 147.548 32.236ZM143.676 24.46H146.86V22.764H148.268V24.46H151.244C151.415 24.46 151.5 24.588 151.5 24.844C151.5 25.3773 151.335 25.644 151.004 25.644H143.676V24.46ZM154.78 35.404C154.78 36.3747 154.508 36.86 153.964 36.86H153.74C153.495 36.86 153.372 36.7373 153.372 36.492V22.684H154.78V27.196H156.796C156.978 27.196 157.068 27.324 157.068 27.58C157.068 28.1453 156.898 28.428 156.556 28.428H154.78V35.404ZM158.482 27.58H163.074C163.224 27.58 163.298 27.4627 163.298 27.228V24.572H158.482V23.404H164.098C164.493 23.404 164.69 23.596 164.69 23.98V26.908C164.69 28.1347 164.386 28.748 163.778 28.748H159.89V31.564C159.89 31.7453 159.981 31.836 160.162 31.836H165.89C166.061 31.836 166.146 31.9533 166.146 32.188C166.146 32.732 165.981 33.004 165.65 33.004H159.666C158.877 33.004 158.482 32.6093 158.482 31.82V27.58ZM165.602 27.068H168.05V22.684H169.458V35.404C169.458 36.3747 169.186 36.86 168.642 36.86H168.418C168.173 36.86 168.05 36.7373 168.05 36.492V28.268H165.602V27.068ZM188.429 35.404C188.429 36.3747 188.152 36.86 187.597 36.86H187.389C187.133 36.86 187.005 36.7373 187.005 36.492V22.684H188.429V27.196H190.445C190.616 27.196 190.701 27.324 190.701 27.58C190.701 28.1453 190.536 28.428 190.205 28.428H188.429V35.404ZM184.381 24.604C184.381 25.6067 184.243 26.5187 183.965 27.34C183.699 28.1613 183.309 28.9027 182.797 29.564C182.285 30.2253 181.651 30.812 180.893 31.324C180.147 31.8253 179.299 32.2573 178.349 32.62C178.275 32.652 178.216 32.668 178.173 32.668C178.056 32.668 177.928 32.5933 177.789 32.444C177.661 32.2947 177.597 32.1133 177.597 31.9C177.597 31.74 177.683 31.6173 177.853 31.532C178.611 31.2333 179.299 30.8707 179.917 30.444C180.547 30.0173 181.085 29.5267 181.533 28.972C181.981 28.428 182.328 27.8253 182.573 27.164C182.819 26.492 182.941 25.772 182.941 25.004V24.588H178.045V23.404H183.789C184.184 23.404 184.381 23.6013 184.381 23.996V24.604ZM203.027 35.404C203.027 36.3747 202.755 36.86 202.211 36.86H201.987C201.731 36.86 201.603 36.7373 201.603 36.492V22.684H203.027V35.404ZM198.739 24.604C198.739 25.6067 198.601 26.5187 198.323 27.34C198.057 28.1613 197.667 28.9027 197.155 29.564C196.643 30.2253 196.009 30.812 195.251 31.324C194.505 31.8253 193.657 32.2573 192.707 32.62C192.633 32.652 192.574 32.668 192.531 32.668C192.414 32.668 192.291 32.5933 192.163 32.444C192.035 32.2947 191.971 32.1133 191.971 31.9C191.971 31.74 192.051 31.6173 192.211 31.532C192.969 31.2333 193.657 30.8707 194.275 30.444C194.905 30.0173 195.443 29.5267 195.891 28.972C196.339 28.428 196.686 27.8253 196.931 27.164C197.177 26.492 197.299 25.772 197.299 25.004V24.588H192.403V23.404H198.147C198.542 23.404 198.739 23.6013 198.739 23.996V24.604Z" fill="#F8F2E2"/>
<path d="M227.86 36.74C227.06 36.74 226.587 36.6667 226.44 36.52C226.373 36.4533 226.18 36.3267 225.86 36.14C225.553 35.9533 225.107 35.7133 224.52 35.42C224.387 35.3533 224.147 35.2267 223.8 35.04C223.453 34.84 223.047 34.6267 222.58 34.4C222.513 34.36 222.4 34.3 222.24 34.22C222.093 34.14 221.94 34.06 221.78 33.98C221.62 33.8867 221.5 33.82 221.42 33.78L221.06 33.6C221.033 33.5867 220.993 33.5667 220.94 33.54C220.887 33.5133 220.827 33.48 220.76 33.44L220.2 33.16C220.107 33.1067 220 33.0467 219.88 32.98C219.773 32.9133 219.66 32.8533 219.54 32.8L216.9 31.4C216.793 31.0933 216.7 30.8133 216.62 30.56C216.54 30.3067 216.487 30.08 216.46 29.88C216.433 29.68 216.38 29.4333 216.3 29.14C216.22 28.8467 216.127 28.5067 216.02 28.12C216.18 27.7733 216.327 27.4733 216.46 27.22C216.593 26.9533 216.713 26.7467 216.82 26.6C216.9 26.4933 216.987 26.3733 217.08 26.24C217.173 26.0933 217.3 25.8933 217.46 25.64C217.527 25.5467 217.587 25.4467 217.64 25.34C217.707 25.22 217.767 25.1067 217.82 25C217.927 24.9733 218.067 24.9333 218.24 24.88C218.413 24.8267 218.547 24.7933 218.64 24.78C218.867 24.74 219.127 24.6733 219.42 24.58C219.713 24.4867 219.947 24.4133 220.12 24.36C220.307 24.2933 220.54 24.2267 220.82 24.16L222.28 25.06C222.6 25.26 222.907 25.4333 223.2 25.58C223.493 25.7267 223.773 25.8867 224.04 26.06L224.6 26.42C225 26.6733 225.307 26.8733 225.52 27.02C225.747 27.1667 225.887 27.2667 225.94 27.32C225.993 27.3733 226.1 27.4467 226.26 27.54C226.42 27.6333 226.633 27.76 226.9 27.92C227.3 28.16 227.7 28.4 228.1 28.64C228.513 28.8667 228.92 29.1 229.32 29.34C229.573 29.5 229.78 29.64 229.94 29.76C230.1 29.8933 230.293 30.0867 230.52 30.34C230.747 30.58 230.94 30.8333 231.1 31.1L232.2 32.94C232.773 33.9 233.207 34.6333 233.5 35.14C233.807 35.6467 233.967 35.9333 233.98 36C234.02 36.12 234.04 36.2133 234.04 36.28C234.04 36.4267 233.973 36.5267 233.84 36.58C233.72 36.6333 233.567 36.66 233.38 36.66C233.153 36.66 232.92 36.6667 232.68 36.68C232.44 36.68 232.207 36.68 231.98 36.68L228.42 36.72C228.327 36.72 228.233 36.7267 228.14 36.74C228.047 36.74 227.953 36.74 227.86 36.74ZM217.5 30.68C217.527 30.68 217.553 30.68 217.58 30.68C217.607 30.6667 217.633 30.66 217.66 30.66L218.06 30.6C218.22 30.6 218.473 30.5133 218.82 30.34C218.98 30.26 219.187 30.1733 219.44 30.08C219.693 29.9733 219.86 29.92 219.94 29.92C219.967 29.8933 220.033 29.7867 220.14 29.6C220.26 29.4 220.327 29.2733 220.34 29.22L220.44 28.96C220.493 28.8133 220.553 28.6933 220.62 28.6C220.7 28.4933 220.767 28.4067 220.82 28.34C220.94 28.1933 221.04 28.0533 221.12 27.92C221.16 27.8533 221.207 27.78 221.26 27.7C221.327 27.6067 221.407 27.5067 221.5 27.4C221.487 27.3467 221.453 27.2467 221.4 27.1C221.347 26.9533 221.267 26.76 221.16 26.52C220.96 26.04 220.833 25.72 220.78 25.56L220.58 24.92L220.04 25.12C219.907 25.1733 219.773 25.2267 219.64 25.28C219.507 25.32 219.407 25.3467 219.34 25.36L218.34 25.64C218.313 25.68 218.247 25.78 218.14 25.94C218.047 26.0867 217.987 26.18 217.96 26.22L217.38 27.14C217.287 27.3 217.18 27.48 217.06 27.68C216.94 27.8667 216.82 28.0533 216.7 28.24L216.98 29.18C217.033 29.3533 217.08 29.4867 217.12 29.58C217.16 29.66 217.193 29.7467 217.22 29.84L217.5 30.68ZM229.58 31.6V30.24L228.22 29.36C228.127 29.2933 228.013 29.2267 227.88 29.16C227.747 29.08 227.607 29.0067 227.46 28.94L227.06 28.74C227.007 28.7133 226.953 28.6867 226.9 28.66C226.847 28.6333 226.807 28.6133 226.78 28.6L225.24 27.62C225.147 27.5533 225.06 27.5 224.98 27.46C224.913 27.42 224.86 27.3867 224.82 27.36L221.38 25.2L221.56 25.66C221.6 25.7667 221.64 25.88 221.68 26C221.72 26.1067 221.74 26.1867 221.74 26.24C221.74 26.2933 221.76 26.4 221.8 26.56C221.853 26.72 221.913 26.88 221.98 27.04C222.047 27.1867 222.093 27.3 222.12 27.38C222.187 27.4733 222.347 27.5933 222.6 27.74C222.747 27.8067 222.867 27.8733 222.96 27.94C223.053 28.0067 223.127 28.0733 223.18 28.14C223.3 28.26 223.44 28.3733 223.6 28.48L223.84 28.64C223.92 28.6933 224 28.74 224.08 28.78C224.173 28.82 224.247 28.8533 224.3 28.88C224.54 28.96 224.693 29.02 224.76 29.06C224.84 29.1 224.98 29.18 225.18 29.3C225.26 29.3533 225.347 29.4067 225.44 29.46C225.533 29.5 225.633 29.54 225.74 29.58C225.913 29.6333 226.073 29.7067 226.22 29.8C226.38 29.8933 226.633 30.0533 226.98 30.28L228.26 30.88C228.393 30.9333 228.513 30.9933 228.62 31.06C228.727 31.1133 228.813 31.16 228.88 31.2L229.58 31.6ZM218.7 29.08C218.5 29.08 218.333 28.9867 218.2 28.8C218.08 28.6 218.02 28.3733 218.02 28.12C218.02 27.8267 218.1 27.5467 218.26 27.28C218.42 27 218.607 26.7733 218.82 26.6C219.047 26.4133 219.26 26.32 219.46 26.32C219.7 26.32 219.88 26.4 220 26.56C220.12 26.72 220.18 26.9333 220.18 27.2C220.18 27.32 220.133 27.4867 220.04 27.7C219.947 27.9 219.827 28.1067 219.68 28.32C219.533 28.5333 219.373 28.7133 219.2 28.86C219.027 29.0067 218.86 29.08 218.7 29.08ZM228.18 34.44C228.447 34.2267 228.647 34.0333 228.78 33.86C228.927 33.6867 229.02 33.5333 229.06 33.4C229.1 33.2667 229.133 33.14 229.16 33.02C229.2 32.9 229.247 32.7933 229.3 32.7L229.42 32.44C229.207 32.3067 229 32.18 228.8 32.06C228.613 31.9267 228.427 31.7933 228.24 31.66C228.093 31.6067 227.973 31.56 227.88 31.52C227.8 31.48 227.687 31.4133 227.54 31.32L227.14 31.04C226.673 30.7067 226.36 30.54 226.2 30.54C226.04 30.54 225.82 30.44 225.54 30.24L224.62 29.56C224.54 29.4933 224.427 29.4333 224.28 29.38C224.133 29.3133 223.887 29.22 223.54 29.1C223.3 29.0067 223.113 28.9067 222.98 28.8C222.9 28.7333 222.82 28.68 222.74 28.64C222.673 28.6 222.607 28.56 222.54 28.52L222.26 28.36C222.207 28.32 222.147 28.2867 222.08 28.26C222.027 28.2333 221.967 28.2 221.9 28.16C221.647 28.4533 221.52 28.6467 221.52 28.74C221.52 28.8467 221.447 29.0133 221.3 29.24L220.74 30.08L221 30.26C221.147 30.3667 221.3 30.4533 221.46 30.52L221.72 30.64C222.013 30.7867 222.26 30.9333 222.46 31.08C222.567 31.1467 222.653 31.2067 222.72 31.26C222.787 31.3133 222.847 31.3533 222.9 31.38L225.46 32.8C225.553 32.8533 225.673 32.9267 225.82 33.02C225.967 33.1133 226.12 33.2133 226.28 33.32L227.48 34.08C227.533 34.1067 227.587 34.14 227.64 34.18C227.707 34.2067 227.767 34.2333 227.82 34.26L228.18 34.44ZM226.7 35.76L227.66 34.96C227.62 34.9333 227.58 34.9133 227.54 34.9C227.5 34.8733 227.467 34.8467 227.44 34.82C227.4 34.7933 227.36 34.7667 227.32 34.74C227.28 34.7133 227.233 34.6867 227.18 34.66L226.98 34.52C226.953 34.4933 226.86 34.4333 226.7 34.34L225.5 33.62C225.46 33.5933 225.387 33.5533 225.28 33.5C225.187 33.4333 225.06 33.3733 224.9 33.32C224.687 33.24 224.5 33.1533 224.34 33.06C224.193 32.9667 224.047 32.8867 223.9 32.82C223.82 32.7267 223.747 32.6533 223.68 32.6C223.627 32.5467 223.58 32.4933 223.54 32.44C223.473 32.3733 223.327 32.2933 223.1 32.2L222.84 32.1C222.547 31.9933 222.313 31.8533 222.14 31.68C221.94 31.48 221.78 31.3733 221.66 31.36C221.5 31.3467 221.327 31.2733 221.14 31.14C220.927 30.9933 220.74 30.88 220.58 30.8C220.42 30.7067 220.26 30.6267 220.1 30.56C220.047 30.5867 219.92 30.6267 219.72 30.68C219.533 30.7333 219.407 30.7667 219.34 30.78C219.207 30.7933 219.08 30.8267 218.96 30.88C218.853 30.9333 218.727 30.9933 218.58 31.06L218.22 31.24C218.567 31.4533 218.893 31.66 219.2 31.86C219.52 32.06 219.853 32.24 220.2 32.4L220.82 32.68C220.887 32.7067 220.96 32.74 221.04 32.78C221.12 32.82 221.2 32.8533 221.28 32.88C221.347 32.9067 221.447 32.9533 221.58 33.02C221.727 33.0867 221.9 33.1733 222.1 33.28L223.3 33.92C223.5 34.0267 223.7 34.14 223.9 34.26C224.1 34.38 224.3 34.4933 224.5 34.6C224.633 34.6667 224.76 34.74 224.88 34.82C225 34.9 225.127 34.9733 225.26 35.04C225.407 35.12 225.613 35.2333 225.88 35.38C226.16 35.5133 226.433 35.64 226.7 35.76ZM227.54 36.02C227.593 36.02 227.7 36.02 227.86 36.02C228.033 36.0067 228.227 36 228.44 36C228.68 36 228.927 36 229.18 36C229.447 35.9867 229.733 35.98 230.04 35.98C230.387 35.98 230.727 35.9867 231.06 36C231.393 36 231.727 36 232.06 36C232.22 36 232.373 35.8867 232.52 35.66C232.667 35.42 232.74 35.2267 232.74 35.08C232.74 35.0133 232.68 34.88 232.56 34.68C232.453 34.48 232.327 34.28 232.18 34.08L231.9 33.68C231.793 33.52 231.66 33.32 231.5 33.08C231.34 32.84 231.207 32.6133 231.1 32.4L230.94 32.08C230.9 32 230.84 31.9 230.76 31.78C230.68 31.6467 230.6 31.5267 230.52 31.42L230.22 31L230.18 31.24C230.167 31.32 230.16 31.4 230.16 31.48C230.16 31.56 230.16 31.6467 230.16 31.74V31.86C230.173 31.8867 230.18 31.92 230.18 31.96C230.18 32.0267 230.247 32.1733 230.38 32.4C230.447 32.5067 230.513 32.62 230.58 32.74C230.647 32.86 230.727 32.9867 230.82 33.12C230.687 33.0133 230.547 32.92 230.4 32.84C230.267 32.76 230.16 32.72 230.08 32.72C229.96 32.72 229.9 32.8 229.9 32.96C229.9 33.0933 230.02 33.3 230.26 33.58C230.5 33.8467 230.753 34.1067 231.02 34.36C230.953 34.3333 230.88 34.3133 230.8 34.3C230.733 34.2867 230.667 34.2733 230.6 34.26L230.16 34.08C230.107 34.0533 230.02 34.0333 229.9 34.02C229.78 34.0067 229.68 34 229.6 34C229.4 34 229.233 34.0733 229.1 34.22C228.967 34.3667 228.9 34.4933 228.9 34.6C228.9 34.72 228.947 34.8333 229.04 34.94C229.147 35.0333 229.287 35.1467 229.46 35.28C229.313 35.28 229.193 35.2867 229.1 35.3C229.02 35.3 228.953 35.3 228.9 35.3C228.833 35.3 228.76 35.3067 228.68 35.32C228.613 35.32 228.54 35.32 228.46 35.32C228.207 35.32 227.987 35.3933 227.8 35.54C227.613 35.6867 227.46 35.84 227.34 36L227.54 36.02Z" fill="#F8F2E2"/>
</svg>
