<svg width="105" height="194" viewBox="0 0 105 194" fill="none" xmlns="http://www.w3.org/2000/svg">
<rect x="0.5" y="0.5" width="104" height="193" rx="4.5" stroke="#8A38F5" stroke-dasharray="10 5"/>
<path d="M29.107 25.448C29.705 23.698 32.123 23.645 32.832 25.289L32.892 25.449L33.699 27.809C33.884 28.3502 34.1828 28.8455 34.5754 29.2614C34.9681 29.6773 35.4453 30.0042 35.975 30.22L36.192 30.301L38.552 31.107C40.302 31.705 40.355 34.123 38.712 34.832L38.552 34.892L36.192 35.699C35.6506 35.8838 35.1551 36.1826 34.739 36.5753C34.3229 36.9679 33.9959 37.4452 33.78 37.975L33.699 38.191L32.893 40.552C32.295 42.302 29.877 42.355 29.169 40.712L29.107 40.552L28.301 38.192C28.1162 37.6506 27.8174 37.1551 27.4248 36.739C27.0321 36.3229 26.5548 35.9959 26.025 35.78L25.809 35.699L23.449 34.893C21.698 34.295 21.645 31.877 23.289 31.169L23.449 31.107L25.809 30.301C26.3502 30.1161 26.8455 29.8172 27.2614 29.4246C27.6773 29.0319 28.0042 28.5547 28.22 28.025L28.301 27.809L29.107 25.448ZM39 22C39.1871 22 39.3704 22.0525 39.5292 22.1515C39.6879 22.2505 39.8157 22.392 39.898 22.56L39.946 22.677L40.296 23.703L41.323 24.053C41.5105 24.1167 41.6748 24.2346 41.7952 24.3918C41.9156 24.549 41.9867 24.7384 41.9993 24.936C42.0119 25.1336 41.9656 25.3305 41.8662 25.5018C41.7668 25.673 41.6189 25.8109 41.441 25.898L41.323 25.946L40.297 26.296L39.947 27.323C39.8832 27.5104 39.7652 27.6747 39.6079 27.795C39.4507 27.9153 39.2612 27.9862 39.0637 27.9987C38.8661 28.0113 38.6692 27.9648 38.498 27.8654C38.3268 27.7659 38.189 27.6179 38.102 27.44L38.054 27.323L37.704 26.297L36.677 25.947C36.4895 25.8833 36.3252 25.7654 36.2048 25.6082C36.0844 25.451 36.0134 25.2616 36.0007 25.064C35.9881 24.8664 36.0344 24.6695 36.1338 24.4982C36.2332 24.327 36.3812 24.1891 36.559 24.102L36.677 24.054L37.703 23.704L38.053 22.677C38.1204 22.4794 38.248 22.3079 38.4178 22.1865C38.5877 22.0651 38.7912 21.9999 39 22Z" fill="#1E1E1E"/>
<path d="M29.107 59.448C29.705 57.698 32.123 57.645 32.832 59.289L32.892 59.449L33.699 61.809C33.884 62.3502 34.1828 62.8455 34.5754 63.2614C34.9681 63.6773 35.4453 64.0042 35.975 64.22L36.192 64.301L38.552 65.107C40.302 65.705 40.355 68.123 38.712 68.832L38.552 68.892L36.192 69.699C35.6506 69.8838 35.1551 70.1826 34.739 70.5753C34.3229 70.9679 33.9959 71.4452 33.78 71.975L33.699 72.191L32.893 74.552C32.295 76.302 29.877 76.355 29.169 74.712L29.107 74.552L28.301 72.192C28.1162 71.6506 27.8174 71.1551 27.4248 70.739C27.0321 70.3229 26.5548 69.9959 26.025 69.78L25.809 69.699L23.449 68.893C21.698 68.295 21.645 65.877 23.289 65.169L23.449 65.107L25.809 64.301C26.3502 64.1161 26.8455 63.8172 27.2614 63.4246C27.6773 63.0319 28.0042 62.5547 28.22 62.025L28.301 61.809L29.107 59.448ZM31 60.094L30.194 62.454C29.9124 63.2793 29.4543 64.0333 28.8515 64.6635C28.2488 65.2937 27.516 65.7849 26.704 66.103L26.454 66.194L24.094 67L26.454 67.806C27.2793 68.0876 28.0333 68.5457 28.6635 69.1485C29.2937 69.7512 29.7849 70.4841 30.103 71.296L30.194 71.546L31 73.906L31.806 71.546C32.0876 70.7207 32.5457 69.9667 33.1485 69.3365C33.7512 68.7063 34.4841 68.2151 35.296 67.897L35.546 67.807L37.906 67L35.546 66.194C34.7207 65.9124 33.9667 65.4543 33.3365 64.8515C32.7063 64.2488 32.2151 63.5159 31.897 62.704L31.807 62.454L31 60.094ZM39 56C39.1871 56 39.3704 56.0525 39.5292 56.1515C39.6879 56.2505 39.8157 56.392 39.898 56.56L39.946 56.677L40.296 57.703L41.323 58.053C41.5105 58.1167 41.6748 58.2346 41.7952 58.3918C41.9156 58.549 41.9867 58.7384 41.9993 58.936C42.0119 59.1336 41.9656 59.3305 41.8662 59.5018C41.7668 59.673 41.6189 59.8109 41.441 59.898L41.323 59.946L40.297 60.296L39.947 61.323C39.8832 61.5104 39.7652 61.6747 39.6079 61.795C39.4507 61.9153 39.2612 61.9862 39.0637 61.9987C38.8661 62.0113 38.6692 61.9648 38.498 61.8654C38.3268 61.7659 38.189 61.6179 38.102 61.44L38.054 61.323L37.704 60.297L36.677 59.947C36.4895 59.8833 36.3252 59.7654 36.2048 59.6082C36.0844 59.451 36.0134 59.2616 36.0007 59.064C35.9881 58.8664 36.0344 58.6695 36.1338 58.4982C36.2332 58.327 36.3812 58.1891 36.559 58.102L36.677 58.054L37.703 57.704L38.053 56.677C38.1204 56.4794 38.248 56.3079 38.4178 56.1865C38.5877 56.0651 38.7912 55.9999 39 56Z" fill="#1E1E1E"/>
<path d="M35 97L31 95.5L35 93.9985L36.5 90L38.0014 93.9985L42 95.5L38.0014 97L36.5 101L35 97ZM27 105L22 103L27 101L29 96L31 101L36 103L31 105L29 110L27 105Z" fill="#1E1E1E"/>
<path d="M30 129L29.484 130.394C28.808 132.222 28.47 133.136 27.803 133.803C27.136 134.47 26.222 134.808 24.394 135.484L23 136L24.394 136.516C26.222 137.192 27.136 137.531 27.803 138.197C28.47 138.863 28.808 139.778 29.484 141.606L30 143L30.516 141.606C31.192 139.778 31.531 138.864 32.197 138.197C32.863 137.53 33.778 137.192 35.606 136.516L37 136L35.606 135.484C33.778 134.808 32.864 134.47 32.197 133.803C31.53 133.136 31.192 132.222 30.516 130.394L30 129ZM38 125L37.779 125.597C37.489 126.381 37.344 126.773 37.059 127.058C36.773 127.344 36.381 127.489 35.597 127.778L35 128L35.598 128.221C36.381 128.511 36.773 128.656 37.058 128.941C37.344 129.227 37.489 129.619 37.778 130.403L38 131L38.221 130.403C38.511 129.619 38.656 129.227 38.941 128.942C39.227 128.656 39.619 128.511 40.403 128.222L41 128L40.402 127.779C39.619 127.489 39.227 127.344 38.942 127.059C38.656 126.773 38.511 126.381 38.222 125.597L38 125Z" stroke="#1E1E1E" stroke-width="1.5" stroke-linejoin="round"/>
<path d="M42.5 168.021C39.7755 168.188 37.2063 169.346 35.2761 171.276C33.346 173.206 32.1883 175.776 32.021 178.5H31.979C31.812 175.775 30.6544 173.206 28.7242 171.276C26.794 169.346 24.2246 168.188 21.5 168.021V167.979C24.2246 167.812 26.794 166.654 28.7242 164.724C30.6544 162.794 31.812 160.225 31.979 157.5H32.021C32.1883 160.224 33.346 162.794 35.2761 164.724C37.2063 166.654 39.7755 167.812 42.5 167.979V168.021Z" fill="#448AFF"/>
<path fill-rule="evenodd" clip-rule="evenodd" d="M81.6417 21.303L80.3971 22.5493C78.6254 21.1631 76.4998 20.3028 74.2627 20.0664C72.0256 19.8301 69.7672 20.2272 67.7449 21.2125C65.7226 22.1978 64.018 23.7316 62.8254 25.639C61.6328 27.5464 61.0003 29.7506 61 32.0001C61 32.2843 61.1129 32.5568 61.3138 32.7577C61.5147 32.9587 61.7873 33.0716 62.0714 33.0716C62.3556 33.0716 62.6281 32.9587 62.829 32.7577C63.03 32.5568 63.1429 32.2843 63.1429 32.0001C63.1427 30.174 63.6498 28.3837 64.6076 26.8289C65.5653 25.2741 66.936 24.0158 68.567 23.1944C70.198 22.3729 72.025 22.0206 73.8444 22.1767C75.6639 22.3328 77.4042 22.9912 78.8714 24.0784L77.44 25.5081C77.3199 25.6279 77.2381 25.7806 77.2048 25.9469C77.1716 26.1132 77.1884 26.2857 77.2532 26.4424C77.318 26.5992 77.4278 26.7332 77.5688 26.8274C77.7098 26.9217 77.8755 26.9721 78.0451 26.9721H82.2503C82.4776 26.9721 82.6956 26.8818 82.8564 26.7211C83.0171 26.5603 83.1074 26.3423 83.1074 26.115V21.9098C83.1074 21.7402 83.057 21.5745 82.9627 21.4335C82.8685 21.2925 82.7345 21.1827 82.5777 21.1179C82.421 21.0531 82.2485 21.0363 82.0822 21.0695C81.9159 21.1028 81.7632 21.1846 81.6434 21.3047M82.8606 32.0018C82.8522 31.8563 82.8737 31.7105 82.9236 31.5736C82.9735 31.4366 83.0509 31.3112 83.1509 31.2051C83.251 31.0991 83.3716 31.0146 83.5055 30.9568C83.6393 30.899 83.7836 30.8691 83.9294 30.869C84.0752 30.8689 84.2195 30.8985 84.3534 30.9561C84.4874 31.0137 84.6082 31.098 84.7084 31.2039C84.8086 31.3098 84.8862 31.435 84.9363 31.5719C84.9865 31.7088 85.0081 31.8546 85 32.0001C85.0009 34.2505 84.3689 36.4558 83.1763 38.3642C81.9837 40.2726 80.2784 41.8072 78.2553 42.7928C76.2322 43.7783 73.9727 44.1751 71.7348 43.9379C69.497 43.7006 67.3709 42.8388 65.5994 41.451L64.3549 42.6956C64.2349 42.8152 64.0822 42.8965 63.916 42.9294C63.7498 42.9622 63.5776 42.9451 63.4212 42.8802C63.2647 42.8153 63.131 42.7054 63.0369 42.5646C62.9428 42.4237 62.8926 42.2581 62.8926 42.0887V37.8853C62.8926 37.6579 62.9829 37.4399 63.1436 37.2792C63.3044 37.1184 63.5224 37.0281 63.7497 37.0281H67.9531C68.1227 37.0282 68.2885 37.0785 68.4295 37.1728C68.5705 37.2671 68.6803 37.4011 68.7451 37.5578C68.8099 37.7146 68.8267 37.887 68.7935 38.0533C68.7602 38.2196 68.6784 38.3724 68.5583 38.4921L67.1286 39.9218C68.5958 41.0091 70.3361 41.6674 72.1556 41.8235C73.975 41.9796 75.8021 41.6273 77.433 40.8059C79.064 39.9845 80.4347 38.7262 81.3924 37.1714C82.3502 35.6165 82.8573 33.8263 82.8571 32.0001M74.3714 26.8984C74.0371 25.407 71.9234 25.419 71.6011 26.9104L71.5669 27.0767C71.3825 27.9612 70.9385 28.7706 70.2917 29.4015C69.645 30.0324 68.8248 30.4561 67.936 30.6184C66.4 30.891 66.4 33.1093 67.936 33.3818C68.8245 33.5445 69.6443 33.9684 70.2907 34.5992C70.9372 35.2301 71.3809 36.0393 71.5651 36.9236L71.6011 37.0898C71.9234 38.5813 74.0354 38.5933 74.3714 37.1018L74.4143 36.9081C74.6068 36.0271 75.0552 35.2226 75.7033 34.5955C76.3514 33.9685 77.1703 33.5469 78.0571 33.3836C79.5966 33.111 79.5966 30.8893 78.0571 30.6167C77.1703 30.4534 76.3514 30.0318 75.7033 29.4047C75.0552 28.7777 74.6068 27.9731 74.4143 27.0921L74.3714 26.8984Z" fill="#1E1E1E"/>
<path d="M64.4972 79.0537V74.8023H68.7486" stroke="#1E1E1E" stroke-width="1.71429" stroke-linecap="round" stroke-linejoin="round"/>
<path d="M83.8669 65.9686C84.318 68.3754 83.9572 70.8638 82.8413 73.0434C81.7254 75.2231 79.9174 76.9705 77.701 78.0116C75.4847 79.0527 72.9854 79.3285 70.5954 78.7958C68.2053 78.263 66.0598 76.9519 64.4954 75.068M62.1332 70.0315C61.6821 67.6247 62.0428 65.1362 63.1587 62.9566C64.2747 60.777 66.0827 59.0295 68.299 57.9884C70.5154 56.9473 73.0146 56.6715 75.4047 57.2043C77.7947 57.737 79.9402 59.0482 81.5046 60.932" stroke="#1E1E1E" stroke-width="1.71429" stroke-linecap="round" stroke-linejoin="round"/>
<path d="M81.5029 56.9463V61.1977H77.2514M68.0114 68.5726C67.4097 68.468 67.4097 67.604 68.0114 67.4994C69.0765 67.3131 70.0621 66.8144 70.8429 66.0665C71.6237 65.3186 72.1645 64.3554 72.3966 63.2994L72.4326 63.1331C72.5629 62.5383 73.4097 62.5349 73.5451 63.128L73.5897 63.3217C73.8292 64.3736 74.3744 65.3313 75.1568 66.074C75.9393 66.8168 76.9239 67.3115 77.9869 67.496C78.592 67.6006 78.592 68.4697 77.9869 68.576C76.9241 68.7603 75.9396 69.2548 75.1572 69.9973C74.3748 70.7397 73.8295 71.697 73.5897 72.7486L73.5451 72.9406C73.4097 73.5337 72.5629 73.5303 72.4326 72.9354L72.3983 72.7709C72.166 71.7144 71.6247 70.7509 70.8432 70.003C70.0617 69.255 69.0754 68.7565 68.0097 68.5709" stroke="#1E1E1E" stroke-width="1.71429" stroke-linecap="round" stroke-linejoin="round"/>
<path fill-rule="evenodd" clip-rule="evenodd" d="M71.5606 158.895C72.9101 158.532 74.3235 158.475 75.6982 158.726C77.0729 158.978 78.3743 159.532 79.508 160.349L78.4623 161.395C78.3427 161.515 78.2613 161.668 78.2285 161.834C78.1956 162 78.2127 162.172 78.2776 162.329C78.3426 162.485 78.4524 162.619 78.5933 162.713C78.7341 162.807 78.8997 162.857 79.0691 162.857H83C83.2273 162.857 83.4453 162.767 83.6061 162.606C83.7668 162.445 83.8571 162.227 83.8571 162V158.069C83.8571 157.9 83.8067 157.734 83.7125 157.593C83.6182 157.452 83.4842 157.342 83.3274 157.277C83.1707 157.212 82.9982 157.196 82.8319 157.229C82.6656 157.262 82.5129 157.344 82.3931 157.464L81.344 158.513C79.4204 157.024 77.0897 156.155 74.6609 156.021C72.232 155.887 69.8198 156.494 67.744 157.762C65.6683 159.031 64.027 160.9 63.0379 163.122C62.0488 165.345 61.7586 167.815 62.2057 170.206C62.2369 170.372 62.3005 170.531 62.3928 170.672C62.4851 170.813 62.6044 170.935 62.7439 171.031C62.8833 171.126 63.0402 171.193 63.2055 171.228C63.3708 171.262 63.5414 171.264 63.7074 171.233C63.8734 171.202 64.0317 171.138 64.1732 171.046C64.3146 170.954 64.4365 170.834 64.5319 170.695C64.6272 170.556 64.6942 170.399 64.7289 170.233C64.7636 170.068 64.7655 169.897 64.7343 169.731C64.2989 167.398 64.7599 164.985 66.0254 162.977C67.2908 160.968 69.2675 159.51 71.5606 158.895ZM85.7943 165.794C85.7313 165.458 85.5377 165.162 85.2561 164.969C84.9745 164.777 84.6279 164.704 84.2926 164.767C83.9573 164.83 83.6607 165.023 83.4681 165.305C83.2755 165.587 83.2027 165.933 83.2657 166.269C83.6116 168.12 83.3951 170.032 82.6443 171.759C81.8934 173.486 80.6425 174.948 79.0529 175.958C77.4633 176.967 75.6077 177.478 73.7254 177.423C71.8431 177.368 70.0203 176.751 68.492 175.651L69.5377 174.605C69.6574 174.485 69.7388 174.332 69.7716 174.166C69.8044 174 69.7872 173.827 69.722 173.671C69.6569 173.514 69.5468 173.38 69.4056 173.286C69.2645 173.193 69.0987 173.143 68.9291 173.143H65C64.7727 173.143 64.5546 173.233 64.3939 173.394C64.2332 173.555 64.1428 173.773 64.1428 174V177.931C64.1429 178.1 64.1932 178.266 64.2875 178.407C64.3818 178.548 64.5158 178.658 64.6726 178.723C64.8293 178.788 65.0017 178.804 65.1681 178.771C65.3344 178.738 65.4871 178.656 65.6068 178.536L66.656 177.487C68.5794 178.976 70.91 179.845 73.3386 179.979C75.7672 180.113 78.1792 179.506 80.2549 178.238C82.3306 176.97 83.9718 175.101 84.9611 172.879C85.9504 170.657 86.2409 168.186 85.7943 165.795V165.794Z" fill="#8FBFFA"/>
<path fill-rule="evenodd" clip-rule="evenodd" d="M75.3817 162.902C75.0423 161.417 72.9217 161.426 72.596 162.915L72.5823 162.977L72.5549 163.099C72.3564 163.985 71.8999 164.792 71.243 165.419C70.5861 166.045 69.7583 166.463 68.864 166.62C67.316 166.889 67.316 169.113 68.864 169.38C69.7617 169.537 70.5924 169.957 71.2506 170.588C71.9087 171.218 72.3645 172.03 72.56 172.92L72.596 173.086C72.9217 174.574 75.0423 174.585 75.3817 173.098L75.4246 172.905C75.6264 172.017 76.0864 171.209 76.7465 170.583C77.4067 169.956 78.2375 169.539 79.1343 169.383C80.6857 169.114 80.6857 166.886 79.1343 166.617C78.2425 166.462 77.4159 166.049 76.7575 165.428C76.099 164.807 75.6379 164.006 75.4314 163.125L75.3971 162.977L75.3817 162.902Z" fill="#2859C5"/>
</svg>
