<svg width="44" height="39" viewBox="0 0 44 39" fill="none" xmlns="http://www.w3.org/2000/svg">
<path d="M42.3125 17.2656H23.1719V11.7969H25.125C25.8502 11.7969 26.5457 11.5088 27.0585 10.996C27.5713 10.4832 27.8594 9.7877 27.8594 9.0625V2.8125C27.8594 2.0873 27.5713 1.3918 27.0585 0.879005C26.5457 0.36621 25.8502 0.078125 25.125 0.078125H18.875C18.1498 0.078125 17.4543 0.36621 16.9415 0.879005C16.4287 1.3918 16.1406 2.0873 16.1406 2.8125V9.0625C16.1406 9.7877 16.4287 10.4832 16.9415 10.996C17.4543 11.5088 18.1498 11.7969 18.875 11.7969H20.8281V17.2656H1.6875C1.3767 17.2656 1.07863 17.3891 0.858859 17.6089C0.63909 17.8286 0.515625 18.1267 0.515625 18.4375C0.515625 18.7483 0.63909 19.0464 0.858859 19.2661C1.07863 19.4859 1.3767 19.6094 1.6875 19.6094H8.32812V26.6406H6.375C5.6498 26.6406 4.9543 26.9287 4.4415 27.4415C3.92871 27.9543 3.64062 28.6498 3.64062 29.375V35.625C3.64062 36.3502 3.92871 37.0457 4.4415 37.5585C4.9543 38.0713 5.6498 38.3594 6.375 38.3594H12.625C13.3502 38.3594 14.0457 38.0713 14.5585 37.5585C15.0713 37.0457 15.3594 36.3502 15.3594 35.625V29.375C15.3594 28.6498 15.0713 27.9543 14.5585 27.4415C14.0457 26.9287 13.3502 26.6406 12.625 26.6406H10.6719V19.6094H33.3281V26.6406H31.375C30.6498 26.6406 29.9543 26.9287 29.4415 27.4415C28.9287 27.9543 28.6406 28.6498 28.6406 29.375V35.625C28.6406 36.3502 28.9287 37.0457 29.4415 37.5585C29.9543 38.0713 30.6498 38.3594 31.375 38.3594H37.625C38.3502 38.3594 39.0457 38.0713 39.5585 37.5585C40.0713 37.0457 40.3594 36.3502 40.3594 35.625V29.375C40.3594 28.6498 40.0713 27.9543 39.5585 27.4415C39.0457 26.9287 38.3502 26.6406 37.625 26.6406H35.6719V19.6094H42.3125C42.6233 19.6094 42.9214 19.4859 43.1411 19.2661C43.3609 19.0464 43.4844 18.7483 43.4844 18.4375C43.4844 18.1267 43.3609 17.8286 43.1411 17.6089C42.9214 17.3891 42.6233 17.2656 42.3125 17.2656ZM18.4844 9.0625V2.8125C18.4844 2.7089 18.5255 2.60954 18.5988 2.53629C18.672 2.46303 18.7714 2.42188 18.875 2.42188H25.125C25.2286 2.42188 25.328 2.46303 25.4012 2.53629C25.4745 2.60954 25.5156 2.7089 25.5156 2.8125V9.0625C25.5156 9.1661 25.4745 9.26546 25.4012 9.33871C25.328 9.41197 25.2286 9.45312 25.125 9.45312H18.875C18.7714 9.45312 18.672 9.41197 18.5988 9.33871C18.5255 9.26546 18.4844 9.1661 18.4844 9.0625ZM13.0156 29.375V35.625C13.0156 35.7286 12.9745 35.828 12.9012 35.9012C12.828 35.9745 12.7286 36.0156 12.625 36.0156H6.375C6.2714 36.0156 6.17204 35.9745 6.09879 35.9012C6.02553 35.828 5.98438 35.7286 5.98438 35.625V29.375C5.98438 29.2714 6.02553 29.172 6.09879 29.0988C6.17204 29.0255 6.2714 28.9844 6.375 28.9844H12.625C12.7286 28.9844 12.828 29.0255 12.9012 29.0988C12.9745 29.172 13.0156 29.2714 13.0156 29.375ZM38.0156 29.375V35.625C38.0156 35.7286 37.9745 35.828 37.9012 35.9012C37.828 35.9745 37.7286 36.0156 37.625 36.0156H31.375C31.2714 36.0156 31.172 35.9745 31.0988 35.9012C31.0255 35.828 30.9844 35.7286 30.9844 35.625V29.375C30.9844 29.2714 31.0255 29.172 31.0988 29.0988C31.172 29.0255 31.2714 28.9844 31.375 28.9844H37.625C37.7286 28.9844 37.828 29.0255 37.9012 29.0988C37.9745 29.172 38.0156 29.2714 38.0156 29.375Z" fill="#1E1E1E"/>
</svg>
