<svg width="350" height="60" viewBox="0 0 350 60" fill="none" xmlns="http://www.w3.org/2000/svg">
<rect width="350" height="60" rx="8" fill="#44392B" fill-opacity="0.5"/>
<path d="M147.584 23.404H153.664C153.856 23.404 153.952 23.5267 153.952 23.772C153.952 24.3053 153.776 24.572 153.424 24.572H148.992V30.908C148.992 31.1533 149.115 31.276 149.36 31.276H155.024C155.205 31.276 155.296 31.404 155.296 31.66C155.296 32.1933 155.12 32.46 154.768 32.46H148.768C147.979 32.46 147.584 32.0653 147.584 31.276V23.404ZM158.144 35.404C158.144 36.3747 157.872 36.86 157.328 36.86H157.104C156.859 36.86 156.736 36.7373 156.736 36.492V22.684H158.144V27.196H160.16C160.341 27.196 160.432 27.324 160.432 27.58C160.432 28.1453 160.267 28.428 159.936 28.428H158.144V35.404ZM167.35 22.46C168.107 22.46 168.795 22.5293 169.414 22.668C170.033 22.8067 170.561 22.9987 170.998 23.244C171.425 23.4893 171.75 23.7773 171.974 24.108C172.209 24.428 172.326 24.78 172.326 25.164C172.326 25.548 172.214 25.916 171.99 26.268C171.777 26.6093 171.462 26.908 171.046 27.164C170.619 27.4307 170.097 27.6387 169.478 27.788C168.87 27.9373 168.161 28.012 167.35 28.012C166.593 28.012 165.905 27.9427 165.286 27.804C164.667 27.6547 164.139 27.452 163.702 27.196C163.265 26.9507 162.929 26.6627 162.694 26.332C162.459 25.9907 162.342 25.628 162.342 25.244C162.342 24.86 162.454 24.5027 162.678 24.172C162.913 23.8307 163.249 23.532 163.686 23.276C164.123 23.02 164.651 22.8227 165.27 22.684C165.889 22.5347 166.582 22.46 167.35 22.46ZM167.334 26.844C167.825 26.844 168.289 26.8013 168.726 26.716C169.163 26.6307 169.542 26.5133 169.862 26.364C170.182 26.2147 170.433 26.044 170.614 25.852C170.806 25.66 170.902 25.452 170.902 25.228C170.902 25.004 170.806 24.796 170.614 24.604C170.433 24.4013 170.182 24.2253 169.862 24.076C169.531 23.9373 169.147 23.8253 168.71 23.74C168.283 23.6547 167.825 23.612 167.334 23.612C166.811 23.612 166.331 23.6547 165.894 23.74C165.457 23.8253 165.083 23.9373 164.774 24.076C164.454 24.2253 164.203 24.4013 164.022 24.604C163.851 24.796 163.766 25.004 163.766 25.228C163.766 25.452 163.851 25.66 164.022 25.852C164.203 26.044 164.454 26.2147 164.774 26.364C165.083 26.5133 165.457 26.6307 165.894 26.716C166.331 26.8013 166.811 26.844 167.334 26.844ZM160.694 29.18H173.702C173.894 29.18 173.99 29.308 173.99 29.564C173.99 30.0973 173.814 30.364 173.462 30.364H160.694V29.18ZM172.07 34.124C172.07 34.988 171.995 35.6333 171.846 36.06C171.707 36.4867 171.441 36.7 171.046 36.7H164.646C164.347 36.7 164.07 36.6893 163.814 36.668C163.558 36.6573 163.345 36.6147 163.174 36.54C163.003 36.4653 162.865 36.348 162.758 36.188C162.662 36.028 162.614 35.804 162.614 35.516V31.932H171.462C171.867 31.932 172.07 32.1293 172.07 32.524V34.124ZM170.342 35.516C170.566 35.516 170.678 35.308 170.678 34.892V33.116H164.022V35.148C164.022 35.3933 164.145 35.516 164.39 35.516H170.342ZM181.66 22.956C182.396 22.956 183.063 23.0467 183.66 23.228C184.258 23.3987 184.764 23.6333 185.18 23.932C185.586 24.2413 185.9 24.604 186.124 25.02C186.348 25.4253 186.46 25.868 186.46 26.348C186.46 26.828 186.354 27.2813 186.14 27.708C185.927 28.124 185.618 28.4867 185.212 28.796C184.807 29.116 184.306 29.372 183.708 29.564C183.111 29.7453 182.428 29.836 181.66 29.836C180.924 29.836 180.258 29.7507 179.66 29.58C179.063 29.3987 178.556 29.1533 178.14 28.844C177.724 28.5347 177.399 28.172 177.164 27.756C176.94 27.34 176.828 26.8973 176.828 26.428C176.828 25.948 176.94 25.4947 177.164 25.068C177.388 24.6413 177.708 24.2733 178.124 23.964C178.54 23.6547 179.047 23.4093 179.644 23.228C180.242 23.0467 180.914 22.956 181.66 22.956ZM181.644 28.684C182.114 28.684 182.556 28.6253 182.972 28.508C183.388 28.38 183.751 28.2093 184.06 27.996C184.37 27.7933 184.61 27.5533 184.78 27.276C184.951 26.9987 185.036 26.7053 185.036 26.396C185.036 26.076 184.946 25.7773 184.764 25.5C184.583 25.2227 184.343 24.9773 184.044 24.764C183.746 24.5613 183.388 24.4013 182.972 24.284C182.556 24.1667 182.114 24.108 181.644 24.108C181.143 24.108 180.684 24.1667 180.268 24.284C179.852 24.4013 179.495 24.5613 179.196 24.764C178.898 24.9773 178.663 25.2227 178.492 25.5C178.332 25.7773 178.252 26.076 178.252 26.396C178.252 26.7053 178.332 26.9987 178.492 27.276C178.663 27.5533 178.898 27.7933 179.196 27.996C179.495 28.2093 179.852 28.38 180.268 28.508C180.684 28.6253 181.143 28.684 181.644 28.684ZM175.004 32.876H188.012C188.204 32.876 188.3 33.0093 188.3 33.276C188.3 33.8307 188.124 34.108 187.772 34.108H175.004V32.876ZM191.314 26.284H199.01C199.149 26.284 199.218 26.1613 199.218 25.916V24.348H191.314V23.18H200.034C200.429 23.18 200.626 23.3773 200.626 23.772V25.612C200.626 26.828 200.317 27.436 199.698 27.436H192.722V29.164C192.722 29.3453 192.813 29.436 192.994 29.436H200.578C200.749 29.436 200.834 29.5587 200.834 29.804C200.834 30.3373 200.669 30.604 200.338 30.604H192.514C191.714 30.604 191.314 30.2093 191.314 29.42V26.284ZM196.674 31.132V33.356H202.338C202.52 33.356 202.61 33.4893 202.61 33.756C202.61 34.3107 202.44 34.588 202.098 34.588H189.33V33.356H195.266V31.132H196.674Z" fill="#F8F2E2" fill-opacity="0.5"/>
</svg>
