<svg width="154" height="296" viewBox="0 0 154 296" fill="none" xmlns="http://www.w3.org/2000/svg">
<rect x="0.5" y="0.5" width="153" height="295" rx="4.5" stroke="#8A38F5" stroke-dasharray="10 5"/>
<rect x="20" y="20" width="101" height="43" rx="21.5" fill="white"/>
<rect x="20.5" y="20.5" width="100" height="42" rx="21" stroke="#44392B" stroke-opacity="0.5"/>
<path d="M42.368 44.216C42.368 45.496 42.0587 46.136 41.44 46.136H41.184C40.9173 46.136 40.784 45.9813 40.784 45.672V34.904H42.256C43.1307 36.1947 44 37.4853 44.864 38.776C45.7387 40.056 46.608 41.3413 47.472 42.632V34.904H49.04V45.336C49.04 45.816 48.848 46.056 48.464 46.056H47.84L42.368 37.752V44.216ZM52.0103 42.248C52.1596 43.1013 52.5009 43.7253 53.0343 44.12C53.5783 44.504 54.2503 44.7013 55.0503 44.712C55.3809 44.712 55.7223 44.6747 56.0743 44.6C56.4263 44.5253 56.7463 44.4187 57.0343 44.28C57.2796 44.184 57.4769 44.3387 57.6263 44.744C57.7863 45.128 57.7489 45.384 57.5143 45.512C57.1409 45.7147 56.6983 45.88 56.1863 46.008C55.6849 46.136 55.1836 46.1893 54.6823 46.168C53.8289 46.1573 53.1249 46.008 52.5703 45.72C52.0156 45.432 51.5783 45.0427 51.2583 44.552C50.9276 44.072 50.6983 43.512 50.5703 42.872C50.4529 42.2213 50.4103 41.5333 50.4423 40.808C50.5063 39.6027 50.8849 38.6747 51.5783 38.024C52.2716 37.3627 53.2049 37.032 54.3783 37.032C54.9543 37.032 55.4663 37.128 55.9143 37.32C56.3623 37.512 56.7409 37.7733 57.0503 38.104C57.3596 38.4347 57.5943 38.8293 57.7543 39.288C57.9249 39.736 58.0103 40.216 58.0103 40.728C58.0103 41.0053 58.0049 41.2667 57.9943 41.512C57.9836 41.7573 57.9516 42.0027 57.8983 42.248H52.0103ZM54.4263 38.328C54.0103 38.3387 53.6423 38.4133 53.3223 38.552C53.0023 38.6907 52.7409 38.8773 52.5383 39.112C52.3249 39.3467 52.1649 39.624 52.0583 39.944C51.9623 40.264 51.9303 40.6053 51.9623 40.968H56.6343C56.6769 40.0613 56.4956 39.4 56.0903 38.984C55.6956 38.568 55.1463 38.3493 54.4423 38.328H54.4263ZM65.7413 46.072L63.6293 42.744L61.6933 45.592C61.5119 45.912 61.2239 46.072 60.8293 46.072H59.6133L62.7653 41.528L59.9333 37.144H61.7893L63.7893 40.408L65.8853 37.144H67.5333L64.6373 41.368L67.2773 45.384C67.5759 45.8427 67.4693 46.072 66.9573 46.072H65.7413ZM72.3199 34.984V37.448H74.2239C74.4479 37.448 74.5599 37.5973 74.5599 37.896C74.5599 38.2053 74.5012 38.4347 74.3839 38.584C74.2665 38.7333 74.1012 38.808 73.8879 38.808H72.3199V43.72C72.3199 44.0613 72.4052 44.3013 72.5759 44.44C72.7465 44.568 72.9225 44.6533 73.1039 44.696C73.2532 44.7173 73.4185 44.728 73.5999 44.728C73.7919 44.728 73.9892 44.7227 74.1919 44.712C74.4052 44.7013 74.5279 44.9093 74.5599 45.336C74.5705 45.528 74.5439 45.6773 74.4799 45.784C74.4159 45.8907 74.3092 45.9707 74.1599 46.024C74.0745 46.0453 73.9572 46.072 73.8079 46.104C73.6692 46.1253 73.5199 46.1467 73.3599 46.168C73.1892 46.1893 73.0132 46.2 72.8319 46.2C72.6612 46.2 72.4959 46.1893 72.3359 46.168C72.0159 46.1253 71.7439 46.0347 71.5199 45.896C71.3065 45.7467 71.1305 45.56 70.9919 45.336C70.8532 45.1227 70.7519 44.8827 70.6879 44.616C70.6345 44.3387 70.6079 44.04 70.6079 43.72V38.808H69.0079V37.448H70.6079V35.416L72.3199 34.984Z" fill="#44392B" fill-opacity="0.5"/>
<path fill-rule="evenodd" clip-rule="evenodd" d="M90.8058 35.2121C91.172 34.846 91.7655 34.846 92.1317 35.2121L97.7567 40.8371C98.1228 41.2032 98.1228 41.7968 97.7567 42.1629L92.1317 47.7879C91.7655 48.154 91.172 48.154 90.8058 47.7879C90.4397 47.4218 90.4397 46.8282 90.8058 46.4621L94.8304 42.4375H84.9062C84.3885 42.4375 83.9688 42.0178 83.9688 41.5C83.9688 40.9822 84.3885 40.5625 84.9062 40.5625H94.8304L90.8058 36.5379C90.4397 36.1718 90.4397 35.5782 90.8058 35.2121Z" fill="#44392B" fill-opacity="0.5"/>
<rect x="20.5" y="89.5" width="100" height="42" rx="21" fill="white"/>
<rect x="20.5" y="89.5" width="100" height="42" rx="21" stroke="#44392B"/>
<path d="M42.368 113.216C42.368 114.496 42.0587 115.136 41.44 115.136H41.184C40.9173 115.136 40.784 114.981 40.784 114.672V103.904H42.256C43.1307 105.195 44 106.485 44.864 107.776C45.7387 109.056 46.608 110.341 47.472 111.632V103.904H49.04V114.336C49.04 114.816 48.848 115.056 48.464 115.056H47.84L42.368 106.752V113.216ZM52.0103 111.248C52.1596 112.101 52.5009 112.725 53.0343 113.12C53.5783 113.504 54.2503 113.701 55.0503 113.712C55.3809 113.712 55.7223 113.675 56.0743 113.6C56.4263 113.525 56.7463 113.419 57.0343 113.28C57.2796 113.184 57.4769 113.339 57.6263 113.744C57.7863 114.128 57.7489 114.384 57.5143 114.512C57.1409 114.715 56.6983 114.88 56.1863 115.008C55.6849 115.136 55.1836 115.189 54.6823 115.168C53.8289 115.157 53.1249 115.008 52.5703 114.72C52.0156 114.432 51.5783 114.043 51.2583 113.552C50.9276 113.072 50.6983 112.512 50.5703 111.872C50.4529 111.221 50.4103 110.533 50.4423 109.808C50.5063 108.603 50.8849 107.675 51.5783 107.024C52.2716 106.363 53.2049 106.032 54.3783 106.032C54.9543 106.032 55.4663 106.128 55.9143 106.32C56.3623 106.512 56.7409 106.773 57.0503 107.104C57.3596 107.435 57.5943 107.829 57.7543 108.288C57.9249 108.736 58.0103 109.216 58.0103 109.728C58.0103 110.005 58.0049 110.267 57.9943 110.512C57.9836 110.757 57.9516 111.003 57.8983 111.248H52.0103ZM54.4263 107.328C54.0103 107.339 53.6423 107.413 53.3223 107.552C53.0023 107.691 52.7409 107.877 52.5383 108.112C52.3249 108.347 52.1649 108.624 52.0583 108.944C51.9623 109.264 51.9303 109.605 51.9623 109.968H56.6343C56.6769 109.061 56.4956 108.4 56.0903 107.984C55.6956 107.568 55.1463 107.349 54.4423 107.328H54.4263ZM65.7413 115.072L63.6293 111.744L61.6933 114.592C61.5119 114.912 61.2239 115.072 60.8293 115.072H59.6133L62.7653 110.528L59.9333 106.144H61.7893L63.7893 109.408L65.8853 106.144H67.5333L64.6373 110.368L67.2773 114.384C67.5759 114.843 67.4693 115.072 66.9573 115.072H65.7413ZM72.3199 103.984V106.448H74.2239C74.4479 106.448 74.5599 106.597 74.5599 106.896C74.5599 107.205 74.5012 107.435 74.3839 107.584C74.2665 107.733 74.1012 107.808 73.8879 107.808H72.3199V112.72C72.3199 113.061 72.4052 113.301 72.5759 113.44C72.7465 113.568 72.9225 113.653 73.1039 113.696C73.2532 113.717 73.4185 113.728 73.5999 113.728C73.7919 113.728 73.9892 113.723 74.1919 113.712C74.4052 113.701 74.5279 113.909 74.5599 114.336C74.5705 114.528 74.5439 114.677 74.4799 114.784C74.4159 114.891 74.3092 114.971 74.1599 115.024C74.0745 115.045 73.9572 115.072 73.8079 115.104C73.6692 115.125 73.5199 115.147 73.3599 115.168C73.1892 115.189 73.0132 115.2 72.8319 115.2C72.6612 115.2 72.4959 115.189 72.3359 115.168C72.0159 115.125 71.7439 115.035 71.5199 114.896C71.3065 114.747 71.1305 114.56 70.9919 114.336C70.8532 114.123 70.7519 113.883 70.6879 113.616C70.6345 113.339 70.6079 113.04 70.6079 112.72V107.808H69.0079V106.448H70.6079V104.416L72.3199 103.984Z" fill="#44392B"/>
<path fill-rule="evenodd" clip-rule="evenodd" d="M90.8058 104.212C91.172 103.846 91.7655 103.846 92.1317 104.212L97.7567 109.837C98.1228 110.203 98.1228 110.797 97.7567 111.163L92.1317 116.788C91.7655 117.154 91.172 117.154 90.8058 116.788C90.4397 116.422 90.4397 115.828 90.8058 115.462L94.8304 111.438H84.9062C84.3885 111.438 83.9688 111.018 83.9688 110.5C83.9688 109.982 84.3885 109.562 84.9062 109.562H94.8304L90.8058 105.538C90.4397 105.172 90.4397 104.578 90.8058 104.212Z" fill="#44392B"/>
<rect x="20.5" y="158.5" width="100" height="42" rx="21" fill="#F8F2E2"/>
<rect x="20.5" y="158.5" width="100" height="42" rx="21" stroke="#44392B"/>
<path d="M42.368 182.216C42.368 183.496 42.0587 184.136 41.44 184.136H41.184C40.9173 184.136 40.784 183.981 40.784 183.672V172.904H42.256C43.1307 174.195 44 175.485 44.864 176.776C45.7387 178.056 46.608 179.341 47.472 180.632V172.904H49.04V183.336C49.04 183.816 48.848 184.056 48.464 184.056H47.84L42.368 175.752V182.216ZM52.0103 180.248C52.1596 181.101 52.5009 181.725 53.0343 182.12C53.5783 182.504 54.2503 182.701 55.0503 182.712C55.3809 182.712 55.7223 182.675 56.0743 182.6C56.4263 182.525 56.7463 182.419 57.0343 182.28C57.2796 182.184 57.4769 182.339 57.6263 182.744C57.7863 183.128 57.7489 183.384 57.5143 183.512C57.1409 183.715 56.6983 183.88 56.1863 184.008C55.6849 184.136 55.1836 184.189 54.6823 184.168C53.8289 184.157 53.1249 184.008 52.5703 183.72C52.0156 183.432 51.5783 183.043 51.2583 182.552C50.9276 182.072 50.6983 181.512 50.5703 180.872C50.4529 180.221 50.4103 179.533 50.4423 178.808C50.5063 177.603 50.8849 176.675 51.5783 176.024C52.2716 175.363 53.2049 175.032 54.3783 175.032C54.9543 175.032 55.4663 175.128 55.9143 175.32C56.3623 175.512 56.7409 175.773 57.0503 176.104C57.3596 176.435 57.5943 176.829 57.7543 177.288C57.9249 177.736 58.0103 178.216 58.0103 178.728C58.0103 179.005 58.0049 179.267 57.9943 179.512C57.9836 179.757 57.9516 180.003 57.8983 180.248H52.0103ZM54.4263 176.328C54.0103 176.339 53.6423 176.413 53.3223 176.552C53.0023 176.691 52.7409 176.877 52.5383 177.112C52.3249 177.347 52.1649 177.624 52.0583 177.944C51.9623 178.264 51.9303 178.605 51.9623 178.968H56.6343C56.6769 178.061 56.4956 177.4 56.0903 176.984C55.6956 176.568 55.1463 176.349 54.4423 176.328H54.4263ZM65.7413 184.072L63.6293 180.744L61.6933 183.592C61.5119 183.912 61.2239 184.072 60.8293 184.072H59.6133L62.7653 179.528L59.9333 175.144H61.7893L63.7893 178.408L65.8853 175.144H67.5333L64.6373 179.368L67.2773 183.384C67.5759 183.843 67.4693 184.072 66.9573 184.072H65.7413ZM72.3199 172.984V175.448H74.2239C74.4479 175.448 74.5599 175.597 74.5599 175.896C74.5599 176.205 74.5012 176.435 74.3839 176.584C74.2665 176.733 74.1012 176.808 73.8879 176.808H72.3199V181.72C72.3199 182.061 72.4052 182.301 72.5759 182.44C72.7465 182.568 72.9225 182.653 73.1039 182.696C73.2532 182.717 73.4185 182.728 73.5999 182.728C73.7919 182.728 73.9892 182.723 74.1919 182.712C74.4052 182.701 74.5279 182.909 74.5599 183.336C74.5705 183.528 74.5439 183.677 74.4799 183.784C74.4159 183.891 74.3092 183.971 74.1599 184.024C74.0745 184.045 73.9572 184.072 73.8079 184.104C73.6692 184.125 73.5199 184.147 73.3599 184.168C73.1892 184.189 73.0132 184.2 72.8319 184.2C72.6612 184.2 72.4959 184.189 72.3359 184.168C72.0159 184.125 71.7439 184.035 71.5199 183.896C71.3065 183.747 71.1305 183.56 70.9919 183.336C70.8532 183.123 70.7519 182.883 70.6879 182.616C70.6345 182.339 70.6079 182.04 70.6079 181.72V176.808H69.0079V175.448H70.6079V173.416L72.3199 172.984Z" fill="#44392B"/>
<path fill-rule="evenodd" clip-rule="evenodd" d="M90.8058 173.212C91.172 172.846 91.7655 172.846 92.1317 173.212L97.7567 178.837C98.1228 179.203 98.1228 179.797 97.7567 180.163L92.1317 185.788C91.7655 186.154 91.172 186.154 90.8058 185.788C90.4397 185.422 90.4397 184.828 90.8058 184.462L94.8304 180.438H84.9062C84.3885 180.438 83.9688 180.018 83.9688 179.5C83.9688 178.982 84.3885 178.562 84.9062 178.562H94.8304L90.8058 174.538C90.4397 174.172 90.4397 173.578 90.8058 173.212Z" fill="#44392B"/>
<rect x="20" y="227" width="100" height="43" rx="21.5" fill="#44392B"/>
<path d="M42.08 251.392C42.08 252.555 41.8293 253.136 41.328 253.136H41.136C40.9547 253.136 40.864 253.024 40.864 252.8V242.048H42.064C42.992 243.456 43.9147 244.853 44.832 246.24C45.7493 247.627 46.672 249.024 47.6 250.432V242.048H48.8V252.496C48.8 252.869 48.656 253.056 48.368 253.056H47.888L42.08 244.128V251.392ZM51.566 249.152C51.6727 250.155 51.998 250.896 52.542 251.376C53.086 251.856 53.8167 252.107 54.734 252.128C55.086 252.128 55.438 252.091 55.79 252.016C56.1527 251.931 56.4887 251.813 56.798 251.664C56.894 251.621 56.974 251.632 57.038 251.696C57.1127 251.76 57.1767 251.856 57.23 251.984C57.3367 252.251 57.2993 252.437 57.118 252.544C56.8087 252.725 56.4087 252.885 55.918 253.024C55.438 253.152 54.9207 253.205 54.366 253.184C53.566 253.173 52.8993 253.035 52.366 252.768C51.8433 252.491 51.4273 252.117 51.118 251.648C50.8087 251.189 50.59 250.656 50.462 250.048C50.334 249.44 50.2807 248.795 50.302 248.112C50.3233 246.885 50.654 245.925 51.294 245.232C51.9447 244.528 52.8887 244.176 54.126 244.176C54.67 244.176 55.1553 244.267 55.582 244.448C56.0087 244.619 56.3767 244.859 56.686 245.168C56.9847 245.488 57.214 245.861 57.374 246.288C57.534 246.715 57.614 247.184 57.614 247.696C57.614 247.984 57.6033 248.24 57.582 248.464C57.5713 248.688 57.5393 248.917 57.486 249.152H51.566ZM54.174 245.168C53.6833 245.189 53.262 245.28 52.91 245.44C52.5687 245.6 52.2913 245.813 52.078 246.08C51.8647 246.357 51.71 246.677 51.614 247.04C51.5287 247.403 51.4967 247.797 51.518 248.224H56.494C56.5473 247.733 56.526 247.301 56.43 246.928C56.334 246.555 56.1847 246.24 55.982 245.984C55.7687 245.728 55.5073 245.531 55.198 245.392C54.8887 245.253 54.5473 245.179 54.174 245.168ZM65.521 253.072L63.361 249.568L61.281 252.688C61.121 252.944 60.8757 253.072 60.545 253.072H59.585L62.673 248.64L59.937 244.288H61.393L63.457 247.728L65.649 244.288H66.929L64.113 248.512L66.769 252.624C66.8757 252.773 66.9077 252.885 66.865 252.96C66.8223 253.035 66.7263 253.072 66.577 253.072H65.521ZM71.8436 242.176V244.592H73.9076C73.993 244.592 74.0516 244.619 74.0836 244.672C74.1156 244.725 74.1316 244.795 74.1316 244.88C74.1316 245.136 74.0783 245.323 73.9716 245.44C73.865 245.547 73.737 245.6 73.5876 245.6H71.8436V250.896C71.8436 251.301 71.9396 251.589 72.1316 251.76C72.3343 251.92 72.5476 252.021 72.7716 252.064C72.921 252.085 73.097 252.091 73.2996 252.08C73.513 252.069 73.7103 252.053 73.8916 252.032C73.977 252.011 74.041 252.043 74.0836 252.128C74.1263 252.203 74.153 252.315 74.1636 252.464C74.1636 252.613 74.1316 252.725 74.0676 252.8C74.0143 252.875 73.929 252.939 73.8116 252.992C73.737 253.024 73.6303 253.056 73.4916 253.088C73.3636 253.109 73.2196 253.131 73.0596 253.152C72.8996 253.173 72.729 253.189 72.5476 253.2C72.377 253.2 72.2063 253.184 72.0356 253.152C71.4596 253.056 71.0596 252.805 70.8356 252.4C70.6116 251.984 70.4996 251.483 70.4996 250.896V245.6H68.8356V244.592H70.4996V242.512L71.8436 242.176Z" fill="#F8F2E2"/>
<path fill-rule="evenodd" clip-rule="evenodd" d="M89.8058 242.212C90.172 241.846 90.7655 241.846 91.1317 242.212L96.7567 247.837C97.1228 248.203 97.1228 248.797 96.7567 249.163L91.1317 254.788C90.7655 255.154 90.172 255.154 89.8058 254.788C89.4397 254.422 89.4397 253.828 89.8058 253.462L93.8304 249.438H83.9062C83.3885 249.438 82.9688 249.018 82.9688 248.5C82.9688 247.982 83.3885 247.562 83.9062 247.562H93.8304L89.8058 243.538C89.4397 243.172 89.4397 242.578 89.8058 242.212Z" fill="#F8F2E2"/>
</svg>
