<svg width="390" height="324" viewBox="0 0 390 324" fill="none" xmlns="http://www.w3.org/2000/svg">
<rect x="0.5" y="0.5" width="389" height="323" rx="4.5" stroke="#8A38F5" stroke-dasharray="10 5"/>
<rect x="20" y="20" width="350" height="60" rx="8" fill="#44392B" fill-opacity="0.5"/>
<path d="M167.584 43.404H173.664C173.856 43.404 173.952 43.5267 173.952 43.772C173.952 44.3053 173.776 44.572 173.424 44.572H168.992V50.908C168.992 51.1533 169.115 51.276 169.36 51.276H175.024C175.205 51.276 175.296 51.404 175.296 51.66C175.296 52.1933 175.12 52.46 174.768 52.46H168.768C167.979 52.46 167.584 52.0653 167.584 51.276V43.404ZM178.144 55.404C178.144 56.3747 177.872 56.86 177.328 56.86H177.104C176.859 56.86 176.736 56.7373 176.736 56.492V42.684H178.144V47.196H180.16C180.341 47.196 180.432 47.324 180.432 47.58C180.432 48.1453 180.267 48.428 179.936 48.428H178.144V55.404ZM187.35 42.46C188.107 42.46 188.795 42.5293 189.414 42.668C190.033 42.8067 190.561 42.9987 190.998 43.244C191.425 43.4893 191.75 43.7773 191.974 44.108C192.209 44.428 192.326 44.78 192.326 45.164C192.326 45.548 192.214 45.916 191.99 46.268C191.777 46.6093 191.462 46.908 191.046 47.164C190.619 47.4307 190.097 47.6387 189.478 47.788C188.87 47.9373 188.161 48.012 187.35 48.012C186.593 48.012 185.905 47.9427 185.286 47.804C184.667 47.6547 184.139 47.452 183.702 47.196C183.265 46.9507 182.929 46.6627 182.694 46.332C182.459 45.9907 182.342 45.628 182.342 45.244C182.342 44.86 182.454 44.5027 182.678 44.172C182.913 43.8307 183.249 43.532 183.686 43.276C184.123 43.02 184.651 42.8227 185.27 42.684C185.889 42.5347 186.582 42.46 187.35 42.46ZM187.334 46.844C187.825 46.844 188.289 46.8013 188.726 46.716C189.163 46.6307 189.542 46.5133 189.862 46.364C190.182 46.2147 190.433 46.044 190.614 45.852C190.806 45.66 190.902 45.452 190.902 45.228C190.902 45.004 190.806 44.796 190.614 44.604C190.433 44.4013 190.182 44.2253 189.862 44.076C189.531 43.9373 189.147 43.8253 188.71 43.74C188.283 43.6547 187.825 43.612 187.334 43.612C186.811 43.612 186.331 43.6547 185.894 43.74C185.457 43.8253 185.083 43.9373 184.774 44.076C184.454 44.2253 184.203 44.4013 184.022 44.604C183.851 44.796 183.766 45.004 183.766 45.228C183.766 45.452 183.851 45.66 184.022 45.852C184.203 46.044 184.454 46.2147 184.774 46.364C185.083 46.5133 185.457 46.6307 185.894 46.716C186.331 46.8013 186.811 46.844 187.334 46.844ZM180.694 49.18H193.702C193.894 49.18 193.99 49.308 193.99 49.564C193.99 50.0973 193.814 50.364 193.462 50.364H180.694V49.18ZM192.07 54.124C192.07 54.988 191.995 55.6333 191.846 56.06C191.707 56.4867 191.441 56.7 191.046 56.7H184.646C184.347 56.7 184.07 56.6893 183.814 56.668C183.558 56.6573 183.345 56.6147 183.174 56.54C183.003 56.4653 182.865 56.348 182.758 56.188C182.662 56.028 182.614 55.804 182.614 55.516V51.932H191.462C191.867 51.932 192.07 52.1293 192.07 52.524V54.124ZM190.342 55.516C190.566 55.516 190.678 55.308 190.678 54.892V53.116H184.022V55.148C184.022 55.3933 184.145 55.516 184.39 55.516H190.342ZM201.66 42.956C202.396 42.956 203.063 43.0467 203.66 43.228C204.258 43.3987 204.764 43.6333 205.18 43.932C205.586 44.2413 205.9 44.604 206.124 45.02C206.348 45.4253 206.46 45.868 206.46 46.348C206.46 46.828 206.354 47.2813 206.14 47.708C205.927 48.124 205.618 48.4867 205.212 48.796C204.807 49.116 204.306 49.372 203.708 49.564C203.111 49.7453 202.428 49.836 201.66 49.836C200.924 49.836 200.258 49.7507 199.66 49.58C199.063 49.3987 198.556 49.1533 198.14 48.844C197.724 48.5347 197.399 48.172 197.164 47.756C196.94 47.34 196.828 46.8973 196.828 46.428C196.828 45.948 196.94 45.4947 197.164 45.068C197.388 44.6413 197.708 44.2733 198.124 43.964C198.54 43.6547 199.047 43.4093 199.644 43.228C200.242 43.0467 200.914 42.956 201.66 42.956ZM201.644 48.684C202.114 48.684 202.556 48.6253 202.972 48.508C203.388 48.38 203.751 48.2093 204.06 47.996C204.37 47.7933 204.61 47.5533 204.78 47.276C204.951 46.9987 205.036 46.7053 205.036 46.396C205.036 46.076 204.946 45.7773 204.764 45.5C204.583 45.2227 204.343 44.9773 204.044 44.764C203.746 44.5613 203.388 44.4013 202.972 44.284C202.556 44.1667 202.114 44.108 201.644 44.108C201.143 44.108 200.684 44.1667 200.268 44.284C199.852 44.4013 199.495 44.5613 199.196 44.764C198.898 44.9773 198.663 45.2227 198.492 45.5C198.332 45.7773 198.252 46.076 198.252 46.396C198.252 46.7053 198.332 46.9987 198.492 47.276C198.663 47.5533 198.898 47.7933 199.196 47.996C199.495 48.2093 199.852 48.38 200.268 48.508C200.684 48.6253 201.143 48.684 201.644 48.684ZM195.004 52.876H208.012C208.204 52.876 208.3 53.0093 208.3 53.276C208.3 53.8307 208.124 54.108 207.772 54.108H195.004V52.876ZM211.314 46.284H219.01C219.149 46.284 219.218 46.1613 219.218 45.916V44.348H211.314V43.18H220.034C220.429 43.18 220.626 43.3773 220.626 43.772V45.612C220.626 46.828 220.317 47.436 219.698 47.436H212.722V49.164C212.722 49.3453 212.813 49.436 212.994 49.436H220.578C220.749 49.436 220.834 49.5587 220.834 49.804C220.834 50.3373 220.669 50.604 220.338 50.604H212.514C211.714 50.604 211.314 50.2093 211.314 49.42V46.284ZM216.674 51.132V53.356H222.338C222.52 53.356 222.61 53.4893 222.61 53.756C222.61 54.3107 222.44 54.588 222.098 54.588H209.33V53.356H215.266V51.132H216.674Z" fill="#F8F2E2" fill-opacity="0.5"/>
<rect x="20" y="101" width="350" height="60" rx="8" fill="#44392B"/>
<path d="M167.584 124.404H173.664C173.856 124.404 173.952 124.527 173.952 124.772C173.952 125.305 173.776 125.572 173.424 125.572H168.992V131.908C168.992 132.153 169.115 132.276 169.36 132.276H175.024C175.205 132.276 175.296 132.404 175.296 132.66C175.296 133.193 175.12 133.46 174.768 133.46H168.768C167.979 133.46 167.584 133.065 167.584 132.276V124.404ZM178.144 136.404C178.144 137.375 177.872 137.86 177.328 137.86H177.104C176.859 137.86 176.736 137.737 176.736 137.492V123.684H178.144V128.196H180.16C180.341 128.196 180.432 128.324 180.432 128.58C180.432 129.145 180.267 129.428 179.936 129.428H178.144V136.404ZM187.35 123.46C188.107 123.46 188.795 123.529 189.414 123.668C190.033 123.807 190.561 123.999 190.998 124.244C191.425 124.489 191.75 124.777 191.974 125.108C192.209 125.428 192.326 125.78 192.326 126.164C192.326 126.548 192.214 126.916 191.99 127.268C191.777 127.609 191.462 127.908 191.046 128.164C190.619 128.431 190.097 128.639 189.478 128.788C188.87 128.937 188.161 129.012 187.35 129.012C186.593 129.012 185.905 128.943 185.286 128.804C184.667 128.655 184.139 128.452 183.702 128.196C183.265 127.951 182.929 127.663 182.694 127.332C182.459 126.991 182.342 126.628 182.342 126.244C182.342 125.86 182.454 125.503 182.678 125.172C182.913 124.831 183.249 124.532 183.686 124.276C184.123 124.02 184.651 123.823 185.27 123.684C185.889 123.535 186.582 123.46 187.35 123.46ZM187.334 127.844C187.825 127.844 188.289 127.801 188.726 127.716C189.163 127.631 189.542 127.513 189.862 127.364C190.182 127.215 190.433 127.044 190.614 126.852C190.806 126.66 190.902 126.452 190.902 126.228C190.902 126.004 190.806 125.796 190.614 125.604C190.433 125.401 190.182 125.225 189.862 125.076C189.531 124.937 189.147 124.825 188.71 124.74C188.283 124.655 187.825 124.612 187.334 124.612C186.811 124.612 186.331 124.655 185.894 124.74C185.457 124.825 185.083 124.937 184.774 125.076C184.454 125.225 184.203 125.401 184.022 125.604C183.851 125.796 183.766 126.004 183.766 126.228C183.766 126.452 183.851 126.66 184.022 126.852C184.203 127.044 184.454 127.215 184.774 127.364C185.083 127.513 185.457 127.631 185.894 127.716C186.331 127.801 186.811 127.844 187.334 127.844ZM180.694 130.18H193.702C193.894 130.18 193.99 130.308 193.99 130.564C193.99 131.097 193.814 131.364 193.462 131.364H180.694V130.18ZM192.07 135.124C192.07 135.988 191.995 136.633 191.846 137.06C191.707 137.487 191.441 137.7 191.046 137.7H184.646C184.347 137.7 184.07 137.689 183.814 137.668C183.558 137.657 183.345 137.615 183.174 137.54C183.003 137.465 182.865 137.348 182.758 137.188C182.662 137.028 182.614 136.804 182.614 136.516V132.932H191.462C191.867 132.932 192.07 133.129 192.07 133.524V135.124ZM190.342 136.516C190.566 136.516 190.678 136.308 190.678 135.892V134.116H184.022V136.148C184.022 136.393 184.145 136.516 184.39 136.516H190.342ZM201.66 123.956C202.396 123.956 203.063 124.047 203.66 124.228C204.258 124.399 204.764 124.633 205.18 124.932C205.586 125.241 205.9 125.604 206.124 126.02C206.348 126.425 206.46 126.868 206.46 127.348C206.46 127.828 206.354 128.281 206.14 128.708C205.927 129.124 205.618 129.487 205.212 129.796C204.807 130.116 204.306 130.372 203.708 130.564C203.111 130.745 202.428 130.836 201.66 130.836C200.924 130.836 200.258 130.751 199.66 130.58C199.063 130.399 198.556 130.153 198.14 129.844C197.724 129.535 197.399 129.172 197.164 128.756C196.94 128.34 196.828 127.897 196.828 127.428C196.828 126.948 196.94 126.495 197.164 126.068C197.388 125.641 197.708 125.273 198.124 124.964C198.54 124.655 199.047 124.409 199.644 124.228C200.242 124.047 200.914 123.956 201.66 123.956ZM201.644 129.684C202.114 129.684 202.556 129.625 202.972 129.508C203.388 129.38 203.751 129.209 204.06 128.996C204.37 128.793 204.61 128.553 204.78 128.276C204.951 127.999 205.036 127.705 205.036 127.396C205.036 127.076 204.946 126.777 204.764 126.5C204.583 126.223 204.343 125.977 204.044 125.764C203.746 125.561 203.388 125.401 202.972 125.284C202.556 125.167 202.114 125.108 201.644 125.108C201.143 125.108 200.684 125.167 200.268 125.284C199.852 125.401 199.495 125.561 199.196 125.764C198.898 125.977 198.663 126.223 198.492 126.5C198.332 126.777 198.252 127.076 198.252 127.396C198.252 127.705 198.332 127.999 198.492 128.276C198.663 128.553 198.898 128.793 199.196 128.996C199.495 129.209 199.852 129.38 200.268 129.508C200.684 129.625 201.143 129.684 201.644 129.684ZM195.004 133.876H208.012C208.204 133.876 208.3 134.009 208.3 134.276C208.3 134.831 208.124 135.108 207.772 135.108H195.004V133.876ZM211.314 127.284H219.01C219.149 127.284 219.218 127.161 219.218 126.916V125.348H211.314V124.18H220.034C220.429 124.18 220.626 124.377 220.626 124.772V126.612C220.626 127.828 220.317 128.436 219.698 128.436H212.722V130.164C212.722 130.345 212.813 130.436 212.994 130.436H220.578C220.749 130.436 220.834 130.559 220.834 130.804C220.834 131.337 220.669 131.604 220.338 131.604H212.514C211.714 131.604 211.314 131.209 211.314 130.42V127.284ZM216.674 132.132V134.356H222.338C222.52 134.356 222.61 134.489 222.61 134.756C222.61 135.311 222.44 135.588 222.098 135.588H209.33V134.356H215.266V132.132H216.674Z" fill="#F8F2E2"/>
<rect x="20" y="176" width="350" height="60" rx="8" fill="#44392B" fill-opacity="0.8"/>
<path d="M167.584 199.404H173.664C173.856 199.404 173.952 199.527 173.952 199.772C173.952 200.305 173.776 200.572 173.424 200.572H168.992V206.908C168.992 207.153 169.115 207.276 169.36 207.276H175.024C175.205 207.276 175.296 207.404 175.296 207.66C175.296 208.193 175.12 208.46 174.768 208.46H168.768C167.979 208.46 167.584 208.065 167.584 207.276V199.404ZM178.144 211.404C178.144 212.375 177.872 212.86 177.328 212.86H177.104C176.859 212.86 176.736 212.737 176.736 212.492V198.684H178.144V203.196H180.16C180.341 203.196 180.432 203.324 180.432 203.58C180.432 204.145 180.267 204.428 179.936 204.428H178.144V211.404ZM187.35 198.46C188.107 198.46 188.795 198.529 189.414 198.668C190.033 198.807 190.561 198.999 190.998 199.244C191.425 199.489 191.75 199.777 191.974 200.108C192.209 200.428 192.326 200.78 192.326 201.164C192.326 201.548 192.214 201.916 191.99 202.268C191.777 202.609 191.462 202.908 191.046 203.164C190.619 203.431 190.097 203.639 189.478 203.788C188.87 203.937 188.161 204.012 187.35 204.012C186.593 204.012 185.905 203.943 185.286 203.804C184.667 203.655 184.139 203.452 183.702 203.196C183.265 202.951 182.929 202.663 182.694 202.332C182.459 201.991 182.342 201.628 182.342 201.244C182.342 200.86 182.454 200.503 182.678 200.172C182.913 199.831 183.249 199.532 183.686 199.276C184.123 199.02 184.651 198.823 185.27 198.684C185.889 198.535 186.582 198.46 187.35 198.46ZM187.334 202.844C187.825 202.844 188.289 202.801 188.726 202.716C189.163 202.631 189.542 202.513 189.862 202.364C190.182 202.215 190.433 202.044 190.614 201.852C190.806 201.66 190.902 201.452 190.902 201.228C190.902 201.004 190.806 200.796 190.614 200.604C190.433 200.401 190.182 200.225 189.862 200.076C189.531 199.937 189.147 199.825 188.71 199.74C188.283 199.655 187.825 199.612 187.334 199.612C186.811 199.612 186.331 199.655 185.894 199.74C185.457 199.825 185.083 199.937 184.774 200.076C184.454 200.225 184.203 200.401 184.022 200.604C183.851 200.796 183.766 201.004 183.766 201.228C183.766 201.452 183.851 201.66 184.022 201.852C184.203 202.044 184.454 202.215 184.774 202.364C185.083 202.513 185.457 202.631 185.894 202.716C186.331 202.801 186.811 202.844 187.334 202.844ZM180.694 205.18H193.702C193.894 205.18 193.99 205.308 193.99 205.564C193.99 206.097 193.814 206.364 193.462 206.364H180.694V205.18ZM192.07 210.124C192.07 210.988 191.995 211.633 191.846 212.06C191.707 212.487 191.441 212.7 191.046 212.7H184.646C184.347 212.7 184.07 212.689 183.814 212.668C183.558 212.657 183.345 212.615 183.174 212.54C183.003 212.465 182.865 212.348 182.758 212.188C182.662 212.028 182.614 211.804 182.614 211.516V207.932H191.462C191.867 207.932 192.07 208.129 192.07 208.524V210.124ZM190.342 211.516C190.566 211.516 190.678 211.308 190.678 210.892V209.116H184.022V211.148C184.022 211.393 184.145 211.516 184.39 211.516H190.342ZM201.66 198.956C202.396 198.956 203.063 199.047 203.66 199.228C204.258 199.399 204.764 199.633 205.18 199.932C205.586 200.241 205.9 200.604 206.124 201.02C206.348 201.425 206.46 201.868 206.46 202.348C206.46 202.828 206.354 203.281 206.14 203.708C205.927 204.124 205.618 204.487 205.212 204.796C204.807 205.116 204.306 205.372 203.708 205.564C203.111 205.745 202.428 205.836 201.66 205.836C200.924 205.836 200.258 205.751 199.66 205.58C199.063 205.399 198.556 205.153 198.14 204.844C197.724 204.535 197.399 204.172 197.164 203.756C196.94 203.34 196.828 202.897 196.828 202.428C196.828 201.948 196.94 201.495 197.164 201.068C197.388 200.641 197.708 200.273 198.124 199.964C198.54 199.655 199.047 199.409 199.644 199.228C200.242 199.047 200.914 198.956 201.66 198.956ZM201.644 204.684C202.114 204.684 202.556 204.625 202.972 204.508C203.388 204.38 203.751 204.209 204.06 203.996C204.37 203.793 204.61 203.553 204.78 203.276C204.951 202.999 205.036 202.705 205.036 202.396C205.036 202.076 204.946 201.777 204.764 201.5C204.583 201.223 204.343 200.977 204.044 200.764C203.746 200.561 203.388 200.401 202.972 200.284C202.556 200.167 202.114 200.108 201.644 200.108C201.143 200.108 200.684 200.167 200.268 200.284C199.852 200.401 199.495 200.561 199.196 200.764C198.898 200.977 198.663 201.223 198.492 201.5C198.332 201.777 198.252 202.076 198.252 202.396C198.252 202.705 198.332 202.999 198.492 203.276C198.663 203.553 198.898 203.793 199.196 203.996C199.495 204.209 199.852 204.38 200.268 204.508C200.684 204.625 201.143 204.684 201.644 204.684ZM195.004 208.876H208.012C208.204 208.876 208.3 209.009 208.3 209.276C208.3 209.831 208.124 210.108 207.772 210.108H195.004V208.876ZM211.314 202.284H219.01C219.149 202.284 219.218 202.161 219.218 201.916V200.348H211.314V199.18H220.034C220.429 199.18 220.626 199.377 220.626 199.772V201.612C220.626 202.828 220.317 203.436 219.698 203.436H212.722V205.164C212.722 205.345 212.813 205.436 212.994 205.436H220.578C220.749 205.436 220.834 205.559 220.834 205.804C220.834 206.337 220.669 206.604 220.338 206.604H212.514C211.714 206.604 211.314 206.209 211.314 205.42V202.284ZM216.674 207.132V209.356H222.338C222.52 209.356 222.61 209.489 222.61 209.756C222.61 210.311 222.44 210.588 222.098 210.588H209.33V209.356H215.266V207.132H216.674Z" fill="#F8F2E2"/>
<rect x="20" y="252" width="350" height="60" rx="8" fill="#44392B" fill-opacity="0.9"/>
<path d="M167.584 275.404H173.664C173.856 275.404 173.952 275.527 173.952 275.772C173.952 276.305 173.776 276.572 173.424 276.572H168.992V282.908C168.992 283.153 169.115 283.276 169.36 283.276H175.024C175.205 283.276 175.296 283.404 175.296 283.66C175.296 284.193 175.12 284.46 174.768 284.46H168.768C167.979 284.46 167.584 284.065 167.584 283.276V275.404ZM178.144 287.404C178.144 288.375 177.872 288.86 177.328 288.86H177.104C176.859 288.86 176.736 288.737 176.736 288.492V274.684H178.144V279.196H180.16C180.341 279.196 180.432 279.324 180.432 279.58C180.432 280.145 180.267 280.428 179.936 280.428H178.144V287.404ZM187.35 274.46C188.107 274.46 188.795 274.529 189.414 274.668C190.033 274.807 190.561 274.999 190.998 275.244C191.425 275.489 191.75 275.777 191.974 276.108C192.209 276.428 192.326 276.78 192.326 277.164C192.326 277.548 192.214 277.916 191.99 278.268C191.777 278.609 191.462 278.908 191.046 279.164C190.619 279.431 190.097 279.639 189.478 279.788C188.87 279.937 188.161 280.012 187.35 280.012C186.593 280.012 185.905 279.943 185.286 279.804C184.667 279.655 184.139 279.452 183.702 279.196C183.265 278.951 182.929 278.663 182.694 278.332C182.459 277.991 182.342 277.628 182.342 277.244C182.342 276.86 182.454 276.503 182.678 276.172C182.913 275.831 183.249 275.532 183.686 275.276C184.123 275.02 184.651 274.823 185.27 274.684C185.889 274.535 186.582 274.46 187.35 274.46ZM187.334 278.844C187.825 278.844 188.289 278.801 188.726 278.716C189.163 278.631 189.542 278.513 189.862 278.364C190.182 278.215 190.433 278.044 190.614 277.852C190.806 277.66 190.902 277.452 190.902 277.228C190.902 277.004 190.806 276.796 190.614 276.604C190.433 276.401 190.182 276.225 189.862 276.076C189.531 275.937 189.147 275.825 188.71 275.74C188.283 275.655 187.825 275.612 187.334 275.612C186.811 275.612 186.331 275.655 185.894 275.74C185.457 275.825 185.083 275.937 184.774 276.076C184.454 276.225 184.203 276.401 184.022 276.604C183.851 276.796 183.766 277.004 183.766 277.228C183.766 277.452 183.851 277.66 184.022 277.852C184.203 278.044 184.454 278.215 184.774 278.364C185.083 278.513 185.457 278.631 185.894 278.716C186.331 278.801 186.811 278.844 187.334 278.844ZM180.694 281.18H193.702C193.894 281.18 193.99 281.308 193.99 281.564C193.99 282.097 193.814 282.364 193.462 282.364H180.694V281.18ZM192.07 286.124C192.07 286.988 191.995 287.633 191.846 288.06C191.707 288.487 191.441 288.7 191.046 288.7H184.646C184.347 288.7 184.07 288.689 183.814 288.668C183.558 288.657 183.345 288.615 183.174 288.54C183.003 288.465 182.865 288.348 182.758 288.188C182.662 288.028 182.614 287.804 182.614 287.516V283.932H191.462C191.867 283.932 192.07 284.129 192.07 284.524V286.124ZM190.342 287.516C190.566 287.516 190.678 287.308 190.678 286.892V285.116H184.022V287.148C184.022 287.393 184.145 287.516 184.39 287.516H190.342ZM201.66 274.956C202.396 274.956 203.063 275.047 203.66 275.228C204.258 275.399 204.764 275.633 205.18 275.932C205.586 276.241 205.9 276.604 206.124 277.02C206.348 277.425 206.46 277.868 206.46 278.348C206.46 278.828 206.354 279.281 206.14 279.708C205.927 280.124 205.618 280.487 205.212 280.796C204.807 281.116 204.306 281.372 203.708 281.564C203.111 281.745 202.428 281.836 201.66 281.836C200.924 281.836 200.258 281.751 199.66 281.58C199.063 281.399 198.556 281.153 198.14 280.844C197.724 280.535 197.399 280.172 197.164 279.756C196.94 279.34 196.828 278.897 196.828 278.428C196.828 277.948 196.94 277.495 197.164 277.068C197.388 276.641 197.708 276.273 198.124 275.964C198.54 275.655 199.047 275.409 199.644 275.228C200.242 275.047 200.914 274.956 201.66 274.956ZM201.644 280.684C202.114 280.684 202.556 280.625 202.972 280.508C203.388 280.38 203.751 280.209 204.06 279.996C204.37 279.793 204.61 279.553 204.78 279.276C204.951 278.999 205.036 278.705 205.036 278.396C205.036 278.076 204.946 277.777 204.764 277.5C204.583 277.223 204.343 276.977 204.044 276.764C203.746 276.561 203.388 276.401 202.972 276.284C202.556 276.167 202.114 276.108 201.644 276.108C201.143 276.108 200.684 276.167 200.268 276.284C199.852 276.401 199.495 276.561 199.196 276.764C198.898 276.977 198.663 277.223 198.492 277.5C198.332 277.777 198.252 278.076 198.252 278.396C198.252 278.705 198.332 278.999 198.492 279.276C198.663 279.553 198.898 279.793 199.196 279.996C199.495 280.209 199.852 280.38 200.268 280.508C200.684 280.625 201.143 280.684 201.644 280.684ZM195.004 284.876H208.012C208.204 284.876 208.3 285.009 208.3 285.276C208.3 285.831 208.124 286.108 207.772 286.108H195.004V284.876ZM211.314 278.284H219.01C219.149 278.284 219.218 278.161 219.218 277.916V276.348H211.314V275.18H220.034C220.429 275.18 220.626 275.377 220.626 275.772V277.612C220.626 278.828 220.317 279.436 219.698 279.436H212.722V281.164C212.722 281.345 212.813 281.436 212.994 281.436H220.578C220.749 281.436 220.834 281.559 220.834 281.804C220.834 282.337 220.669 282.604 220.338 282.604H212.514C211.714 282.604 211.314 282.209 211.314 281.42V278.284ZM216.674 283.132V285.356H222.338C222.52 285.356 222.61 285.489 222.61 285.756C222.61 286.311 222.44 286.588 222.098 286.588H209.33V285.356H215.266V283.132H216.674Z" fill="#F8F2E2"/>
</svg>
