<svg width="111" height="65" viewBox="0 0 111 65" fill="none" xmlns="http://www.w3.org/2000/svg">
<rect x="0.5" y="0.5" width="110" height="64" rx="4.5" stroke="#8A38F5" stroke-dasharray="10 5"/>
<path d="M29.27 42.88L28.37 42.7C28.09 42.64 27.84 42.59 27.62 42.55C27.42 42.49 27.25 42.44 27.11 42.4C26.97 42.36 26.82 42.32 26.66 42.28C26.52 42.22 26.37 42.17 26.21 42.13L25.34 41.89C25.18 41.85 25.01 41.81 24.83 41.77C24.65 41.71 24.47 41.66 24.29 41.62C23.97 41.18 23.68 40.77 23.42 40.39C23.18 39.99 22.97 39.61 22.79 39.25C22.61 38.91 22.46 38.63 22.34 38.41C22.22 38.19 22.13 38.04 22.07 37.96L21.53 37C21.57 36.84 21.61 36.7 21.65 36.58C21.71 36.44 21.75 36.3 21.77 36.16L21.95 35.5C21.97 35.42 22 35.31 22.04 35.17C22.08 35.01 22.12 34.81 22.16 34.57C22.2 34.33 22.26 34.04 22.34 33.7C22.42 33.34 22.51 32.92 22.61 32.44C22.93 32.26 23.24 32.09 23.54 31.93C23.84 31.75 24.12 31.59 24.38 31.45L25.04 31.09C25.34 30.93 25.59 30.79 25.79 30.67C25.99 30.53 26.13 30.43 26.21 30.37C26.33 30.27 26.5 30.16 26.72 30.04L27.44 29.62C28.14 29.22 28.71 28.91 29.15 28.69C29.61 28.45 29.94 28.29 30.14 28.21C30.36 28.13 30.6 28.02 30.86 27.88C31.14 27.72 31.47 27.53 31.85 27.31L34.25 25.87L35.45 25.18C35.89 24.92 36.34 24.71 36.8 24.55C37.28 24.39 37.7 24.27 38.06 24.19C38.42 24.09 38.65 24.04 38.75 24.04L40.07 23.98C40.07 23.98 40.29 23.98 40.73 23.98C41.17 23.96 41.71 23.94 42.35 23.92C43.01 23.88 43.65 23.85 44.27 23.83C44.91 23.81 45.44 23.8 45.86 23.8C46.28 23.78 46.47 23.77 46.43 23.77H47.03C47.59 23.77 47.96 23.82 48.14 23.92C48.32 24 48.41 24.14 48.41 24.34C48.41 24.46 48.38 24.59 48.32 24.73C48.28 24.87 48.22 25.01 48.14 25.15L47.69 25.9L46.79 27.55C46.69 27.77 46.56 28 46.4 28.24L45.74 29.41C45.7 29.49 45.66 29.57 45.62 29.65C45.58 29.73 45.54 29.8 45.5 29.86C45.48 29.9 45.44 29.97 45.38 30.07C45.34 30.15 45.29 30.25 45.23 30.37L44.39 32.08C43.83 33.22 43.37 33.86 43.01 34C42.85 34.06 42.61 34.19 42.29 34.39C41.97 34.57 41.58 34.81 41.12 35.11L40.04 35.8C39.84 35.92 39.68 36.02 39.56 36.1C39.46 36.18 39.39 36.24 39.35 36.28C39.29 36.32 39.22 36.37 39.14 36.43C39.08 36.47 39 36.52 38.9 36.58L35.63 38.65C35.53 38.73 35.43 38.8 35.33 38.86C35.25 38.9 35.19 38.94 35.15 38.98L31.97 41.11C31.57 41.37 31.14 41.65 30.68 41.95C30.24 42.23 29.77 42.54 29.27 42.88ZM42.89 32.5C43.07 32.26 43.29 31.88 43.55 31.36L44.54 29.44L44.69 29.14C44.73 29.1 44.82 28.96 44.96 28.72C45.12 28.48 45.33 28.14 45.59 27.7C46.11 26.82 46.37 26.27 46.37 26.05C46.37 25.81 46.28 25.56 46.1 25.3C45.92 25.02 45.77 24.85 45.65 24.79C45.55 24.71 45.31 24.67 44.93 24.67C44.65 24.67 44.36 24.69 44.06 24.73C43.78 24.75 43.5 24.78 43.22 24.82C42.94 24.84 42.6 24.87 42.2 24.91C41.82 24.93 41.38 24.94 40.88 24.94H40.19C40.05 24.94 39.87 24.95 39.65 24.97C39.45 24.97 39.27 24.98 39.11 25L38.45 25.06C39.09 25.56 39.5 25.82 39.68 25.84C39.78 25.86 39.88 25.88 39.98 25.9C40.08 25.9 40.2 25.9 40.34 25.9H40.79C40.87 25.9 40.94 25.9 41 25.9C41.06 25.9 41.13 25.89 41.21 25.87L41.63 25.84C41.37 25.96 41.13 26.1 40.91 26.26C40.69 26.4 40.58 26.54 40.58 26.68C40.58 26.76 40.62 26.84 40.7 26.92C40.78 27 40.93 27.04 41.15 27.04C41.41 27.04 41.75 26.99 42.17 26.89C42.61 26.77 43.11 26.62 43.67 26.44C43.37 26.64 43.05 26.89 42.71 27.19C42.37 27.47 42.17 27.66 42.11 27.76L41.87 28.15C41.79 28.29 41.75 28.46 41.75 28.66C41.75 28.84 41.81 29.03 41.93 29.23C42.07 29.43 42.26 29.53 42.5 29.53C42.64 29.53 42.78 29.49 42.92 29.41L43.49 29.2C43.41 29.28 43.33 29.38 43.25 29.5C43.19 29.6 43.14 29.72 43.1 29.86C43.06 29.98 43 30.1 42.92 30.22C42.86 30.32 42.8 30.42 42.74 30.52C42.62 30.72 42.56 30.98 42.56 31.3C42.56 31.5 42.59 31.71 42.65 31.93C42.73 32.15 42.81 32.34 42.89 32.5ZM27.83 33.1L28.13 32.98L28.85 32.56C28.99 32.48 29.12 32.42 29.24 32.38C29.38 32.32 29.49 32.28 29.57 32.26C29.77 32.22 30.04 32.1 30.38 31.9C30.74 31.7 31.09 31.46 31.43 31.18C31.59 31.04 31.75 30.92 31.91 30.82C32.09 30.7 32.27 30.59 32.45 30.49C32.81 30.27 33.09 30.08 33.29 29.92L33.59 29.68C33.63 29.64 33.67 29.61 33.71 29.59C33.75 29.55 33.79 29.52 33.83 29.5L34.64 29.05L35.09 28.81C35.17 28.77 35.23 28.74 35.27 28.72C35.33 28.7 35.37 28.68 35.39 28.66L36.26 28.03L36.8 27.61C37.06 27.41 37.35 27.21 37.67 27.01L38.12 26.74C38.22 26.7 38.32 26.66 38.42 26.62C38.52 26.56 38.61 26.5 38.69 26.44L36.95 25.36C36.81 25.44 36.66 25.52 36.5 25.6C36.36 25.66 36.22 25.73 36.08 25.81L35.36 26.2C35.16 26.3 34.97 26.4 34.79 26.5C34.63 26.6 34.47 26.7 34.31 26.8L33.14 27.61C33.04 27.69 32.95 27.75 32.87 27.79C32.79 27.83 32.73 27.87 32.69 27.91C32.67 27.93 32.61 27.96 32.51 28C32.43 28.04 32.32 28.1 32.18 28.18L31.28 28.69C30.94 28.89 30.65 29.05 30.41 29.17C30.17 29.29 29.98 29.39 29.84 29.47C29.7 29.55 29.53 29.65 29.33 29.77C29.15 29.87 28.92 29.99 28.64 30.13L27.77 30.58L26.84 31.12C26.46 31.32 26.06 31.54 25.64 31.78C25.24 32 24.81 32.24 24.35 32.5C24.69 32.5 24.98 32.52 25.22 32.56C25.46 32.6 25.66 32.64 25.82 32.68C25.98 32.72 26.11 32.76 26.21 32.8C26.31 32.84 26.38 32.86 26.42 32.86L27.02 32.98C27.16 33 27.29 33.02 27.41 33.04C27.55 33.04 27.69 33.06 27.83 33.1ZM30.29 36.88C30.37 36.84 30.44 36.8 30.5 36.76C30.58 36.72 30.65 36.69 30.71 36.67L31.1 36.43L31.82 35.95C32.24 35.67 32.64 35.45 33.02 35.29C33.18 35.23 33.44 35.1 33.8 34.9C34.18 34.68 34.66 34.38 35.24 34L37.31 32.68C37.39 32.64 37.47 32.6 37.55 32.56C37.63 32.5 37.73 32.44 37.85 32.38L39.38 31.57C39.5 31.51 39.6 31.45 39.68 31.39C39.78 31.33 39.87 31.28 39.95 31.24L40.43 30.94C40.53 30.88 40.69 30.78 40.91 30.64C41.15 30.48 41.33 30.36 41.45 30.28C41.41 30.06 41.36 29.86 41.3 29.68C41.26 29.48 41.21 29.28 41.15 29.08C41.01 28.72 40.91 28.51 40.85 28.45L40.31 27.88L40.01 27.55C39.87 27.41 39.77 27.3 39.71 27.22L39.35 27.43C39.33 27.45 39.3 27.47 39.26 27.49C39.24 27.51 39.21 27.52 39.17 27.52C39.13 27.52 39.03 27.57 38.87 27.67L38.36 27.97L37.82 28.3C37.12 28.74 36.53 29.07 36.05 29.29C35.57 29.51 35.29 29.66 35.21 29.74L34.82 30.1C34.72 30.2 34.61 30.29 34.49 30.37C34.39 30.45 34.22 30.55 33.98 30.67L32.87 31.21L32.45 31.42C32.37 31.44 32.24 31.52 32.06 31.66C31.9 31.78 31.73 31.92 31.55 32.08L31.07 32.5C30.79 32.76 30.52 32.93 30.26 33.01C30.14 33.07 30.02 33.14 29.9 33.22C29.78 33.28 29.66 33.34 29.54 33.4L29.15 33.61C29.07 33.67 28.98 33.73 28.88 33.79C28.8 33.83 28.71 33.88 28.61 33.94L28.73 34.21C28.75 34.23 28.76 34.26 28.76 34.3C28.78 34.34 28.8 34.38 28.82 34.42L28.91 34.6C28.93 34.68 29.02 34.78 29.18 34.9C29.36 35.04 29.51 35.24 29.63 35.5L30.05 36.37C30.09 36.45 30.13 36.54 30.17 36.64C30.21 36.72 30.25 36.8 30.29 36.88ZM29.99 41.02C30.09 40.96 30.19 40.9 30.29 40.84C30.41 40.78 30.54 40.71 30.68 40.63C30.8 40.57 30.91 40.51 31.01 40.45C31.11 40.39 31.19 40.35 31.25 40.33L31.67 40.12C31.81 40.04 32.02 39.9 32.3 39.7C32.6 39.5 32.97 39.24 33.41 38.92C33.85 38.58 34.24 38.28 34.58 38.02C34.94 37.76 35.26 37.54 35.54 37.36L36.41 36.82C36.55 36.72 36.69 36.62 36.83 36.52C36.99 36.42 37.14 36.33 37.28 36.25C37.44 36.15 37.57 36.07 37.67 36.01C37.79 35.93 37.87 35.87 37.91 35.83L38.27 35.62C38.31 35.6 38.36 35.58 38.42 35.56C38.48 35.52 38.54 35.48 38.6 35.44C38.66 35.4 38.73 35.35 38.81 35.29C38.89 35.23 38.97 35.18 39.05 35.14L39.59 34.84C39.67 34.76 39.92 34.61 40.34 34.39C40.78 34.15 41.37 33.74 42.11 33.16L41.75 31.36L41.33 31.57C41.29 31.59 41.24 31.62 41.18 31.66C41.12 31.68 41.06 31.71 41 31.75L40.67 31.9C40.59 31.92 40.45 32 40.25 32.14L38.96 32.89C38.86 32.95 38.76 33.01 38.66 33.07C38.58 33.11 38.49 33.15 38.39 33.19C38.29 33.25 38.17 33.32 38.03 33.4C37.89 33.48 37.74 33.6 37.58 33.76L37.19 34.09C37.05 34.19 36.95 34.26 36.89 34.3L36.23 34.63C36.05 34.71 35.9 34.77 35.78 34.81C35.66 34.83 35.56 34.85 35.48 34.87C35.3 34.91 35.08 35.06 34.82 35.32L34.49 35.62C34.25 35.86 33.94 36.03 33.56 36.13C33.2 36.21 32.9 36.37 32.66 36.61C32.42 36.85 32.11 37.05 31.73 37.21C31.31 37.41 30.89 37.7 30.47 38.08C30.45 38.18 30.43 38.29 30.41 38.41C30.39 38.51 30.36 38.61 30.32 38.71C30.3 38.79 30.28 38.88 30.26 38.98C30.24 39.06 30.22 39.14 30.2 39.22L30.11 39.58C30.09 39.66 30.07 39.78 30.05 39.94C30.05 40.1 30.04 40.26 30.02 40.42L29.99 41.02ZM28.73 41.56C28.73 41.52 28.75 41.44 28.79 41.32C28.83 41.2 28.86 41.12 28.88 41.08L29.03 40.78C29.09 40.64 29.14 40.4 29.18 40.06C29.24 39.7 29.28 39.36 29.3 39.04L29.33 38.62C29.37 38.44 29.4 38.26 29.42 38.08C29.46 37.9 29.49 37.8 29.51 37.78C29.47 37.74 29.44 37.69 29.42 37.63C29.4 37.57 29.37 37.51 29.33 37.45L29.21 37.21C29.19 37.17 29.17 37.13 29.15 37.09C29.13 37.05 29.11 37.02 29.09 37L28.67 36.43C28.53 36.23 28.41 36.06 28.31 35.92C28.21 35.76 28.14 35.62 28.1 35.5C28.06 35.36 28.01 35.24 27.95 35.14C27.89 35.04 27.84 34.96 27.8 34.9L27.65 34.63L27.5 34.3C27.48 34.26 27.46 34.21 27.44 34.15C27.42 34.09 27.39 34.02 27.35 33.94L26.03 33.76L25.52 33.67L24.65 33.55C24.63 33.55 24.46 33.53 24.14 33.49C23.84 33.43 23.61 33.38 23.45 33.34C23.43 33.48 23.4 33.63 23.36 33.79C23.34 33.93 23.32 34.06 23.3 34.18L23.18 34.84C23.16 35.02 23.13 35.16 23.09 35.26C23.07 35.3 23.04 35.42 23 35.62L22.85 36.13L22.73 36.76L22.97 37.3C23.05 37.44 23.11 37.57 23.15 37.69C23.21 37.79 23.26 37.88 23.3 37.96C23.34 38.02 23.38 38.09 23.42 38.17C23.48 38.23 23.54 38.31 23.6 38.41L24.05 39.19C24.07 39.25 24.15 39.36 24.29 39.52C24.33 39.6 24.38 39.7 24.44 39.82C24.52 39.94 24.6 40.08 24.68 40.24L24.95 40.84C25.37 40.96 25.9 41.08 26.54 41.2C27.2 41.3 27.7 41.38 28.04 41.44L28.73 41.56ZM26.69 39.22C26.25 39.22 25.85 39.08 25.49 38.8C25.13 38.5 24.84 38.13 24.62 37.69C24.42 37.25 24.32 36.83 24.32 36.43C24.32 36.09 24.42 35.81 24.62 35.59C24.84 35.35 25.08 35.23 25.34 35.23C25.72 35.23 26.08 35.42 26.42 35.8C26.78 36.16 27.07 36.58 27.29 37.06C27.53 37.54 27.65 37.95 27.65 38.29C27.65 38.91 27.33 39.22 26.69 39.22Z" fill="black"/>
<path d="M79.29 42.61C78.09 42.61 77.38 42.5 77.16 42.28C77.06 42.18 76.77 41.99 76.29 41.71C75.83 41.43 75.16 41.07 74.28 40.63C74.08 40.53 73.72 40.34 73.2 40.06C72.68 39.76 72.07 39.44 71.37 39.1C71.27 39.04 71.1 38.95 70.86 38.83C70.64 38.71 70.41 38.59 70.17 38.47C69.93 38.33 69.75 38.23 69.63 38.17L69.09 37.9C69.05 37.88 68.99 37.85 68.91 37.81C68.83 37.77 68.74 37.72 68.64 37.66L67.8 37.24C67.66 37.16 67.5 37.07 67.32 36.97C67.16 36.87 66.99 36.78 66.81 36.7L62.85 34.6C62.69 34.14 62.55 33.72 62.43 33.34C62.31 32.96 62.23 32.62 62.19 32.32C62.15 32.02 62.07 31.65 61.95 31.21C61.83 30.77 61.69 30.26 61.53 29.68C61.77 29.16 61.99 28.71 62.19 28.33C62.39 27.93 62.57 27.62 62.73 27.4C62.85 27.24 62.98 27.06 63.12 26.86C63.26 26.64 63.45 26.34 63.69 25.96C63.79 25.82 63.88 25.67 63.96 25.51C64.06 25.33 64.15 25.16 64.23 25C64.39 24.96 64.6 24.9 64.86 24.82C65.12 24.74 65.32 24.69 65.46 24.67C65.8 24.61 66.19 24.51 66.63 24.37C67.07 24.23 67.42 24.12 67.68 24.04C67.96 23.94 68.31 23.84 68.73 23.74L70.92 25.09C71.4 25.39 71.86 25.65 72.3 25.87C72.74 26.09 73.16 26.33 73.56 26.59L74.4 27.13C75 27.51 75.46 27.81 75.78 28.03C76.12 28.25 76.33 28.4 76.41 28.48C76.49 28.56 76.65 28.67 76.89 28.81C77.13 28.95 77.45 29.14 77.85 29.38C78.45 29.74 79.05 30.1 79.65 30.46C80.27 30.8 80.88 31.15 81.48 31.51C81.86 31.75 82.17 31.96 82.41 32.14C82.65 32.34 82.94 32.63 83.28 33.01C83.62 33.37 83.91 33.75 84.15 34.15L85.8 36.91C86.66 38.35 87.31 39.45 87.75 40.21C88.21 40.97 88.45 41.4 88.47 41.5C88.53 41.68 88.56 41.82 88.56 41.92C88.56 42.14 88.46 42.29 88.26 42.37C88.08 42.45 87.85 42.49 87.57 42.49C87.23 42.49 86.88 42.5 86.52 42.52C86.16 42.52 85.81 42.52 85.47 42.52L80.13 42.58C79.99 42.58 79.85 42.59 79.71 42.61C79.57 42.61 79.43 42.61 79.29 42.61ZM63.75 33.52C63.79 33.52 63.83 33.52 63.87 33.52C63.91 33.5 63.95 33.49 63.99 33.49L64.59 33.4C64.83 33.4 65.21 33.27 65.73 33.01C65.97 32.89 66.28 32.76 66.66 32.62C67.04 32.46 67.29 32.38 67.41 32.38C67.45 32.34 67.55 32.18 67.71 31.9C67.89 31.6 67.99 31.41 68.01 31.33L68.16 30.94C68.24 30.72 68.33 30.54 68.43 30.4C68.55 30.24 68.65 30.11 68.73 30.01C68.91 29.79 69.06 29.58 69.18 29.38C69.24 29.28 69.31 29.17 69.39 29.05C69.49 28.91 69.61 28.76 69.75 28.6C69.73 28.52 69.68 28.37 69.6 28.15C69.52 27.93 69.4 27.64 69.24 27.28C68.94 26.56 68.75 26.08 68.67 25.84L68.37 24.88L67.56 25.18C67.36 25.26 67.16 25.34 66.96 25.42C66.76 25.48 66.61 25.52 66.51 25.54L65.01 25.96C64.97 26.02 64.87 26.17 64.71 26.41C64.57 26.63 64.48 26.77 64.44 26.83L63.57 28.21C63.43 28.45 63.27 28.72 63.09 29.02C62.91 29.3 62.73 29.58 62.55 29.86L62.97 31.27C63.05 31.53 63.12 31.73 63.18 31.87C63.24 31.99 63.29 32.12 63.33 32.26L63.75 33.52ZM81.87 34.9V32.86L79.83 31.54C79.69 31.44 79.52 31.34 79.32 31.24C79.12 31.12 78.91 31.01 78.69 30.91L78.09 30.61C78.01 30.57 77.93 30.53 77.85 30.49C77.77 30.45 77.71 30.42 77.67 30.4L75.36 28.93C75.22 28.83 75.09 28.75 74.97 28.69C74.87 28.63 74.79 28.58 74.73 28.54L69.57 25.3L69.84 25.99C69.9 26.15 69.96 26.32 70.02 26.5C70.08 26.66 70.11 26.78 70.11 26.86C70.11 26.94 70.14 27.1 70.2 27.34C70.28 27.58 70.37 27.82 70.47 28.06C70.57 28.28 70.64 28.45 70.68 28.57C70.78 28.71 71.02 28.89 71.4 29.11C71.62 29.21 71.8 29.31 71.94 29.41C72.08 29.51 72.19 29.61 72.27 29.71C72.45 29.89 72.66 30.06 72.9 30.22L73.26 30.46C73.38 30.54 73.5 30.61 73.62 30.67C73.76 30.73 73.87 30.78 73.95 30.82C74.31 30.94 74.54 31.03 74.64 31.09C74.76 31.15 74.97 31.27 75.27 31.45C75.39 31.53 75.52 31.61 75.66 31.69C75.8 31.75 75.95 31.81 76.11 31.87C76.37 31.95 76.61 32.06 76.83 32.2C77.07 32.34 77.45 32.58 77.97 32.92L79.89 33.82C80.09 33.9 80.27 33.99 80.43 34.09C80.59 34.17 80.72 34.24 80.82 34.3L81.87 34.9ZM65.55 31.12C65.25 31.12 65 30.98 64.8 30.7C64.62 30.4 64.53 30.06 64.53 29.68C64.53 29.24 64.65 28.82 64.89 28.42C65.13 28 65.41 27.66 65.73 27.4C66.07 27.12 66.39 26.98 66.69 26.98C67.05 26.98 67.32 27.1 67.5 27.34C67.68 27.58 67.77 27.9 67.77 28.3C67.77 28.48 67.7 28.73 67.56 29.05C67.42 29.35 67.24 29.66 67.02 29.98C66.8 30.3 66.56 30.57 66.3 30.79C66.04 31.01 65.79 31.12 65.55 31.12ZM79.77 39.16C80.17 38.84 80.47 38.55 80.67 38.29C80.89 38.03 81.03 37.8 81.09 37.6C81.15 37.4 81.2 37.21 81.24 37.03C81.3 36.85 81.37 36.69 81.45 36.55L81.63 36.16C81.31 35.96 81 35.77 80.7 35.59C80.42 35.39 80.14 35.19 79.86 34.99C79.64 34.91 79.46 34.84 79.32 34.78C79.2 34.72 79.03 34.62 78.81 34.48L78.21 34.06C77.51 33.56 77.04 33.31 76.8 33.31C76.56 33.31 76.23 33.16 75.81 32.86L74.43 31.84C74.31 31.74 74.14 31.65 73.92 31.57C73.7 31.47 73.33 31.33 72.81 31.15C72.45 31.01 72.17 30.86 71.97 30.7C71.85 30.6 71.73 30.52 71.61 30.46C71.51 30.4 71.41 30.34 71.31 30.28L70.89 30.04C70.81 29.98 70.72 29.93 70.62 29.89C70.54 29.85 70.45 29.8 70.35 29.74C69.97 30.18 69.78 30.47 69.78 30.61C69.78 30.77 69.67 31.02 69.45 31.36L68.61 32.62L69 32.89C69.22 33.05 69.45 33.18 69.69 33.28L70.08 33.46C70.52 33.68 70.89 33.9 71.19 34.12C71.35 34.22 71.48 34.31 71.58 34.39C71.68 34.47 71.77 34.53 71.85 34.57L75.69 36.7C75.83 36.78 76.01 36.89 76.23 37.03C76.45 37.17 76.68 37.32 76.92 37.48L78.72 38.62C78.8 38.66 78.88 38.71 78.96 38.77C79.06 38.81 79.15 38.85 79.23 38.89L79.77 39.16ZM77.55 41.14L78.99 39.94C78.93 39.9 78.87 39.87 78.81 39.85C78.75 39.81 78.7 39.77 78.66 39.73C78.6 39.69 78.54 39.65 78.48 39.61C78.42 39.57 78.35 39.53 78.27 39.49L77.97 39.28C77.93 39.24 77.79 39.15 77.55 39.01L75.75 37.93C75.69 37.89 75.58 37.83 75.42 37.75C75.28 37.65 75.09 37.56 74.85 37.48C74.53 37.36 74.25 37.23 74.01 37.09C73.79 36.95 73.57 36.83 73.35 36.73C73.23 36.59 73.12 36.48 73.02 36.4C72.94 36.32 72.87 36.24 72.81 36.16C72.71 36.06 72.49 35.94 72.15 35.8L71.76 35.65C71.32 35.49 70.97 35.28 70.71 35.02C70.41 34.72 70.17 34.56 69.99 34.54C69.75 34.52 69.49 34.41 69.21 34.21C68.89 33.99 68.61 33.82 68.37 33.7C68.13 33.56 67.89 33.44 67.65 33.34C67.57 33.38 67.38 33.44 67.08 33.52C66.8 33.6 66.61 33.65 66.51 33.67C66.31 33.69 66.12 33.74 65.94 33.82C65.78 33.9 65.59 33.99 65.37 34.09L64.83 34.36C65.35 34.68 65.84 34.99 66.3 35.29C66.78 35.59 67.28 35.86 67.8 36.1L68.73 36.52C68.83 36.56 68.94 36.61 69.06 36.67C69.18 36.73 69.3 36.78 69.42 36.82C69.52 36.86 69.67 36.93 69.87 37.03C70.09 37.13 70.35 37.26 70.65 37.42L72.45 38.38C72.75 38.54 73.05 38.71 73.35 38.89C73.65 39.07 73.95 39.24 74.25 39.4C74.45 39.5 74.64 39.61 74.82 39.73C75 39.85 75.19 39.96 75.39 40.06C75.61 40.18 75.92 40.35 76.32 40.57C76.74 40.77 77.15 40.96 77.55 41.14ZM78.81 41.53C78.89 41.53 79.05 41.53 79.29 41.53C79.55 41.51 79.84 41.5 80.16 41.5C80.52 41.5 80.89 41.5 81.27 41.5C81.67 41.48 82.1 41.47 82.56 41.47C83.08 41.47 83.59 41.48 84.09 41.5C84.59 41.5 85.09 41.5 85.59 41.5C85.83 41.5 86.06 41.33 86.28 40.99C86.5 40.63 86.61 40.34 86.61 40.12C86.61 40.02 86.52 39.82 86.34 39.52C86.18 39.22 85.99 38.92 85.77 38.62L85.35 38.02C85.19 37.78 84.99 37.48 84.75 37.12C84.51 36.76 84.31 36.42 84.15 36.1L83.91 35.62C83.85 35.5 83.76 35.35 83.64 35.17C83.52 34.97 83.4 34.79 83.28 34.63L82.83 34L82.77 34.36C82.75 34.48 82.74 34.6 82.74 34.72C82.74 34.84 82.74 34.97 82.74 35.11V35.29C82.76 35.33 82.77 35.38 82.77 35.44C82.77 35.54 82.87 35.76 83.07 36.1C83.17 36.26 83.27 36.43 83.37 36.61C83.47 36.79 83.59 36.98 83.73 37.18C83.53 37.02 83.32 36.88 83.1 36.76C82.9 36.64 82.74 36.58 82.62 36.58C82.44 36.58 82.35 36.7 82.35 36.94C82.35 37.14 82.53 37.45 82.89 37.87C83.25 38.27 83.63 38.66 84.03 39.04C83.93 39 83.82 38.97 83.7 38.95C83.6 38.93 83.5 38.91 83.4 38.89L82.74 38.62C82.66 38.58 82.53 38.55 82.35 38.53C82.17 38.51 82.02 38.5 81.9 38.5C81.6 38.5 81.35 38.61 81.15 38.83C80.95 39.05 80.85 39.24 80.85 39.4C80.85 39.58 80.92 39.75 81.06 39.91C81.22 40.05 81.43 40.22 81.69 40.42C81.47 40.42 81.29 40.43 81.15 40.45C81.03 40.45 80.93 40.45 80.85 40.45C80.75 40.45 80.64 40.46 80.52 40.48C80.42 40.48 80.31 40.48 80.19 40.48C79.81 40.48 79.48 40.59 79.2 40.81C78.92 41.03 78.69 41.26 78.51 41.5L78.81 41.53Z" fill="black"/>
</svg>
