<svg width="31" height="45" viewBox="0 0 31 45" fill="none" xmlns="http://www.w3.org/2000/svg">
<path d="M19.29 32.61C18.09 32.61 17.38 32.5 17.16 32.28C17.06 32.18 16.77 31.99 16.29 31.71C15.83 31.43 15.16 31.07 14.28 30.63C14.08 30.53 13.72 30.34 13.2 30.06C12.68 29.76 12.07 29.44 11.37 29.1C11.27 29.04 11.1 28.95 10.86 28.83C10.64 28.71 10.41 28.59 10.17 28.47C9.93 28.33 9.75 28.23 9.63 28.17L9.09 27.9C9.05 27.88 8.99 27.85 8.91 27.81C8.83 27.77 8.74 27.72 8.64 27.66L7.8 27.24C7.66 27.16 7.5 27.07 7.32 26.97C7.16 26.87 6.99 26.78 6.81 26.7L2.85 24.6C2.69 24.14 2.55 23.72 2.43 23.34C2.31 22.96 2.23 22.62 2.19 22.32C2.15 22.02 2.07 21.65 1.95 21.21C1.83 20.77 1.69 20.26 1.53 19.68C1.77 19.16 1.99 18.71 2.19 18.33C2.39 17.93 2.57 17.62 2.73 17.4C2.85 17.24 2.98 17.06 3.12 16.86C3.26 16.64 3.45 16.34 3.69 15.96C3.79 15.82 3.88 15.67 3.96 15.51C4.06 15.33 4.15 15.16 4.23 15C4.39 14.96 4.6 14.9 4.86 14.82C5.12 14.74 5.32 14.69 5.46 14.67C5.8 14.61 6.19 14.51 6.63 14.37C7.07 14.23 7.42 14.12 7.68 14.04C7.96 13.94 8.31 13.84 8.73 13.74L10.92 15.09C11.4 15.39 11.86 15.65 12.3 15.87C12.74 16.09 13.16 16.33 13.56 16.59L14.4 17.13C15 17.51 15.46 17.81 15.78 18.03C16.12 18.25 16.33 18.4 16.41 18.48C16.49 18.56 16.65 18.67 16.89 18.81C17.13 18.95 17.45 19.14 17.85 19.38C18.45 19.74 19.05 20.1 19.65 20.46C20.27 20.8 20.88 21.15 21.48 21.51C21.86 21.75 22.17 21.96 22.41 22.14C22.65 22.34 22.94 22.63 23.28 23.01C23.62 23.37 23.91 23.75 24.15 24.15L25.8 26.91C26.66 28.35 27.31 29.45 27.75 30.21C28.21 30.97 28.45 31.4 28.47 31.5C28.53 31.68 28.56 31.82 28.56 31.92C28.56 32.14 28.46 32.29 28.26 32.37C28.08 32.45 27.85 32.49 27.57 32.49C27.23 32.49 26.88 32.5 26.52 32.52C26.16 32.52 25.81 32.52 25.47 32.52L20.13 32.58C19.99 32.58 19.85 32.59 19.71 32.61C19.57 32.61 19.43 32.61 19.29 32.61ZM3.75 23.52C3.79 23.52 3.83 23.52 3.87 23.52C3.91 23.5 3.95 23.49 3.99 23.49L4.59 23.4C4.83 23.4 5.21 23.27 5.73 23.01C5.97 22.89 6.28 22.76 6.66 22.62C7.04 22.46 7.29 22.38 7.41 22.38C7.45 22.34 7.55 22.18 7.71 21.9C7.89 21.6 7.99 21.41 8.01 21.33L8.16 20.94C8.24 20.72 8.33 20.54 8.43 20.4C8.55 20.24 8.65 20.11 8.73 20.01C8.91 19.79 9.06 19.58 9.18 19.38C9.24 19.28 9.31 19.17 9.39 19.05C9.49 18.91 9.61 18.76 9.75 18.6C9.73 18.52 9.68 18.37 9.6 18.15C9.52 17.93 9.4 17.64 9.24 17.28C8.94 16.56 8.75 16.08 8.67 15.84L8.37 14.88L7.56 15.18C7.36 15.26 7.16 15.34 6.96 15.42C6.76 15.48 6.61 15.52 6.51 15.54L5.01 15.96C4.97 16.02 4.87 16.17 4.71 16.41C4.57 16.63 4.48 16.77 4.44 16.83L3.57 18.21C3.43 18.45 3.27 18.72 3.09 19.02C2.91 19.3 2.73 19.58 2.55 19.86L2.97 21.27C3.05 21.53 3.12 21.73 3.18 21.87C3.24 21.99 3.29 22.12 3.33 22.26L3.75 23.52ZM21.87 24.9V22.86L19.83 21.54C19.69 21.44 19.52 21.34 19.32 21.24C19.12 21.12 18.91 21.01 18.69 20.91L18.09 20.61C18.01 20.57 17.93 20.53 17.85 20.49C17.77 20.45 17.71 20.42 17.67 20.4L15.36 18.93C15.22 18.83 15.09 18.75 14.97 18.69C14.87 18.63 14.79 18.58 14.73 18.54L9.57 15.3L9.84 15.99C9.9 16.15 9.96 16.32 10.02 16.5C10.08 16.66 10.11 16.78 10.11 16.86C10.11 16.94 10.14 17.1 10.2 17.34C10.28 17.58 10.37 17.82 10.47 18.06C10.57 18.28 10.64 18.45 10.68 18.57C10.78 18.71 11.02 18.89 11.4 19.11C11.62 19.21 11.8 19.31 11.94 19.41C12.08 19.51 12.19 19.61 12.27 19.71C12.45 19.89 12.66 20.06 12.9 20.22L13.26 20.46C13.38 20.54 13.5 20.61 13.62 20.67C13.76 20.73 13.87 20.78 13.95 20.82C14.31 20.94 14.54 21.03 14.64 21.09C14.76 21.15 14.97 21.27 15.27 21.45C15.39 21.53 15.52 21.61 15.66 21.69C15.8 21.75 15.95 21.81 16.11 21.87C16.37 21.95 16.61 22.06 16.83 22.2C17.07 22.34 17.45 22.58 17.97 22.92L19.89 23.82C20.09 23.9 20.27 23.99 20.43 24.09C20.59 24.17 20.72 24.24 20.82 24.3L21.87 24.9ZM5.55 21.12C5.25 21.12 5 20.98 4.8 20.7C4.62 20.4 4.53 20.06 4.53 19.68C4.53 19.24 4.65 18.82 4.89 18.42C5.13 18 5.41 17.66 5.73 17.4C6.07 17.12 6.39 16.98 6.69 16.98C7.05 16.98 7.32 17.1 7.5 17.34C7.68 17.58 7.77 17.9 7.77 18.3C7.77 18.48 7.7 18.73 7.56 19.05C7.42 19.35 7.24 19.66 7.02 19.98C6.8 20.3 6.56 20.57 6.3 20.79C6.04 21.01 5.79 21.12 5.55 21.12ZM19.77 29.16C20.17 28.84 20.47 28.55 20.67 28.29C20.89 28.03 21.03 27.8 21.09 27.6C21.15 27.4 21.2 27.21 21.24 27.03C21.3 26.85 21.37 26.69 21.45 26.55L21.63 26.16C21.31 25.96 21 25.77 20.7 25.59C20.42 25.39 20.14 25.19 19.86 24.99C19.64 24.91 19.46 24.84 19.32 24.78C19.2 24.72 19.03 24.62 18.81 24.48L18.21 24.06C17.51 23.56 17.04 23.31 16.8 23.31C16.56 23.31 16.23 23.16 15.81 22.86L14.43 21.84C14.31 21.74 14.14 21.65 13.92 21.57C13.7 21.47 13.33 21.33 12.81 21.15C12.45 21.01 12.17 20.86 11.97 20.7C11.85 20.6 11.73 20.52 11.61 20.46C11.51 20.4 11.41 20.34 11.31 20.28L10.89 20.04C10.81 19.98 10.72 19.93 10.62 19.89C10.54 19.85 10.45 19.8 10.35 19.74C9.97 20.18 9.78 20.47 9.78 20.61C9.78 20.77 9.67 21.02 9.45 21.36L8.61 22.62L9 22.89C9.22 23.05 9.45 23.18 9.69 23.28L10.08 23.46C10.52 23.68 10.89 23.9 11.19 24.12C11.35 24.22 11.48 24.31 11.58 24.39C11.68 24.47 11.77 24.53 11.85 24.57L15.69 26.7C15.83 26.78 16.01 26.89 16.23 27.03C16.45 27.17 16.68 27.32 16.92 27.48L18.72 28.62C18.8 28.66 18.88 28.71 18.96 28.77C19.06 28.81 19.15 28.85 19.23 28.89L19.77 29.16ZM17.55 31.14L18.99 29.94C18.93 29.9 18.87 29.87 18.81 29.85C18.75 29.81 18.7 29.77 18.66 29.73C18.6 29.69 18.54 29.65 18.48 29.61C18.42 29.57 18.35 29.53 18.27 29.49L17.97 29.28C17.93 29.24 17.79 29.15 17.55 29.01L15.75 27.93C15.69 27.89 15.58 27.83 15.42 27.75C15.28 27.65 15.09 27.56 14.85 27.48C14.53 27.36 14.25 27.23 14.01 27.09C13.79 26.95 13.57 26.83 13.35 26.73C13.23 26.59 13.12 26.48 13.02 26.4C12.94 26.32 12.87 26.24 12.81 26.16C12.71 26.06 12.49 25.94 12.15 25.8L11.76 25.65C11.32 25.49 10.97 25.28 10.71 25.02C10.41 24.72 10.17 24.56 9.99 24.54C9.75 24.52 9.49 24.41 9.21 24.21C8.89 23.99 8.61 23.82 8.37 23.7C8.13 23.56 7.89 23.44 7.65 23.34C7.57 23.38 7.38 23.44 7.08 23.52C6.8 23.6 6.61 23.65 6.51 23.67C6.31 23.69 6.12 23.74 5.94 23.82C5.78 23.9 5.59 23.99 5.37 24.09L4.83 24.36C5.35 24.68 5.84 24.99 6.3 25.29C6.78 25.59 7.28 25.86 7.8 26.1L8.73 26.52C8.83 26.56 8.94 26.61 9.06 26.67C9.18 26.73 9.3 26.78 9.42 26.82C9.52 26.86 9.67 26.93 9.87 27.03C10.09 27.13 10.35 27.26 10.65 27.42L12.45 28.38C12.75 28.54 13.05 28.71 13.35 28.89C13.65 29.07 13.95 29.24 14.25 29.4C14.45 29.5 14.64 29.61 14.82 29.73C15 29.85 15.19 29.96 15.39 30.06C15.61 30.18 15.92 30.35 16.32 30.57C16.74 30.77 17.15 30.96 17.55 31.14ZM18.81 31.53C18.89 31.53 19.05 31.53 19.29 31.53C19.55 31.51 19.84 31.5 20.16 31.5C20.52 31.5 20.89 31.5 21.27 31.5C21.67 31.48 22.1 31.47 22.56 31.47C23.08 31.47 23.59 31.48 24.09 31.5C24.59 31.5 25.09 31.5 25.59 31.5C25.83 31.5 26.06 31.33 26.28 30.99C26.5 30.63 26.61 30.34 26.61 30.12C26.61 30.02 26.52 29.82 26.34 29.52C26.18 29.22 25.99 28.92 25.77 28.62L25.35 28.02C25.19 27.78 24.99 27.48 24.75 27.12C24.51 26.76 24.31 26.42 24.15 26.1L23.91 25.62C23.85 25.5 23.76 25.35 23.64 25.17C23.52 24.97 23.4 24.79 23.28 24.63L22.83 24L22.77 24.36C22.75 24.48 22.74 24.6 22.74 24.72C22.74 24.84 22.74 24.97 22.74 25.11V25.29C22.76 25.33 22.77 25.38 22.77 25.44C22.77 25.54 22.87 25.76 23.07 26.1C23.17 26.26 23.27 26.43 23.37 26.61C23.47 26.79 23.59 26.98 23.73 27.18C23.53 27.02 23.32 26.88 23.1 26.76C22.9 26.64 22.74 26.58 22.62 26.58C22.44 26.58 22.35 26.7 22.35 26.94C22.35 27.14 22.53 27.45 22.89 27.87C23.25 28.27 23.63 28.66 24.03 29.04C23.93 29 23.82 28.97 23.7 28.95C23.6 28.93 23.5 28.91 23.4 28.89L22.74 28.62C22.66 28.58 22.53 28.55 22.35 28.53C22.17 28.51 22.02 28.5 21.9 28.5C21.6 28.5 21.35 28.61 21.15 28.83C20.95 29.05 20.85 29.24 20.85 29.4C20.85 29.58 20.92 29.75 21.06 29.91C21.22 30.05 21.43 30.22 21.69 30.42C21.47 30.42 21.29 30.43 21.15 30.45C21.03 30.45 20.93 30.45 20.85 30.45C20.75 30.45 20.64 30.46 20.52 30.48C20.42 30.48 20.31 30.48 20.19 30.48C19.81 30.48 19.48 30.59 19.2 30.81C18.92 31.03 18.69 31.26 18.51 31.5L18.81 31.53Z" fill="black"/>
</svg>
