<svg width="12" height="22" viewBox="0 0 12 22" fill="none" xmlns="http://www.w3.org/2000/svg">
<path d="M10.5 5H9.75V0.5H8.25V5H3.75V0.5H2.25V5H1.5C1.10218 5 0.720645 5.15804 0.43934 5.43934C0.158036 5.72064 0 6.10218 0 6.5V11C0.0029292 12.46 0.537456 13.869 1.50367 14.9636C2.46988 16.0582 3.80163 16.7634 5.25 16.9475V21.5H6.75V16.9475C8.19837 16.7634 9.53012 16.0582 10.4963 14.9636C11.4625 13.869 11.9971 12.46 12 11V6.5C12 6.10218 11.842 5.72064 11.5607 5.43934C11.2794 5.15804 10.8978 5 10.5 5Z" fill="#1E1E1E"/>
</svg>
