<svg width="350" height="60" viewBox="0 0 350 60" fill="none" xmlns="http://www.w3.org/2000/svg">
<rect width="350" height="60" rx="8" fill="#44392B"/>
<path d="M158.448 35.404C158.448 36.3747 158.176 36.86 157.632 36.86H157.408C157.152 36.86 157.024 36.7373 157.024 36.492V22.684H158.448V35.404ZM154.16 24.604C154.16 25.6067 154.021 26.5187 153.744 27.34C153.477 28.1613 153.088 28.9027 152.576 29.564C152.064 30.2253 151.429 30.812 150.672 31.324C149.925 31.8253 149.077 32.2573 148.128 32.62C148.053 32.652 147.995 32.668 147.952 32.668C147.835 32.668 147.712 32.5933 147.584 32.444C147.456 32.2947 147.392 32.1133 147.392 31.9C147.392 31.74 147.472 31.6173 147.632 31.532C148.389 31.2333 149.077 30.8707 149.696 30.444C150.325 30.0173 150.864 29.5267 151.312 28.972C151.76 28.428 152.107 27.8253 152.352 27.164C152.597 26.492 152.72 25.772 152.72 25.004V24.588H147.824V23.404H153.568C153.963 23.404 154.16 23.6013 154.16 23.996V24.604ZM162.502 25.132H170.582C170.721 25.132 170.79 25.0147 170.79 24.78V23.964H162.502V22.844H171.606C171.99 22.844 172.182 23.036 172.182 23.42V24.412C172.182 25.6067 171.883 26.204 171.286 26.204H163.91V27.164C163.91 27.3453 164.001 27.436 164.182 27.436H172.15C172.331 27.436 172.422 27.5533 172.422 27.788C172.422 28.3107 172.251 28.572 171.91 28.572H168.054V30.044H173.718C173.899 30.044 173.99 30.172 173.99 30.428C173.99 30.9613 173.819 31.228 173.478 31.228H160.71V30.044H166.646V28.572H163.686C162.897 28.572 162.502 28.1773 162.502 27.388V25.132ZM170.534 33.756H162.534V32.572H171.35C171.745 32.572 171.942 32.7693 171.942 33.164V35.356C171.942 36.3267 171.665 36.812 171.11 36.812H170.934C170.667 36.812 170.534 36.684 170.534 36.428V33.756ZM179.564 26.62C180.087 26.62 180.556 26.7107 180.972 26.892C181.388 27.0627 181.74 27.3027 182.028 27.612C182.306 27.9213 182.519 28.284 182.668 28.7C182.828 29.116 182.908 29.5587 182.908 30.028C182.908 30.4973 182.828 30.94 182.668 31.356C182.519 31.772 182.306 32.1347 182.028 32.444C181.74 32.7533 181.388 32.9987 180.972 33.18C180.556 33.3613 180.087 33.452 179.564 33.452C179.042 33.452 178.572 33.3613 178.156 33.18C177.751 32.9987 177.404 32.7533 177.116 32.444C176.818 32.1347 176.588 31.772 176.428 31.356C176.279 30.94 176.204 30.4973 176.204 30.028C176.204 29.5587 176.279 29.116 176.428 28.7C176.588 28.284 176.818 27.9213 177.116 27.612C177.404 27.3027 177.751 27.0627 178.156 26.892C178.572 26.7107 179.042 26.62 179.564 26.62ZM179.548 32.236C179.815 32.236 180.066 32.1773 180.3 32.06C180.546 31.9427 180.759 31.7773 180.94 31.564C181.122 31.3613 181.26 31.1267 181.356 30.86C181.452 30.5933 181.5 30.3053 181.5 29.996C181.5 29.6973 181.452 29.4147 181.356 29.148C181.26 28.8707 181.122 28.6307 180.94 28.428C180.759 28.236 180.546 28.0867 180.3 27.98C180.066 27.8627 179.815 27.804 179.548 27.804C179.25 27.804 178.983 27.8627 178.748 27.98C178.514 28.0867 178.311 28.236 178.14 28.428C177.97 28.6307 177.836 28.8707 177.74 29.148C177.644 29.4147 177.596 29.6973 177.596 29.996C177.596 30.3053 177.644 30.5933 177.74 30.86C177.836 31.1267 177.97 31.3613 178.14 31.564C178.311 31.7773 178.514 31.9427 178.748 32.06C178.983 32.1773 179.25 32.236 179.548 32.236ZM175.676 24.46H178.86V22.764H180.268V24.46H183.244C183.415 24.46 183.5 24.588 183.5 24.844C183.5 25.3773 183.335 25.644 183.004 25.644H175.676V24.46ZM186.78 35.404C186.78 36.3747 186.508 36.86 185.964 36.86H185.74C185.495 36.86 185.372 36.7373 185.372 36.492V22.684H186.78V27.196H188.796C188.978 27.196 189.068 27.324 189.068 27.58C189.068 28.1453 188.898 28.428 188.556 28.428H186.78V35.404ZM201.378 35.404C201.378 36.3747 201.106 36.86 200.562 36.86H200.338C200.082 36.86 199.954 36.7373 199.954 36.492V22.684H201.378V35.404ZM197.09 24.604C197.09 25.6067 196.952 26.5187 196.674 27.34C196.408 28.1613 196.018 28.9027 195.506 29.564C194.994 30.2253 194.36 30.812 193.602 31.324C192.856 31.8253 192.008 32.2573 191.058 32.62C190.984 32.652 190.925 32.668 190.882 32.668C190.765 32.668 190.642 32.5933 190.514 32.444C190.386 32.2947 190.322 32.1133 190.322 31.9C190.322 31.74 190.402 31.6173 190.562 31.532C191.32 31.2333 192.008 30.8707 192.626 30.444C193.256 30.0173 193.794 29.5267 194.242 28.972C194.69 28.428 195.037 27.8253 195.282 27.164C195.528 26.492 195.65 25.772 195.65 25.004V24.588H190.754V23.404H196.498C196.893 23.404 197.09 23.6013 197.09 23.996V24.604Z" fill="#F8F2E2"/>
</svg>
