<svg width="350" height="60" viewBox="0 0 350 60" fill="none" xmlns="http://www.w3.org/2000/svg">
<rect width="350" height="60" rx="8" fill="#44392B" fill-opacity="0.8"/>
<path d="M139.02 23.772H141.884V22.348H143.276V23.772H146.028C146.22 23.772 146.316 23.9 146.316 24.156C146.316 24.6893 146.145 24.956 145.804 24.956H143.308V25.036C143.308 25.4627 143.388 25.868 143.548 26.252C143.719 26.6253 143.948 26.9773 144.236 27.308C144.513 27.6387 144.849 27.948 145.244 28.236C145.649 28.524 146.087 28.796 146.556 29.052C146.695 29.1373 146.764 29.2493 146.764 29.388C146.764 29.484 146.737 29.58 146.684 29.676C146.641 29.7613 146.588 29.836 146.524 29.9C146.46 29.9747 146.391 30.0333 146.316 30.076C146.252 30.1187 146.199 30.14 146.156 30.14C146.06 30.14 145.985 30.1187 145.932 30.076C145.612 29.9053 145.287 29.7187 144.956 29.516C144.625 29.3133 144.316 29.1 144.028 28.876C143.729 28.652 143.457 28.4173 143.212 28.172C142.967 27.9267 142.764 27.6707 142.604 27.404C142.284 27.9907 141.82 28.524 141.212 29.004C140.604 29.484 139.959 29.9053 139.276 30.268C139.223 30.3107 139.159 30.332 139.084 30.332C138.967 30.332 138.833 30.252 138.684 30.092C138.545 29.9213 138.476 29.7453 138.476 29.564C138.476 29.4253 138.535 29.3187 138.652 29.244C138.78 29.1693 138.908 29.0893 139.036 29.004C139.889 28.4707 140.572 27.8787 141.084 27.228C141.596 26.5773 141.852 25.8467 141.852 25.036V24.956H139.02V23.772ZM149.644 28.988C149.644 29.9587 149.372 30.444 148.828 30.444H148.62C148.375 30.444 148.252 30.3213 148.252 30.076V22.684H149.644V25.804H151.66C151.852 25.804 151.948 25.932 151.948 26.188C151.948 26.7213 151.772 26.988 151.42 26.988H149.644V28.988ZM140.86 31.276H149.308C149.532 31.276 149.644 31.404 149.644 31.66C149.644 31.8627 149.623 32.0173 149.58 32.124C149.537 32.2307 149.473 32.3053 149.388 32.348C149.292 32.4013 149.18 32.4333 149.052 32.444C148.935 32.444 148.796 32.444 148.636 32.444H146.012C146.023 32.828 146.145 33.196 146.38 33.548C146.625 33.8893 146.935 34.1987 147.308 34.476C147.671 34.7533 148.071 34.9933 148.508 35.196C148.956 35.3987 149.393 35.5533 149.82 35.66C150.023 35.724 150.124 35.852 150.124 36.044C150.124 36.2787 150.071 36.4653 149.964 36.604C149.857 36.7427 149.745 36.812 149.628 36.812C149.575 36.812 149.537 36.8067 149.516 36.796C149.121 36.7 148.721 36.572 148.316 36.412C147.911 36.2627 147.521 36.0867 147.148 35.884C146.775 35.6707 146.428 35.436 146.108 35.18C145.788 34.924 145.511 34.6413 145.276 34.332C145.073 34.62 144.812 34.892 144.492 35.148C144.172 35.404 143.825 35.6387 143.452 35.852C143.079 36.0547 142.684 36.236 142.268 36.396C141.852 36.5667 141.457 36.7 141.084 36.796C141.052 36.8067 141.009 36.812 140.956 36.812C140.839 36.812 140.727 36.7427 140.62 36.604C140.513 36.4653 140.46 36.2787 140.46 36.044C140.46 35.852 140.556 35.724 140.748 35.66C141.207 35.5213 141.66 35.3507 142.108 35.148C142.556 34.9347 142.956 34.6893 143.308 34.412C143.66 34.1453 143.948 33.8467 144.172 33.516C144.407 33.1853 144.535 32.828 144.556 32.444H140.86V31.276ZM154.034 22.844H155.442V26.22C155.442 26.4653 155.565 26.588 155.81 26.588H163.65C163.821 26.588 163.906 26.716 163.906 26.972C163.906 27.5053 163.741 27.772 163.41 27.772H155.89C155.602 27.772 155.341 27.7613 155.106 27.74C154.882 27.7187 154.69 27.6653 154.53 27.58C154.37 27.5053 154.247 27.3933 154.162 27.244C154.077 27.084 154.034 26.8653 154.034 26.588V22.844ZM152.194 29.756H165.202C165.394 29.756 165.49 29.8893 165.49 30.156C165.49 30.6787 165.314 30.94 164.962 30.94H152.194V29.756ZM154.114 32.396H155.522V35.116C155.522 35.372 155.645 35.5 155.89 35.5H163.506C163.687 35.5 163.778 35.6227 163.778 35.868C163.778 36.4013 163.607 36.668 163.266 36.668H155.89C155.602 36.668 155.346 36.652 155.122 36.62C154.909 36.5987 154.727 36.5507 154.578 36.476C154.429 36.3907 154.311 36.268 154.226 36.108C154.151 35.9587 154.114 35.756 154.114 35.5V32.396ZM177.485 30.204H171.549V29.036H184.557C184.738 29.036 184.829 29.164 184.829 29.42C184.829 29.9427 184.658 30.204 184.317 30.204H178.893V31.564C179.117 31.5853 179.336 31.612 179.549 31.644C179.773 31.676 179.981 31.7187 180.173 31.772C181.08 31.9853 181.768 32.3107 182.237 32.748C182.706 33.1853 182.941 33.7027 182.941 34.3C182.952 34.684 182.845 35.0413 182.621 35.372C182.408 35.7027 182.098 35.996 181.693 36.252C181.288 36.4973 180.786 36.6947 180.189 36.844C179.602 36.9933 178.941 37.068 178.205 37.068C177.469 37.068 176.802 36.9933 176.205 36.844C175.618 36.6947 175.122 36.4973 174.717 36.252C174.301 35.996 173.981 35.7027 173.757 35.372C173.533 35.0307 173.421 34.6733 173.421 34.3C173.421 33.7027 173.661 33.1853 174.141 32.748C174.632 32.3107 175.32 31.9853 176.205 31.772C176.408 31.7187 176.616 31.676 176.829 31.644C177.042 31.612 177.261 31.5853 177.485 31.564V30.204ZM178.173 35.9C178.642 35.9 179.08 35.8573 179.485 35.772C179.901 35.6867 180.264 35.5747 180.573 35.436C180.872 35.2867 181.106 35.116 181.277 34.924C181.458 34.7213 181.549 34.508 181.549 34.284C181.549 34.06 181.458 33.852 181.277 33.66C181.106 33.468 180.872 33.2973 180.573 33.148C180.264 33.0093 179.901 32.9027 179.485 32.828C179.08 32.7427 178.642 32.7 178.173 32.7C177.682 32.7 177.229 32.7427 176.813 32.828C176.408 32.9027 176.056 33.0093 175.757 33.148C175.458 33.2973 175.224 33.468 175.053 33.66C174.893 33.852 174.813 34.06 174.813 34.284C174.813 34.508 174.893 34.7213 175.053 34.924C175.224 35.116 175.458 35.2867 175.757 35.436C176.056 35.5747 176.408 35.6867 176.813 35.772C177.229 35.8573 177.682 35.9 178.173 35.9ZM173.405 22.844H182.845C183.026 22.844 183.117 22.9667 183.117 23.212C183.117 23.7453 182.946 24.012 182.605 24.012H178.957C179.074 24.5667 179.485 25.0733 180.189 25.532C180.616 25.8093 181.085 26.0547 181.597 26.268C182.12 26.4707 182.696 26.6467 183.325 26.796C183.57 26.892 183.634 27.116 183.517 27.468C183.389 27.852 183.192 28.0013 182.925 27.916C181.25 27.5 179.922 26.924 178.941 26.188C178.792 26.092 178.648 25.98 178.509 25.852C178.381 25.7133 178.274 25.58 178.189 25.452C178.104 25.58 177.992 25.7133 177.853 25.852C177.714 25.98 177.576 26.092 177.437 26.188C176.456 26.924 175.128 27.5 173.453 27.916C173.186 28.0013 172.989 27.852 172.861 27.468C172.733 27.1053 172.808 26.876 173.085 26.78C174.312 26.5027 175.346 26.0867 176.189 25.532C176.882 25.0627 177.288 24.556 177.405 24.012H173.405V22.844ZM193.096 30.492H191.608V28.972H193.096V30.492ZM202.107 30.492H200.619V28.972H202.107V30.492ZM211.118 30.492H209.63V28.972H211.118V30.492Z" fill="#F8F2E2"/>
</svg>
