<svg width="567" height="144" viewBox="0 0 567 144" fill="none" xmlns="http://www.w3.org/2000/svg">
<rect x="0.5" y="0.5" width="566" height="143" rx="4.5" stroke="#8A38F5" stroke-dasharray="10 5"/>
<circle cx="40" cy="41" r="20" fill="#FBBF24" fill-opacity="0.2"/>
<rect x="79" y="20" width="200" height="10" rx="5" fill="#FBBF24" fill-opacity="0.2"/>
<rect x="79" y="36" width="150" height="10" rx="5" fill="#FBBF24" fill-opacity="0.2"/>
<rect x="79" y="52" width="100" height="10" rx="5" fill="#FBBF24" fill-opacity="0.2"/>
<circle cx="40" cy="103" r="20" fill="url(#paint0_linear_47_440)" fill-opacity="0.3"/>
<rect x="79" y="82" width="200" height="10" rx="5" fill="url(#paint1_linear_47_440)" fill-opacity="0.3"/>
<rect x="79" y="98" width="150" height="10" rx="5" fill="url(#paint2_linear_47_440)" fill-opacity="0.3"/>
<rect x="79" y="114" width="100" height="10" rx="5" fill="url(#paint3_linear_47_440)" fill-opacity="0.3"/>
<circle cx="316" cy="36" r="20" fill="url(#paint4_linear_47_440)" fill-opacity="0.3"/>
<rect x="355" y="15" width="200" height="10" rx="5" fill="url(#paint5_linear_47_440)" fill-opacity="0.3"/>
<rect x="355" y="31" width="150" height="10" rx="5" fill="url(#paint6_linear_47_440)" fill-opacity="0.3"/>
<rect x="355" y="47" width="100" height="10" rx="5" fill="url(#paint7_linear_47_440)" fill-opacity="0.3"/>
<circle cx="316" cy="98" r="20" fill="url(#paint8_linear_47_440)" fill-opacity="0.3"/>
<rect x="355" y="77" width="200" height="10" rx="5" fill="url(#paint9_linear_47_440)" fill-opacity="0.3"/>
<rect x="355" y="93" width="150" height="10" rx="5" fill="url(#paint10_linear_47_440)" fill-opacity="0.3"/>
<rect x="355" y="109" width="100" height="10" rx="5" fill="url(#paint11_linear_47_440)" fill-opacity="0.3"/>
<defs>
<linearGradient id="paint0_linear_47_440" x1="20" y1="103" x2="60" y2="103" gradientUnits="userSpaceOnUse">
<stop stop-color="#957115"/>
<stop offset="1" stop-color="#FBBF24" stop-opacity="0.3"/>
</linearGradient>
<linearGradient id="paint1_linear_47_440" x1="79" y1="87" x2="279" y2="87" gradientUnits="userSpaceOnUse">
<stop stop-color="#957115"/>
<stop offset="1" stop-color="#FBBF24" stop-opacity="0.3"/>
</linearGradient>
<linearGradient id="paint2_linear_47_440" x1="79" y1="103" x2="229" y2="103" gradientUnits="userSpaceOnUse">
<stop stop-color="#957115"/>
<stop offset="1" stop-color="#FBBF24" stop-opacity="0.3"/>
</linearGradient>
<linearGradient id="paint3_linear_47_440" x1="79" y1="119" x2="179" y2="119" gradientUnits="userSpaceOnUse">
<stop stop-color="#957115"/>
<stop offset="1" stop-color="#FBBF24" stop-opacity="0.3"/>
</linearGradient>
<linearGradient id="paint4_linear_47_440" x1="296" y1="36" x2="336" y2="36" gradientUnits="userSpaceOnUse">
<stop offset="0.230769" stop-color="#FBBF24" stop-opacity="0.3"/>
<stop offset="0.9999" stop-color="#957115"/>
</linearGradient>
<linearGradient id="paint5_linear_47_440" x1="355" y1="20" x2="555" y2="20" gradientUnits="userSpaceOnUse">
<stop offset="0.3" stop-color="#FBBF24" stop-opacity="0.3"/>
<stop offset="1" stop-color="#957115"/>
</linearGradient>
<linearGradient id="paint6_linear_47_440" x1="355" y1="36" x2="505" y2="36" gradientUnits="userSpaceOnUse">
<stop offset="0.3" stop-color="#FBBF24" stop-opacity="0.3"/>
<stop offset="1" stop-color="#957115"/>
</linearGradient>
<linearGradient id="paint7_linear_47_440" x1="355" y1="52" x2="455" y2="52" gradientUnits="userSpaceOnUse">
<stop offset="0.3" stop-color="#FBBF24" stop-opacity="0.3"/>
<stop offset="1" stop-color="#957115"/>
</linearGradient>
<linearGradient id="paint8_linear_47_440" x1="296" y1="98" x2="336" y2="98" gradientUnits="userSpaceOnUse">
<stop offset="0.9999" stop-color="#957115"/>
<stop offset="1" stop-color="#FBBF24" stop-opacity="0.3"/>
</linearGradient>
<linearGradient id="paint9_linear_47_440" x1="355" y1="82" x2="555" y2="82" gradientUnits="userSpaceOnUse">
<stop offset="0.9999" stop-color="#957115"/>
<stop offset="1" stop-color="#FBBF24" stop-opacity="0.3"/>
</linearGradient>
<linearGradient id="paint10_linear_47_440" x1="355" y1="98" x2="505" y2="98" gradientUnits="userSpaceOnUse">
<stop offset="0.9999" stop-color="#957115"/>
<stop offset="1" stop-color="#FBBF24" stop-opacity="0.3"/>
</linearGradient>
<linearGradient id="paint11_linear_47_440" x1="355" y1="114" x2="455" y2="114" gradientUnits="userSpaceOnUse">
<stop offset="0.9999" stop-color="#957115"/>
<stop offset="1" stop-color="#FBBF24" stop-opacity="0.3"/>
</linearGradient>
</defs>
</svg>
