<svg width="45" height="36" viewBox="0 0 45 36" fill="none" xmlns="http://www.w3.org/2000/svg">
<path d="M3.57923 22.0208C2.8502 20.8064 2.46509 19.4165 2.46509 18C2.46509 16.5835 2.8502 15.1937 3.57923 13.9792C3.80327 13.6053 4.10307 13.2823 4.45935 13.0312C4.81563 12.78 5.22051 12.6062 5.64798 12.5208L9.17506 11.8146C9.38541 11.7729 9.57512 11.6604 9.71256 11.4958L14.0209 6.32293C16.4834 3.3646 17.7167 1.88752 18.8146 2.28543C19.9126 2.68335 19.9167 4.60835 19.9167 8.45835V27.5458C19.9167 31.3938 19.9167 33.3167 18.8167 33.7167C17.7188 34.1125 16.4855 32.6354 14.023 29.6792L9.70839 24.5042C9.57148 24.34 9.38257 24.2275 9.17298 24.1854L5.64589 23.4792C5.21843 23.3938 4.81354 23.22 4.45726 22.9688C4.10098 22.7177 3.80327 22.3948 3.57923 22.0208Z" stroke="#44392B" stroke-width="3.33333"/>
<path d="M29.3667 10.6333C31.3105 12.5771 32.4072 15.2104 32.4177 17.9593C32.4283 20.7081 31.3518 23.3498 29.4229 25.3083M37.9521 6.2146C41.0622 9.32432 42.817 13.5373 42.8342 17.9353C42.8514 22.3333 41.1295 26.5599 38.0438 29.6938" stroke="#44392B" stroke-width="3.33333" stroke-linecap="round"/>
</svg>
