<svg width="25" height="28" viewBox="0 0 25 28" fill="none" xmlns="http://www.w3.org/2000/svg">
<path d="M8.88376 4.81C9.63126 2.6225 12.6538 2.55625 13.54 4.61125L13.615 4.81125L14.6238 7.76125C14.8549 8.43779 15.2285 9.05689 15.7193 9.57678C16.2101 10.0967 16.8066 10.5053 17.4688 10.775L17.74 10.8762L20.69 11.8838C22.8775 12.6313 22.9438 15.6537 20.89 16.54L20.69 16.615L17.74 17.6238C17.0632 17.8548 16.4439 18.2283 15.9238 18.7191C15.4037 19.2099 14.9949 19.8065 14.725 20.4688L14.6238 20.7388L13.6163 23.69C12.8688 25.8775 9.84626 25.9438 8.96126 23.89L8.88376 23.69L7.87626 20.74C7.64523 20.0632 7.27172 19.4439 6.78094 18.9238C6.29015 18.4037 5.6935 17.9949 5.03126 17.725L4.76126 17.6238L1.81126 16.6162C-0.377492 15.8687 -0.443742 12.8462 1.61126 11.9612L1.81126 11.8838L4.76126 10.8762C5.4378 10.6451 6.0569 10.2715 6.57679 9.78071C7.09668 9.28993 7.50527 8.69336 7.77501 8.03125L7.87626 7.76125L8.88376 4.81ZM21.25 0.5C21.4839 0.5 21.713 0.565598 21.9115 0.689339C22.1099 0.813081 22.2696 0.990003 22.3725 1.2L22.4325 1.34625L22.87 2.62875L24.1538 3.06625C24.3881 3.14587 24.5936 3.29327 24.744 3.48977C24.8945 3.68627 24.9833 3.92302 24.9991 4.17003C25.0149 4.41703 24.957 4.66316 24.8328 4.87723C24.7085 5.0913 24.5236 5.26367 24.3013 5.3725L24.1538 5.4325L22.8713 5.87L22.4338 7.15375C22.354 7.38804 22.2065 7.59337 22.0099 7.74374C21.8133 7.89411 21.5766 7.98274 21.3296 7.9984C21.0826 8.01407 20.8365 7.95606 20.6225 7.83172C20.4085 7.70739 20.2362 7.52233 20.1275 7.3L20.0675 7.15375L19.63 5.87125L18.3463 5.43375C18.1119 5.35413 17.9065 5.20673 17.756 5.01023C17.6055 4.81373 17.5167 4.57698 17.5009 4.32997C17.4851 4.08297 17.543 3.83684 17.6672 3.62277C17.7915 3.4087 17.9765 3.23633 18.1988 3.1275L18.3463 3.0675L19.6288 2.63L20.0663 1.34625C20.1505 1.09928 20.31 0.884886 20.5223 0.733124C20.7346 0.581361 20.9891 0.499843 21.25 0.5Z" fill="#1E1E1E"/>
</svg>
