<svg width="160" height="64" viewBox="0 0 160 64" fill="none" xmlns="http://www.w3.org/2000/svg">
<rect x="0.5" y="0.5" width="159" height="63" rx="4.5" stroke="#7B61FF" stroke-dasharray="10 5"/>
<path d="M39.2841 41.5H24.2159C23.6282 41.5 23.0646 41.2665 22.649 40.851C22.2335 40.4354 22 39.8718 22 39.2841V24.2159C22 23.6282 22.2335 23.0646 22.649 22.649C23.0646 22.2335 23.6282 22 24.2159 22H39.2841C39.8718 22 40.4354 22.2335 40.851 22.649C41.2665 23.0646 41.5 23.6282 41.5 24.2159V39.2841C41.5 39.8718 41.2665 40.4354 40.851 40.851C40.4354 41.2665 39.8718 41.5 39.2841 41.5Z" fill="black"/>
<path fill-rule="evenodd" clip-rule="evenodd" d="M72.2159 23.7727C71.9711 23.7727 71.7727 23.9711 71.7727 24.2159V39.2841C71.7727 39.5289 71.9711 39.7273 72.2159 39.7273H87.2841C87.5289 39.7273 87.7273 39.5289 87.7273 39.2841V24.2159C87.7273 23.9711 87.5289 23.7727 87.2841 23.7727H72.2159ZM70 24.2159C70 22.9921 70.9921 22 72.2159 22H87.2841C88.5079 22 89.5 22.9921 89.5 24.2159V39.2841C89.5 40.5079 88.5079 41.5 87.2841 41.5H72.2159C70.9921 41.5 70 40.5079 70 39.2841V24.2159Z" fill="black"/>
<path d="M137.5 22H118V41.5H137.5V22Z" fill="black"/>
</svg>
