<svg width="290" height="69" viewBox="0 0 290 69" fill="none" xmlns="http://www.w3.org/2000/svg">
<rect x="0.5" y="0.5" width="289" height="68" rx="4.5" stroke="#8A38F5" stroke-dasharray="10 5"/>
<rect x="20.5" y="20.5" width="51" height="32" rx="16" fill="white"/>
<rect x="20.5" y="20.5" width="51" height="32" rx="16" stroke="#44392B"/>
<path d="M42.308 35.288C42.468 34.76 42.584 34.268 42.656 33.812C42.736 33.348 42.776 32.936 42.776 32.576H36.776V31.472H43.568C43.944 31.472 44.132 31.656 44.132 32.024V32.528C44.132 32.872 44.088 33.248 44 33.656C43.92 34.064 43.796 34.5 43.628 34.964C43.532 35.18 43.356 35.288 43.1 35.288H42.308ZM40.472 34.064V35.972H45.236C45.412 35.972 45.5 36.088 45.5 36.32C45.5 36.824 45.336 37.076 45.008 37.076H35.288V35.972H39.128V34.064H40.472ZM40.4 37.82C40.952 37.82 41.448 37.88 41.888 38C42.336 38.112 42.716 38.264 43.028 38.456C43.332 38.656 43.564 38.892 43.724 39.164C43.892 39.428 43.976 39.712 43.976 40.016C43.976 40.32 43.896 40.608 43.736 40.88C43.576 41.144 43.344 41.38 43.04 41.588C42.736 41.788 42.36 41.944 41.912 42.056C41.464 42.176 40.96 42.236 40.4 42.236C39.848 42.236 39.348 42.176 38.9 42.056C38.452 41.944 38.076 41.788 37.772 41.588C37.468 41.38 37.232 41.144 37.064 40.88C36.896 40.616 36.812 40.332 36.812 40.028C36.812 39.724 36.896 39.44 37.064 39.176C37.232 38.904 37.468 38.668 37.772 38.468C38.076 38.268 38.452 38.112 38.9 38C39.348 37.88 39.848 37.82 40.4 37.82ZM40.388 41.156C40.7 41.156 40.992 41.124 41.264 41.06C41.544 41.004 41.788 40.928 41.996 40.832C42.204 40.728 42.364 40.608 42.476 40.472C42.596 40.328 42.656 40.176 42.656 40.016C42.656 39.864 42.596 39.72 42.476 39.584C42.364 39.448 42.204 39.328 41.996 39.224C41.788 39.12 41.544 39.04 41.264 38.984C40.992 38.928 40.7 38.9 40.388 38.9C40.06 38.9 39.756 38.928 39.476 38.984C39.204 39.04 38.968 39.12 38.768 39.224C38.568 39.328 38.412 39.448 38.3 39.584C38.188 39.72 38.132 39.864 38.132 40.016C38.132 40.176 38.188 40.328 38.3 40.472C38.412 40.608 38.568 40.728 38.768 40.832C38.968 40.928 39.204 41.004 39.476 41.06C39.756 41.124 40.06 41.156 40.388 41.156ZM52.1335 40.772C52.1335 41.684 51.8655 42.14 51.3295 42.14H51.1015C50.8535 42.14 50.7295 42.024 50.7295 41.792V38.66H46.3255V37.52H56.2735C56.4495 37.52 56.5375 37.648 56.5375 37.904C56.5375 38.408 56.3735 38.66 56.0455 38.66H52.1335V40.772ZM49.0855 31.652V32.936H53.7655V31.652H55.1215V34.316C55.1215 34.612 55.1055 34.872 55.0735 35.096C55.0415 35.32 55.0015 35.516 54.9535 35.684C54.9055 35.86 54.8455 36 54.7735 36.104C54.7015 36.2 54.6215 36.272 54.5335 36.32C54.4375 36.368 54.3295 36.4 54.2095 36.416C54.0975 36.424 53.9895 36.428 53.8855 36.428H48.8695C48.4375 36.428 48.1375 36.312 47.9695 36.08C47.8095 35.848 47.7295 35.512 47.7295 35.072V31.652H49.0855ZM53.4775 35.324C53.6695 35.324 53.7655 35.128 53.7655 34.736V34.04H49.0855V34.976C49.0855 35.208 49.2055 35.324 49.4455 35.324H53.4775Z" fill="#44392B"/>
<rect x="110.5" y="20.5" width="51" height="32" rx="16" fill="#FBBF24" fill-opacity="0.1"/>
<rect x="110.5" y="20.5" width="51" height="32" rx="16" stroke="#44392B"/>
<path d="M132.308 35.288C132.468 34.76 132.584 34.268 132.656 33.812C132.736 33.348 132.776 32.936 132.776 32.576H126.776V31.472H133.568C133.944 31.472 134.132 31.656 134.132 32.024V32.528C134.132 32.872 134.088 33.248 134 33.656C133.92 34.064 133.796 34.5 133.628 34.964C133.532 35.18 133.356 35.288 133.1 35.288H132.308ZM130.472 34.064V35.972H135.236C135.412 35.972 135.5 36.088 135.5 36.32C135.5 36.824 135.336 37.076 135.008 37.076H125.288V35.972H129.128V34.064H130.472ZM130.4 37.82C130.952 37.82 131.448 37.88 131.888 38C132.336 38.112 132.716 38.264 133.028 38.456C133.332 38.656 133.564 38.892 133.724 39.164C133.892 39.428 133.976 39.712 133.976 40.016C133.976 40.32 133.896 40.608 133.736 40.88C133.576 41.144 133.344 41.38 133.04 41.588C132.736 41.788 132.36 41.944 131.912 42.056C131.464 42.176 130.96 42.236 130.4 42.236C129.848 42.236 129.348 42.176 128.9 42.056C128.452 41.944 128.076 41.788 127.772 41.588C127.468 41.38 127.232 41.144 127.064 40.88C126.896 40.616 126.812 40.332 126.812 40.028C126.812 39.724 126.896 39.44 127.064 39.176C127.232 38.904 127.468 38.668 127.772 38.468C128.076 38.268 128.452 38.112 128.9 38C129.348 37.88 129.848 37.82 130.4 37.82ZM130.388 41.156C130.7 41.156 130.992 41.124 131.264 41.06C131.544 41.004 131.788 40.928 131.996 40.832C132.204 40.728 132.364 40.608 132.476 40.472C132.596 40.328 132.656 40.176 132.656 40.016C132.656 39.864 132.596 39.72 132.476 39.584C132.364 39.448 132.204 39.328 131.996 39.224C131.788 39.12 131.544 39.04 131.264 38.984C130.992 38.928 130.7 38.9 130.388 38.9C130.06 38.9 129.756 38.928 129.476 38.984C129.204 39.04 128.968 39.12 128.768 39.224C128.568 39.328 128.412 39.448 128.3 39.584C128.188 39.72 128.132 39.864 128.132 40.016C128.132 40.176 128.188 40.328 128.3 40.472C128.412 40.608 128.568 40.728 128.768 40.832C128.968 40.928 129.204 41.004 129.476 41.06C129.756 41.124 130.06 41.156 130.388 41.156ZM142.133 40.772C142.133 41.684 141.865 42.14 141.329 42.14H141.101C140.853 42.14 140.729 42.024 140.729 41.792V38.66H136.325V37.52H146.273C146.449 37.52 146.537 37.648 146.537 37.904C146.537 38.408 146.373 38.66 146.045 38.66H142.133V40.772ZM139.085 31.652V32.936H143.765V31.652H145.121V34.316C145.121 34.612 145.105 34.872 145.073 35.096C145.041 35.32 145.001 35.516 144.953 35.684C144.905 35.86 144.845 36 144.773 36.104C144.701 36.2 144.621 36.272 144.533 36.32C144.437 36.368 144.329 36.4 144.209 36.416C144.097 36.424 143.989 36.428 143.885 36.428H138.869C138.437 36.428 138.137 36.312 137.969 36.08C137.809 35.848 137.729 35.512 137.729 35.072V31.652H139.085ZM143.477 35.324C143.669 35.324 143.765 35.128 143.765 34.736V34.04H139.085V34.976C139.085 35.208 139.205 35.324 139.445 35.324H143.477Z" fill="#44392B"/>
<rect x="200" y="20" width="52" height="33" rx="16.5" fill="#F6B510"/>
<path d="M222.308 35.288C222.468 34.76 222.584 34.268 222.656 33.812C222.736 33.348 222.776 32.936 222.776 32.576H216.776V31.472H223.568C223.944 31.472 224.132 31.656 224.132 32.024V32.528C224.132 32.872 224.088 33.248 224 33.656C223.92 34.064 223.796 34.5 223.628 34.964C223.532 35.18 223.356 35.288 223.1 35.288H222.308ZM220.472 34.064V35.972H225.236C225.412 35.972 225.5 36.088 225.5 36.32C225.5 36.824 225.336 37.076 225.008 37.076H215.288V35.972H219.128V34.064H220.472ZM220.4 37.82C220.952 37.82 221.448 37.88 221.888 38C222.336 38.112 222.716 38.264 223.028 38.456C223.332 38.656 223.564 38.892 223.724 39.164C223.892 39.428 223.976 39.712 223.976 40.016C223.976 40.32 223.896 40.608 223.736 40.88C223.576 41.144 223.344 41.38 223.04 41.588C222.736 41.788 222.36 41.944 221.912 42.056C221.464 42.176 220.96 42.236 220.4 42.236C219.848 42.236 219.348 42.176 218.9 42.056C218.452 41.944 218.076 41.788 217.772 41.588C217.468 41.38 217.232 41.144 217.064 40.88C216.896 40.616 216.812 40.332 216.812 40.028C216.812 39.724 216.896 39.44 217.064 39.176C217.232 38.904 217.468 38.668 217.772 38.468C218.076 38.268 218.452 38.112 218.9 38C219.348 37.88 219.848 37.82 220.4 37.82ZM220.388 41.156C220.7 41.156 220.992 41.124 221.264 41.06C221.544 41.004 221.788 40.928 221.996 40.832C222.204 40.728 222.364 40.608 222.476 40.472C222.596 40.328 222.656 40.176 222.656 40.016C222.656 39.864 222.596 39.72 222.476 39.584C222.364 39.448 222.204 39.328 221.996 39.224C221.788 39.12 221.544 39.04 221.264 38.984C220.992 38.928 220.7 38.9 220.388 38.9C220.06 38.9 219.756 38.928 219.476 38.984C219.204 39.04 218.968 39.12 218.768 39.224C218.568 39.328 218.412 39.448 218.3 39.584C218.188 39.72 218.132 39.864 218.132 40.016C218.132 40.176 218.188 40.328 218.3 40.472C218.412 40.608 218.568 40.728 218.768 40.832C218.968 40.928 219.204 41.004 219.476 41.06C219.756 41.124 220.06 41.156 220.388 41.156ZM232.133 40.772C232.133 41.684 231.865 42.14 231.329 42.14H231.101C230.853 42.14 230.729 42.024 230.729 41.792V38.66H226.325V37.52H236.273C236.449 37.52 236.537 37.648 236.537 37.904C236.537 38.408 236.373 38.66 236.045 38.66H232.133V40.772ZM229.085 31.652V32.936H233.765V31.652H235.121V34.316C235.121 34.612 235.105 34.872 235.073 35.096C235.041 35.32 235.001 35.516 234.953 35.684C234.905 35.86 234.845 36 234.773 36.104C234.701 36.2 234.621 36.272 234.533 36.32C234.437 36.368 234.329 36.4 234.209 36.416C234.097 36.424 233.989 36.428 233.885 36.428H228.869C228.437 36.428 228.137 36.312 227.969 36.08C227.809 35.848 227.729 35.512 227.729 35.072V31.652H229.085ZM233.477 35.324C233.669 35.324 233.765 35.128 233.765 34.736V34.04H229.085V34.976C229.085 35.208 229.205 35.324 229.445 35.324H233.477Z" fill="white"/>
</svg>
