<svg width="121" height="32" viewBox="0 0 121 32" fill="none" xmlns="http://www.w3.org/2000/svg">
<mask id="path-1-inside-1_51_1185" fill="white">
<path d="M119.652 25.7527C122.255 21.2768 120.749 15.5037 116.091 13.2437C98.8802 4.89414 79.9417 0.587428 60.7296 0.710614C41.5175 0.833811 22.6357 5.38305 5.53337 13.9527C0.904324 16.2722 -0.52702 22.0641 2.13282 26.5063C4.79267 30.9485 10.535 32.3524 15.1944 30.0943C29.3959 23.2119 44.9904 19.5619 60.8498 19.4602C76.7092 19.3585 92.3493 22.8082 106.638 29.508C111.326 31.7061 117.05 30.2287 119.652 25.7527Z"/>
</mask>
<path d="M119.652 25.7527C122.255 21.2768 120.749 15.5037 116.091 13.2437C98.8802 4.89414 79.9417 0.587428 60.7296 0.710614C41.5175 0.833811 22.6357 5.38305 5.53337 13.9527C0.904324 16.2722 -0.52702 22.0641 2.13282 26.5063C4.79267 30.9485 10.535 32.3524 15.1944 30.0943C29.3959 23.2119 44.9904 19.5619 60.8498 19.4602C76.7092 19.3585 92.3493 22.8082 106.638 29.508C111.326 31.7061 117.05 30.2287 119.652 25.7527Z" fill="#F8F2E2" stroke="#44392B" stroke-width="2" mask="url(#path-1-inside-1_51_1185)"/>
</svg>
