<svg width="188" height="48" viewBox="0 0 188 48" fill="none" xmlns="http://www.w3.org/2000/svg">
<mask id="path-1-inside-1_324_763" fill="white">
<path d="M185.643 43.8985C188.89 40.1349 188.486 34.4277 184.534 31.4124C158.692 11.6925 127.062 0.850104 94.3932 0.664898C61.7241 0.479689 29.974 10.9628 3.90919 30.3884C-0.0762704 33.3587 -0.544881 39.061 2.65898 42.8612C5.86284 46.6614 11.5239 47.1173 15.5335 44.1797C38.3056 27.496 65.9041 18.5037 94.2912 18.6646C122.678 18.8255 150.173 28.1302 172.754 45.071C176.731 48.0538 182.396 47.6622 185.643 43.8985Z"/>
</mask>
<path d="M185.643 43.8985C188.89 40.1349 188.486 34.4277 184.534 31.4124C158.692 11.6925 127.062 0.850104 94.3932 0.664898C61.7241 0.479689 29.974 10.9628 3.90919 30.3884C-0.0762704 33.3587 -0.544881 39.061 2.65898 42.8612C5.86284 46.6614 11.5239 47.1173 15.5335 44.1797C38.3056 27.496 65.9041 18.5037 94.2912 18.6646C122.678 18.8255 150.173 28.1302 172.754 45.071C176.731 48.0538 182.396 47.6622 185.643 43.8985Z" fill="#44392B" stroke="#44392B" stroke-width="2" mask="url(#path-1-inside-1_324_763)"/>
</svg>
