<svg width="16" height="12" viewBox="0 0 16 12" fill="none" xmlns="http://www.w3.org/2000/svg">
<path fill-rule="evenodd" clip-rule="evenodd" d="M4.94041 7.4982C5.78343 6.74888 6.87213 6.33497 8.00004 6.33497C9.12795 6.33497 10.2166 6.74888 11.0597 7.4982C11.2919 7.70459 11.3128 8.06013 11.1064 8.29233C10.9 8.52452 10.5445 8.54544 10.3123 8.33905C9.67519 7.77277 8.85243 7.45997 8.00004 7.45997C7.14765 7.45997 6.3249 7.77277 5.6878 8.33905C5.45561 8.54544 5.10006 8.52452 4.89368 8.29233C4.68729 8.06013 4.70821 7.70459 4.94041 7.4982Z" fill="#44392B"/>
<path fill-rule="evenodd" clip-rule="evenodd" d="M2.78293 5.36148C4.19783 4.03844 6.06258 3.30242 7.99969 3.30242C9.9368 3.30242 11.8015 4.03844 13.2165 5.36148C13.4434 5.57366 13.4553 5.92961 13.2431 6.15653C13.0309 6.38344 12.675 6.39538 12.4481 6.1832C11.2416 5.05503 9.65148 4.42742 7.99969 4.42742C6.34789 4.42742 4.7578 5.05503 3.5513 6.1832C3.32438 6.39538 2.96843 6.38344 2.75625 6.15653C2.54407 5.92961 2.55601 5.57366 2.78293 5.36148Z" fill="#44392B"/>
<path fill-rule="evenodd" clip-rule="evenodd" d="M0.88508 2.982C2.84323 1.23516 5.37561 0.269775 7.99969 0.269775C10.6238 0.269775 13.1561 1.23516 15.1143 2.982C15.3461 3.18881 15.3664 3.54438 15.1596 3.77621C14.9528 4.00803 14.5972 4.02831 14.3654 3.8215C12.6134 2.25855 10.3476 1.39478 7.99969 1.39478C5.65183 1.39478 3.38602 2.25855 1.63399 3.8215C1.40216 4.02831 1.04659 4.00803 0.839782 3.77621C0.632977 3.54438 0.653258 3.18881 0.88508 2.982Z" fill="#44392B"/>
<path d="M7.99969 11.6244C7.77719 11.6244 7.55968 11.5585 7.37467 11.4349C7.18967 11.3112 7.04547 11.1355 6.96033 10.93C6.87518 10.7244 6.8529 10.4982 6.89631 10.28C6.93971 10.0617 7.04686 9.86129 7.2042 9.70395C7.36153 9.54662 7.56199 9.43947 7.78021 9.39607C7.99844 9.35266 8.22464 9.37494 8.43021 9.46008C8.63578 9.54523 8.81148 9.68943 8.93509 9.87443C9.05871 10.0594 9.12469 10.2769 9.12469 10.4994C9.12469 10.7978 9.00616 11.084 8.79519 11.2949C8.58421 11.5059 8.29806 11.6244 7.99969 11.6244Z" fill="#44392B"/>
</svg>
