<svg width="390" height="490" viewBox="0 0 390 490" fill="none" xmlns="http://www.w3.org/2000/svg">
<mask id="path-1-inside-1_56_255" fill="white">
<path d="M325.033 141.52C328.825 138.525 329.487 133.006 326.305 129.369C311.198 112.098 292.822 97.9442 272.206 87.7415C248.973 76.2435 223.476 70.0506 197.557 69.6104C171.637 69.1703 145.944 74.4939 122.334 85.1965C101.384 94.6933 82.5377 108.215 66.8532 124.963C63.55 128.49 64.0237 134.028 67.7116 137.151C71.3995 140.274 76.9034 139.797 80.2262 136.288C94.2219 121.509 110.97 109.562 129.559 101.135C150.808 91.503 173.932 86.7118 197.259 87.1079C220.587 87.504 243.534 93.0776 264.444 103.426C282.736 112.479 299.069 124.988 312.555 140.233C315.757 143.853 321.241 144.516 325.033 141.52Z"/>
</mask>
<path d="M325.033 141.52C328.825 138.525 329.487 133.006 326.305 129.369C311.198 112.098 292.822 97.9442 272.206 87.7415C248.973 76.2435 223.476 70.0506 197.557 69.6104C171.637 69.1703 145.944 74.4939 122.334 85.1965C101.384 94.6933 82.5377 108.215 66.8532 124.963C63.55 128.49 64.0237 134.028 67.7116 137.151C71.3995 140.274 76.9034 139.797 80.2262 136.288C94.2219 121.509 110.97 109.562 129.559 101.135C150.808 91.503 173.932 86.7118 197.259 87.1079C220.587 87.504 243.534 93.0776 264.444 103.426C282.736 112.479 299.069 124.988 312.555 140.233C315.757 143.853 321.241 144.516 325.033 141.52Z" fill="#F8F2E2" stroke="#44392B" stroke-width="2" mask="url(#path-1-inside-1_56_255)"/>
<mask id="path-2-inside-2_56_255" fill="white">
<path d="M287.643 171.899C290.89 168.135 290.486 162.428 286.534 159.412C260.692 139.693 229.062 128.85 196.393 128.665C163.724 128.48 131.974 138.963 105.909 158.388C101.924 161.359 101.455 167.061 104.659 170.861C107.863 174.661 113.524 175.117 117.534 172.18C140.306 155.496 167.904 146.504 196.291 146.665C224.678 146.826 252.173 156.13 274.754 173.071C278.731 176.054 284.396 175.662 287.643 171.899Z"/>
</mask>
<path d="M287.643 171.899C290.89 168.135 290.486 162.428 286.534 159.412C260.692 139.693 229.062 128.85 196.393 128.665C163.724 128.48 131.974 138.963 105.909 158.388C101.924 161.359 101.455 167.061 104.659 170.861C107.863 174.661 113.524 175.117 117.534 172.18C140.306 155.496 167.904 146.504 196.291 146.665C224.678 146.826 252.173 156.13 274.754 173.071C278.731 176.054 284.396 175.662 287.643 171.899Z" fill="#F8F2E2" stroke="#44392B" stroke-width="2" mask="url(#path-2-inside-2_56_255)"/>
<mask id="path-3-inside-3_56_255" fill="white">
<path d="M255.652 213.753C258.255 209.277 256.749 203.504 252.091 201.244C234.88 192.894 215.942 188.587 196.73 188.711C177.517 188.834 158.636 193.383 141.533 201.953C136.904 204.272 135.473 210.064 138.133 214.506C140.793 218.949 146.535 220.352 151.194 218.094C165.396 211.212 180.99 207.562 196.85 207.46C212.709 207.359 228.349 210.808 242.638 217.508C247.326 219.706 253.05 218.229 255.652 213.753Z"/>
</mask>
<path d="M255.652 213.753C258.255 209.277 256.749 203.504 252.091 201.244C234.88 192.894 215.942 188.587 196.73 188.711C177.517 188.834 158.636 193.383 141.533 201.953C136.904 204.272 135.473 210.064 138.133 214.506C140.793 218.949 146.535 220.352 151.194 218.094C165.396 211.212 180.99 207.562 196.85 207.46C212.709 207.359 228.349 210.808 242.638 217.508C247.326 219.706 253.05 218.229 255.652 213.753Z" fill="#F8F2E2" stroke="#44392B" stroke-width="2" mask="url(#path-3-inside-3_56_255)"/>
<circle cx="199" cy="260" r="18.5" fill="#F8F2E2" stroke="#44392B"/>
</svg>
