<svg width="265" height="75" viewBox="0 0 265 75" fill="none" xmlns="http://www.w3.org/2000/svg">
<mask id="path-1-inside-1_51_1183" fill="white">
<path d="M261.033 72.5204C264.825 69.5246 265.487 64.0059 262.305 60.3685C247.198 43.0978 228.822 28.9442 208.206 18.7415C184.973 7.24344 159.476 1.05055 133.557 0.610397C107.637 0.170264 81.9443 5.49386 58.334 16.1965C37.3837 25.6933 18.5377 39.2148 2.85323 55.9626C-0.45005 59.4898 0.0237203 65.0278 3.71163 68.1507C7.39955 71.2736 12.9034 70.7968 16.2262 67.288C30.2219 52.5088 46.9701 40.5617 65.5591 32.1353C86.8084 22.503 109.932 17.7118 133.259 18.1079C156.587 18.504 179.534 24.0776 200.444 34.4259C218.736 43.4786 235.069 55.9875 248.555 71.2333C251.757 74.8529 257.241 75.5163 261.033 72.5204Z"/>
</mask>
<path d="M261.033 72.5204C264.825 69.5246 265.487 64.0059 262.305 60.3685C247.198 43.0978 228.822 28.9442 208.206 18.7415C184.973 7.24344 159.476 1.05055 133.557 0.610397C107.637 0.170264 81.9443 5.49386 58.334 16.1965C37.3837 25.6933 18.5377 39.2148 2.85323 55.9626C-0.45005 59.4898 0.0237203 65.0278 3.71163 68.1507C7.39955 71.2736 12.9034 70.7968 16.2262 67.288C30.2219 52.5088 46.9701 40.5617 65.5591 32.1353C86.8084 22.503 109.932 17.7118 133.259 18.1079C156.587 18.504 179.534 24.0776 200.444 34.4259C218.736 43.4786 235.069 55.9875 248.555 71.2333C251.757 74.8529 257.241 75.5163 261.033 72.5204Z" fill="#F8F2E2" stroke="#44392B" stroke-width="2" mask="url(#path-1-inside-1_51_1183)"/>
</svg>
