<svg width="350" height="60" viewBox="0 0 350 60" fill="none" xmlns="http://www.w3.org/2000/svg">
<rect width="350" height="60" rx="8" fill="#44392B"/>
<path d="M89.664 23.404H91.072V30.78C91.072 31.0253 91.1947 31.148 91.44 31.148H97.024C97.2053 31.148 97.296 31.276 97.296 31.532C97.296 32.0653 97.12 32.332 96.768 32.332H90.864C90.064 32.332 89.664 31.9373 89.664 31.148V23.404ZM100.144 35.404C100.144 36.3747 99.872 36.86 99.328 36.86H99.104C98.8587 36.86 98.736 36.7373 98.736 36.492V22.684H100.144V27.196H102.16C102.341 27.196 102.432 27.324 102.432 27.58C102.432 28.1453 102.261 28.428 101.92 28.428H100.144V35.404ZM110.598 27.996C110.598 29.34 110.257 30.012 109.574 30.012H104.998C104.209 30.012 103.814 29.6173 103.814 28.828V23.244H109.99C110.395 23.244 110.598 23.436 110.598 23.82V27.996ZM108.87 28.828C109.083 28.828 109.19 28.62 109.19 28.204V24.412H105.222V28.46C105.222 28.7053 105.345 28.828 105.59 28.828H108.87ZM114.454 31.084C114.454 32.0653 114.182 32.556 113.638 32.556H113.414C113.169 32.556 113.046 32.428 113.046 32.172V22.684H114.454V26.124H116.47C116.651 26.124 116.742 26.2467 116.742 26.492C116.742 27.0253 116.577 27.292 116.246 27.292H114.454V31.084ZM105.718 31.804H107.126V35.116C107.126 35.372 107.254 35.5 107.51 35.5H114.406C114.587 35.5 114.678 35.6227 114.678 35.868C114.678 36.412 114.513 36.684 114.182 36.684H106.918C106.118 36.684 105.718 36.2893 105.718 35.5V31.804ZM121.996 23.004C122.562 23.004 123.063 23.0947 123.5 23.276C123.948 23.4573 124.332 23.708 124.652 24.028C124.962 24.348 125.196 24.7213 125.356 25.148C125.527 25.564 125.612 26.012 125.612 26.492C125.612 26.972 125.527 27.4253 125.356 27.852C125.196 28.2787 124.962 28.652 124.652 28.972C124.332 29.292 123.948 29.548 123.5 29.74C123.063 29.9213 122.562 30.012 121.996 30.012C121.431 30.012 120.924 29.9213 120.476 29.74C120.039 29.548 119.666 29.292 119.356 28.972C119.047 28.652 118.807 28.2787 118.636 27.852C118.466 27.4253 118.38 26.972 118.38 26.492C118.38 26.012 118.466 25.564 118.636 25.148C118.807 24.7213 119.047 24.348 119.356 24.028C119.666 23.708 120.039 23.4573 120.476 23.276C120.924 23.0947 121.431 23.004 121.996 23.004ZM121.996 28.812C122.295 28.812 122.578 28.7533 122.844 28.636C123.122 28.508 123.356 28.3373 123.548 28.124C123.74 27.9107 123.895 27.6653 124.012 27.388C124.13 27.1 124.188 26.796 124.188 26.476C124.188 26.156 124.13 25.8573 124.012 25.58C123.895 25.3027 123.74 25.0573 123.548 24.844C123.356 24.6413 123.122 24.4813 122.844 24.364C122.578 24.236 122.295 24.172 121.996 24.172C121.666 24.172 121.367 24.236 121.1 24.364C120.834 24.4813 120.604 24.6413 120.412 24.844C120.21 25.0573 120.055 25.3027 119.948 25.58C119.842 25.8573 119.788 26.156 119.788 26.476C119.788 26.796 119.842 27.1 119.948 27.388C120.055 27.6653 120.204 27.9107 120.396 28.124C120.588 28.3373 120.818 28.508 121.084 28.636C121.351 28.7533 121.655 28.812 121.996 28.812ZM129.068 35.404C129.068 36.3747 128.791 36.86 128.236 36.86H128.044C127.799 36.86 127.676 36.7373 127.676 36.492V22.684H129.068V35.404ZM117.676 32.588H126.684C126.876 32.588 126.972 32.716 126.972 32.972C126.972 33.4947 126.796 33.756 126.444 33.756H117.676V32.588ZM145.831 27.836C146.034 27.1213 146.183 26.4493 146.279 25.82C146.375 25.18 146.423 24.5827 146.423 24.028H138.311V22.844H147.255C147.639 22.844 147.831 23.0413 147.831 23.436V24.108C147.831 25.0787 147.634 26.204 147.239 27.484C147.197 27.6013 147.127 27.692 147.031 27.756C146.935 27.8093 146.818 27.836 146.679 27.836H145.831ZM143.127 26.268V28.908H149.351C149.543 28.908 149.639 29.0307 149.639 29.276C149.639 29.8093 149.463 30.076 149.111 30.076H136.343V28.908H141.719V26.268H143.127ZM142.999 31.356C143.725 31.356 144.381 31.4307 144.967 31.58C145.565 31.7293 146.066 31.9267 146.471 32.172C146.877 32.428 147.191 32.7267 147.415 33.068C147.639 33.4093 147.751 33.772 147.751 34.156C147.751 34.5613 147.645 34.94 147.431 35.292C147.218 35.6333 146.914 35.9373 146.519 36.204C146.114 36.4707 145.613 36.6787 145.015 36.828C144.429 36.9773 143.757 37.052 142.999 37.052C142.263 37.052 141.597 36.9773 140.999 36.828C140.413 36.6787 139.917 36.476 139.511 36.22C139.106 35.9533 138.791 35.6493 138.567 35.308C138.343 34.956 138.231 34.588 138.231 34.204C138.231 33.8093 138.343 33.4413 138.567 33.1C138.791 32.748 139.106 32.444 139.511 32.188C139.917 31.932 140.413 31.7293 140.999 31.58C141.597 31.4307 142.263 31.356 142.999 31.356ZM142.983 35.9C143.453 35.9 143.89 35.852 144.295 35.756C144.711 35.6707 145.074 35.5533 145.383 35.404C145.682 35.244 145.917 35.0627 146.087 34.86C146.269 34.6573 146.359 34.4387 146.359 34.204C146.359 33.9693 146.269 33.7507 146.087 33.548C145.917 33.3453 145.682 33.164 145.383 33.004C145.074 32.8547 144.711 32.7373 144.295 32.652C143.89 32.5667 143.453 32.524 142.983 32.524C142.493 32.524 142.039 32.5667 141.623 32.652C141.207 32.7373 140.85 32.8547 140.551 33.004C140.253 33.164 140.023 33.3453 139.863 33.548C139.703 33.7507 139.623 33.9693 139.623 34.204C139.623 34.4387 139.703 34.6573 139.863 34.86C140.023 35.0627 140.253 35.244 140.551 35.404C140.85 35.5533 141.207 35.6707 141.623 35.756C142.039 35.852 142.493 35.9 142.983 35.9ZM158.029 35.452C158.029 36.4227 157.752 36.908 157.197 36.908H156.957C156.701 36.908 156.573 36.7853 156.573 36.54V32.204H150.653V30.988H163.661C163.853 30.988 163.949 31.1213 163.949 31.388C163.949 31.932 163.773 32.204 163.421 32.204H158.029V35.452ZM153.965 23.084V24.972H160.621V23.084H162.029V26.668C162.029 26.9453 162.019 27.196 161.997 27.42C161.987 27.644 161.955 27.8467 161.901 28.028C161.88 28.3907 161.821 28.6627 161.725 28.844C161.629 29.0147 161.507 29.132 161.357 29.196C161.197 29.26 161.027 29.292 160.845 29.292C160.664 29.2813 160.483 29.276 160.301 29.276H153.741C153.485 29.276 153.277 29.2387 153.117 29.164C152.968 29.0787 152.851 28.956 152.765 28.796C152.68 28.636 152.627 28.444 152.605 28.22C152.584 27.9853 152.573 27.7187 152.573 27.42V23.084H153.965ZM160.317 28.108C160.52 28.108 160.621 27.8947 160.621 27.468V26.14H153.965V27.724C153.965 27.98 154.093 28.108 154.349 28.108H160.317ZM171.08 23.404H177.928C178.11 23.404 178.2 23.532 178.2 23.788C178.2 24.3213 178.03 24.588 177.688 24.588H175.288V25.676C175.288 26.9667 175.576 28.1027 176.152 29.084C176.728 30.0653 177.518 30.876 178.52 31.516C178.627 31.6227 178.68 31.7293 178.68 31.836C178.68 31.9213 178.659 32.0067 178.616 32.092C178.574 32.1773 178.52 32.2573 178.456 32.332C178.382 32.4067 178.302 32.4707 178.216 32.524C178.142 32.5667 178.078 32.588 178.024 32.588C177.96 32.588 177.886 32.5613 177.8 32.508C177.118 32.1027 176.488 31.6013 175.912 31.004C175.347 30.4067 174.899 29.7347 174.568 28.988C174.206 29.788 173.752 30.4867 173.208 31.084C172.664 31.6707 172.078 32.1613 171.448 32.556C171.352 32.6093 171.272 32.636 171.208 32.636C171.155 32.636 171.091 32.6147 171.016 32.572C170.942 32.5293 170.872 32.4707 170.808 32.396C170.734 32.3213 170.675 32.2413 170.632 32.156C170.59 32.06 170.568 31.9693 170.568 31.884C170.568 31.7667 170.627 31.66 170.744 31.564C171.214 31.2547 171.635 30.8867 172.008 30.46C172.392 30.0333 172.718 29.564 172.984 29.052C173.251 28.5507 173.459 28.0173 173.608 27.452C173.768 26.876 173.848 26.284 173.848 25.676V24.588H171.08V23.404ZM181.752 35.404C181.752 36.3747 181.48 36.86 180.936 36.86H180.728C180.483 36.86 180.36 36.7373 180.36 36.492V22.684H181.752V27.196H183.768C183.96 27.196 184.056 27.3293 184.056 27.596C184.056 28.1507 183.886 28.428 183.544 28.428H181.752V35.404ZM185.503 27.58H190.607C190.745 27.58 190.815 27.4627 190.815 27.228V24.572H185.503V23.404H191.631C192.025 23.404 192.223 23.596 192.223 23.98V26.908C192.223 28.1347 191.919 28.748 191.311 28.748H186.911V31.564C186.911 31.7453 186.996 31.836 187.167 31.836H193.135C193.305 31.836 193.391 31.9533 193.391 32.188C193.391 32.732 193.22 33.004 192.879 33.004H186.671C185.892 33.004 185.503 32.6093 185.503 31.82V27.58ZM196.367 35.404C196.367 36.3747 196.095 36.86 195.551 36.86H195.327C195.071 36.86 194.943 36.7373 194.943 36.492V22.684H196.367V35.404ZM204.777 23.772H207.641V22.348H209.034V23.772H211.786C211.977 23.772 212.073 23.9 212.073 24.156C212.073 24.6893 211.903 24.956 211.562 24.956H209.065V25.036C209.065 25.4627 209.145 25.868 209.306 26.252C209.476 26.6253 209.706 26.9773 209.994 27.308C210.271 27.6387 210.607 27.948 211.002 28.236C211.407 28.524 211.844 28.796 212.314 29.052C212.452 29.1373 212.522 29.2493 212.522 29.388C212.522 29.484 212.495 29.58 212.441 29.676C212.399 29.7613 212.346 29.836 212.281 29.9C212.218 29.9747 212.148 30.0333 212.073 30.076C212.009 30.1187 211.956 30.14 211.913 30.14C211.817 30.14 211.743 30.1187 211.689 30.076C211.369 29.9053 211.044 29.7187 210.714 29.516C210.383 29.3133 210.074 29.1 209.786 28.876C209.487 28.652 209.215 28.4173 208.97 28.172C208.724 27.9267 208.521 27.6707 208.361 27.404C208.041 27.9907 207.577 28.524 206.969 29.004C206.361 29.484 205.716 29.9053 205.033 30.268C204.98 30.3107 204.916 30.332 204.841 30.332C204.724 30.332 204.591 30.252 204.441 30.092C204.303 29.9213 204.233 29.7453 204.233 29.564C204.233 29.4253 204.292 29.3187 204.409 29.244C204.537 29.1693 204.665 29.0893 204.793 29.004C205.647 28.4707 206.329 27.8787 206.841 27.228C207.353 26.5773 207.609 25.8467 207.609 25.036V24.956H204.777V23.772ZM215.402 28.988C215.402 29.9587 215.13 30.444 214.585 30.444H214.378C214.132 30.444 214.01 30.3213 214.01 30.076V22.684H215.402V25.804H217.418C217.61 25.804 217.706 25.932 217.706 26.188C217.706 26.7213 217.53 26.988 217.178 26.988H215.402V28.988ZM206.617 31.276H215.066C215.29 31.276 215.402 31.404 215.402 31.66C215.402 31.8627 215.38 32.0173 215.338 32.124C215.295 32.2307 215.231 32.3053 215.146 32.348C215.05 32.4013 214.938 32.4333 214.81 32.444C214.692 32.444 214.554 32.444 214.394 32.444H211.769C211.78 32.828 211.903 33.196 212.137 33.548C212.383 33.8893 212.692 34.1987 213.066 34.476C213.428 34.7533 213.828 34.9933 214.266 35.196C214.714 35.3987 215.151 35.5533 215.578 35.66C215.78 35.724 215.882 35.852 215.882 36.044C215.882 36.2787 215.828 36.4653 215.722 36.604C215.615 36.7427 215.503 36.812 215.385 36.812C215.332 36.812 215.295 36.8067 215.274 36.796C214.879 36.7 214.479 36.572 214.074 36.412C213.668 36.2627 213.279 36.0867 212.906 35.884C212.532 35.6707 212.186 35.436 211.866 35.18C211.546 34.924 211.268 34.6413 211.034 34.332C210.831 34.62 210.569 34.892 210.249 35.148C209.929 35.404 209.583 35.6387 209.209 35.852C208.836 36.0547 208.441 36.236 208.025 36.396C207.609 36.5667 207.215 36.7 206.841 36.796C206.809 36.8067 206.767 36.812 206.713 36.812C206.596 36.812 206.484 36.7427 206.377 36.604C206.271 36.4653 206.217 36.2787 206.217 36.044C206.217 35.852 206.313 35.724 206.505 35.66C206.964 35.5213 207.417 35.3507 207.865 35.148C208.313 34.9347 208.713 34.6893 209.065 34.412C209.418 34.1453 209.706 33.8467 209.93 33.516C210.164 33.1853 210.292 32.828 210.313 32.444H206.617V31.276ZM230.016 35.404C230.016 36.3747 229.744 36.86 229.2 36.86H228.976C228.72 36.86 228.592 36.7373 228.592 36.492V22.684H230.016V35.404ZM225.728 24.604C225.728 25.6067 225.589 26.5187 225.312 27.34C225.045 28.1613 224.656 28.9027 224.144 29.564C223.632 30.2253 222.997 30.812 222.24 31.324C221.493 31.8253 220.645 32.2573 219.696 32.62C219.621 32.652 219.562 32.668 219.52 32.668C219.402 32.668 219.28 32.5933 219.152 32.444C219.024 32.2947 218.96 32.1133 218.96 31.9C218.96 31.74 219.04 31.6173 219.2 31.532C219.957 31.2333 220.645 30.8707 221.264 30.444C221.893 30.0173 222.432 29.5267 222.88 28.972C223.328 28.428 223.674 27.8253 223.92 27.164C224.165 26.492 224.288 25.772 224.288 25.004V24.588H219.392V23.404H225.136C225.53 23.404 225.728 23.6013 225.728 23.996V24.604Z" fill="#F8F2E2"/>
<path fill-rule="evenodd" clip-rule="evenodd" d="M246.88 23.0145C247.992 22.2715 249.299 21.875 250.636 21.875H250.636C252.429 21.8751 254.149 22.5875 255.417 23.8555C256.685 25.1234 257.397 26.8431 257.398 28.6363V28.6363C257.398 29.9736 257.001 31.2808 256.258 32.3927C256.128 32.5879 255.988 32.7755 255.839 32.9549L259.942 37.0581C260.186 37.3021 260.186 37.6979 259.942 37.9419C259.698 38.186 259.302 38.186 259.058 37.9419L254.955 33.8388C254.436 34.2693 253.853 34.6222 253.224 34.883C251.988 35.3947 250.629 35.5286 249.317 35.2677C248.006 35.0069 246.801 34.3629 245.855 33.4173C244.91 32.4717 244.266 31.267 244.005 29.9554C243.744 28.6438 243.878 27.2844 244.39 26.0489C244.901 24.8134 245.768 23.7574 246.88 23.0145ZM250.636 23.125C249.546 23.125 248.481 23.4482 247.574 24.0538C246.668 24.6594 245.962 25.5202 245.544 26.5272C245.127 27.5343 245.018 28.6424 245.231 29.7115C245.443 30.7806 245.968 31.7627 246.739 32.5334C247.51 33.3042 248.492 33.8291 249.561 34.0418C250.63 34.2544 251.738 34.1453 252.745 33.7281C253.752 33.311 254.613 32.6046 255.219 31.6983C255.824 30.7919 256.148 29.7264 256.148 28.6364M250.636 23.125C252.098 23.1251 253.5 23.7058 254.533 24.7393C255.567 25.7729 256.147 27.1747 256.148 28.6363" fill="#F8F2E2"/>
</svg>
