<svg width="25" height="24" viewBox="0 0 25 24" fill="none" xmlns="http://www.w3.org/2000/svg">
<path fill-rule="evenodd" clip-rule="evenodd" d="M18.7197 6.96967C19.0126 6.67678 19.4874 6.67678 19.7803 6.96967L22.7803 9.96967C23.0732 10.2626 23.0732 10.7374 22.7803 11.0303L19.7803 14.0303C19.4874 14.3232 19.0126 14.3232 18.7197 14.0303C18.4268 13.7374 18.4268 13.2626 18.7197 12.9697L20.4393 11.25H7.71875C5.39709 11.25 3.5 13.2078 3.5 15.5625V16.5C3.5 16.9142 3.16421 17.25 2.75 17.25C2.33579 17.25 2 16.9142 2 16.5V15.5625C2 12.4169 4.53166 9.75 7.71875 9.75H20.4393L18.7197 8.03033C18.4268 7.73744 18.4268 7.26256 18.7197 6.96967Z" fill="#F8F2E2"/>
</svg>
