<svg width="20" height="20" viewBox="0 0 20 20" fill="none" xmlns="http://www.w3.org/2000/svg">
<path d="M10.5 3.50006L14.5 7.50006M16 15.0001V15.0101M1 17.0001H5L15.5 6.50006C15.7626 6.23741 15.971 5.92561 16.1131 5.58245C16.2553 5.23929 16.3284 4.87149 16.3284 4.50006C16.3284 4.12862 16.2553 3.76083 16.1131 3.41767C15.971 3.07451 15.7626 2.7627 15.5 2.50006C15.2374 2.23741 14.9256 2.02907 14.5824 1.88693C14.2392 1.74479 13.8714 1.67163 13.5 1.67163C13.1286 1.67163 12.7608 1.74479 12.4176 1.88693C12.0744 2.02907 11.7626 2.23741 11.5 2.50006L1 13.0001V17.0001ZM18.121 17.1211C18.5406 16.7015 18.8265 16.167 18.9423 15.585C19.0581 15.0031 18.9988 14.3998 18.7717 13.8516C18.5447 13.3033 18.1602 12.8348 17.6668 12.5051C17.1734 12.1754 16.5934 11.9994 16 11.9994C15.4066 11.9994 14.8266 12.1754 14.3332 12.5051C13.8398 12.8348 13.4553 13.3033 13.2283 13.8516C13.0012 14.3998 12.9419 15.0031 13.0577 15.585C13.1735 16.167 13.4594 16.7015 13.879 17.1211C14.297 17.5397 15.004 18.1661 16 19.0001C17.0513 18.1101 17.7583 17.4837 18.121 17.1211Z" stroke="white" stroke-width="2" stroke-linecap="round" stroke-linejoin="round"/>
</svg>
