<svg width="16" height="15" viewBox="0 0 16 15" fill="none" xmlns="http://www.w3.org/2000/svg">
<path d="M9.875 10.2044L10.7556 11.1331C11.2244 11.6275 11.4588 11.875 11.75 11.875C12.0412 11.875 12.2756 11.6275 12.7444 11.1331L13.625 10.2044M11.75 11.8206V9.08625C11.75 7.69 11.75 6.9925 11.4706 6.37688C11.1912 5.76125 10.6663 5.30188 9.61563 4.3825L9.25 4.0625" stroke="#171717" stroke-width="1.5" stroke-linecap="round" stroke-linejoin="round"/>
<path d="M2.375 4.0625C2.375 3.29687 2.375 2.91375 2.52375 2.62125C2.655 2.36437 2.86437 2.155 3.12125 2.02375C3.41375 1.875 3.79625 1.875 4.5625 1.875C5.32875 1.875 5.71125 1.875 6.00375 2.02375C6.26062 2.155 6.47 2.36437 6.60125 2.62125C6.75 2.91375 6.75 3.29625 6.75 4.0625C6.75 4.82875 6.75 5.21125 6.60125 5.50375C6.47 5.76062 6.26062 5.97 6.00375 6.10125C5.71125 6.25 5.32875 6.25 4.5625 6.25C3.79625 6.25 3.41375 6.25 3.12125 6.10125C2.86431 5.96974 2.65526 5.76069 2.52375 5.50375C2.375 5.21125 2.375 4.82875 2.375 4.0625ZM2.375 10.9375C2.375 10.1719 2.375 9.78875 2.52375 9.49625C2.655 9.23938 2.86437 9.03 3.12125 8.89875C3.41375 8.75 3.79625 8.75 4.5625 8.75C5.32875 8.75 5.71125 8.75 6.00375 8.89875C6.26062 9.03 6.47 9.23938 6.60125 9.49625C6.75 9.78875 6.75 10.1713 6.75 10.9375C6.75 11.7037 6.75 12.0862 6.60125 12.3787C6.47 12.6356 6.26062 12.845 6.00375 12.9762C5.71125 13.125 5.32875 13.125 4.5625 13.125C3.79625 13.125 3.41375 13.125 3.12125 12.9762C2.86431 12.8447 2.65526 12.6357 2.52375 12.3787C2.375 12.0862 2.375 11.7037 2.375 10.9375Z" stroke="#171717" stroke-width="1.5"/>
</svg>
