<svg width="16" height="16" viewBox="0 0 16 16" fill="none" xmlns="http://www.w3.org/2000/svg">
<path d="M9.875 10.7044L10.7556 11.6331C11.2244 12.1275 11.4588 12.375 11.75 12.375C12.0412 12.375 12.2756 12.1275 12.7444 11.6331L13.625 10.7044M11.75 12.3206V9.58625C11.75 8.19 11.75 7.4925 11.4706 6.87688C11.1912 6.26125 10.6663 5.80188 9.61563 4.8825L9.25 4.5625" stroke="#D4D4D4" stroke-width="1.5" stroke-linecap="round" stroke-linejoin="round"/>
<path d="M2.375 4.5625C2.375 3.79687 2.375 3.41375 2.52375 3.12125C2.655 2.86437 2.86437 2.655 3.12125 2.52375C3.41375 2.375 3.79625 2.375 4.5625 2.375C5.32875 2.375 5.71125 2.375 6.00375 2.52375C6.26062 2.655 6.47 2.86437 6.60125 3.12125C6.75 3.41375 6.75 3.79625 6.75 4.5625C6.75 5.32875 6.75 5.71125 6.60125 6.00375C6.47 6.26062 6.26062 6.47 6.00375 6.60125C5.71125 6.75 5.32875 6.75 4.5625 6.75C3.79625 6.75 3.41375 6.75 3.12125 6.60125C2.86431 6.46974 2.65526 6.26069 2.52375 6.00375C2.375 5.71125 2.375 5.32875 2.375 4.5625ZM2.375 11.4375C2.375 10.6719 2.375 10.2888 2.52375 9.99625C2.655 9.73938 2.86437 9.53 3.12125 9.39875C3.41375 9.25 3.79625 9.25 4.5625 9.25C5.32875 9.25 5.71125 9.25 6.00375 9.39875C6.26062 9.53 6.47 9.73938 6.60125 9.99625C6.75 10.2888 6.75 10.6713 6.75 11.4375C6.75 12.2037 6.75 12.5862 6.60125 12.8787C6.47 13.1356 6.26062 13.345 6.00375 13.4762C5.71125 13.625 5.32875 13.625 4.5625 13.625C3.79625 13.625 3.41375 13.625 3.12125 13.4762C2.86431 13.3447 2.65526 13.1357 2.52375 12.8787C2.375 12.5862 2.375 12.2037 2.375 11.4375Z" stroke="#D4D4D4" stroke-width="1.5"/>
</svg>
