<svg width="16" height="15" viewBox="0 0 16 15" fill="none" xmlns="http://www.w3.org/2000/svg">
<path d="M11.75 12.1875C12.625 12.1875 13.0625 12.1875 13.3969 12.0169C13.6907 11.8671 13.9296 11.6282 14.0794 11.3344C14.25 11 14.25 10.5625 14.25 9.6875V5.3125C14.25 4.4375 14.25 4 14.0794 3.66562C13.9297 3.37157 13.6908 3.13243 13.3969 2.9825C13.0625 2.8125 12.625 2.8125 11.75 2.8125M4.25 12.1875C3.375 12.1875 2.9375 12.1875 2.60313 12.0169C2.30907 11.8672 2.06993 11.6283 1.92 11.3344C1.75 11 1.75 10.5625 1.75 9.6875V5.3125C1.75 4.4375 1.75 4 1.92 3.66562C2.06983 3.37147 2.30897 3.13233 2.60313 2.9825C2.9375 2.8125 3.375 2.8125 4.25 2.8125M4.25 5C4.25 3.2325 4.25 2.34812 4.79938 1.79937C5.34813 1.25 6.2325 1.25 8 1.25C9.7675 1.25 10.6519 1.25 11.2006 1.79937C11.75 2.34812 11.75 3.2325 11.75 5V10C11.75 11.7675 11.75 12.6519 11.2006 13.2006C10.6519 13.75 9.7675 13.75 8 13.75C6.2325 13.75 5.34813 13.75 4.79938 13.2006C4.25 12.6519 4.25 11.7675 4.25 10V5Z" stroke="#D4D4D4" stroke-width="1.5"/>
</svg>
