<svg width="16" height="16" viewBox="0 0 16 16" fill="none" xmlns="http://www.w3.org/2000/svg">
<path d="M11.75 12.6875C12.625 12.6875 13.0625 12.6875 13.3969 12.5169C13.6907 12.3671 13.9296 12.1282 14.0794 11.8344C14.25 11.5 14.25 11.0625 14.25 10.1875V5.8125C14.25 4.9375 14.25 4.5 14.0794 4.16562C13.9297 3.87157 13.6908 3.63243 13.3969 3.4825C13.0625 3.3125 12.625 3.3125 11.75 3.3125M4.25 12.6875C3.375 12.6875 2.9375 12.6875 2.60313 12.5169C2.30907 12.3672 2.06993 12.1283 1.92 11.8344C1.75 11.5 1.75 11.0625 1.75 10.1875V5.8125C1.75 4.9375 1.75 4.5 1.92 4.16562C2.06983 3.87147 2.30897 3.63233 2.60313 3.4825C2.9375 3.3125 3.375 3.3125 4.25 3.3125M4.25 5.5C4.25 3.7325 4.25 2.84812 4.79938 2.29937C5.34813 1.75 6.2325 1.75 8 1.75C9.7675 1.75 10.6519 1.75 11.2006 2.29937C11.75 2.84812 11.75 3.7325 11.75 5.5V10.5C11.75 12.2675 11.75 13.1519 11.2006 13.7006C10.6519 14.25 9.7675 14.25 8 14.25C6.2325 14.25 5.34813 14.25 4.79938 13.7006C4.25 13.1519 4.25 12.2675 4.25 10.5V5.5Z" stroke="#171717" stroke-width="1.5"/>
</svg>
